<svg width="233" height="60" viewBox="0 0 233 60" fill="none" xmlns="http://www.w3.org/2000/svg">
<path d="M85.67 28.18C85.67 28.16 85.66 28.14 85.64 28.12L78.94 10.48C78.89 10.35 78.79 10.29 78.66 10.31L72.79 11.59C72.67 11.63 72.6 11.7 72.58 11.81C72.56 11.92 72.6 12.01 72.68 12.09C73.49 12.74 74.08 13.58 74.44 14.6V14.63C73.78 16.69 73.34 18.01 73.09 18.59L70.45 26.06C69.85 27.79 68.89 29.24 67.58 30.41C67.49 30.5 67.47 30.61 67.52 30.73C67.56 30.85 67.64 30.91 67.77 30.91C67.91 30.91 68.92 30.91 70.8 30.91H71.71C71.81 30.91 71.89 30.85 71.93 30.74C71.97 30.63 71.96 30.53 71.89 30.43C71.48 29.95 71.21 29.38 71.09 28.72C70.97 28.06 71.01 27.42 71.22 26.78L71.79 25.11H78.44L79.09 26.78C79.31 27.39 79.37 28.03 79.26 28.7C79.15 29.37 78.88 29.94 78.45 30.43C78.38 30.52 78.37 30.62 78.41 30.72C78.45 30.82 78.53 30.87 78.63 30.87H86.96C87.08 30.87 87.16 30.81 87.21 30.7C87.25 30.59 87.23 30.49 87.15 30.39C86.48 29.78 86 29.03 85.67 28.18ZM72.14 24.05L75.01 15.97L78.06 24.05H72.14Z" fill="#E8D7AC"/>
<path d="M116.87 11.46C116.96 11.37 116.98 11.26 116.93 11.14C116.89 11.02 116.8 10.96 116.68 10.96H111.45C111.33 10.96 111.25 11.03 111.22 11.16C111.19 11.29 111.22 11.39 111.32 11.47C111.91 11.95 112.3 12.58 112.51 13.34C112.72 14.1 112.69 14.87 112.43 15.65L108.78 26.46L104.92 15.7C104.64 14.94 104.62 14.16 104.86 13.37C105.09 12.58 105.53 11.94 106.17 11.46C106.27 11.39 106.3 11.28 106.26 11.15C106.22 11.02 106.13 10.95 106.01 10.95H96.72C96.6 10.95 96.52 11.01 96.47 11.13C96.43 11.25 96.45 11.35 96.53 11.42C97.63 12.53 98.47 13.85 99.04 15.38L99.76 17.41L96.68 26.44L92.88 15.68C92.6 14.92 92.59 14.14 92.83 13.35C93.07 12.56 93.51 11.92 94.15 11.44C94.25 11.37 94.28 11.26 94.24 11.13C94.2 11 94.11 10.93 93.99 10.93H84.7C84.58 10.93 84.5 10.99 84.45 11.11C84.41 11.23 84.43 11.33 84.51 11.4C85.61 12.51 86.44 13.83 86.99 15.36L92.45 30.63C92.5 30.76 92.59 30.82 92.71 30.8C93.76 30.74 94.8 30.74 95.81 30.8C95.93 30.82 96.02 30.76 96.07 30.63L100.36 19.12L104.55 30.63C104.6 30.74 104.68 30.8 104.78 30.8H104.81C105.86 30.74 106.9 30.74 107.91 30.8C108.03 30.8 108.12 30.74 108.17 30.63L113.4 16.39C114.2 14.45 115.34 12.8 116.87 11.46Z" fill="#E8D7AC"/>
<path d="M132.35 28.18C132.35 28.16 132.34 28.14 132.32 28.12L125.62 10.48C125.57 10.35 125.47 10.29 125.34 10.31L119.47 11.59C119.35 11.63 119.28 11.7 119.26 11.81C119.24 11.92 119.28 12.01 119.36 12.09C120.17 12.74 120.76 13.58 121.12 14.6V14.63C120.46 16.69 120.02 18.01 119.77 18.59L117.13 26.06C116.53 27.79 115.57 29.24 114.26 30.41C114.17 30.5 114.15 30.61 114.2 30.73C114.24 30.85 114.32 30.91 114.45 30.91C114.59 30.91 115.6 30.91 117.48 30.91H118.39C118.49 30.91 118.57 30.85 118.61 30.74C118.65 30.63 118.64 30.53 118.57 30.43C118.16 29.95 117.89 29.38 117.77 28.72C117.65 28.06 117.69 27.42 117.9 26.78L118.47 25.11H125.12L125.77 26.78C125.99 27.39 126.05 28.03 125.94 28.7C125.83 29.37 125.56 29.94 125.13 30.43C125.06 30.52 125.05 30.62 125.09 30.72C125.13 30.82 125.21 30.87 125.31 30.87H133.64C133.76 30.87 133.84 30.81 133.89 30.7C133.93 30.59 133.91 30.49 133.83 30.39C133.16 29.78 132.67 29.03 132.35 28.18ZM118.81 24.05L121.68 15.97L124.73 24.05H118.81Z" fill="#E8D7AC"/>
<path d="M153.15 27.48L146.42 18.01L146.34 17.9L148.36 15.64C149.39 14.51 150.41 13.64 151.4 13.03C152.39 12.43 153.53 11.99 154.83 11.73L155.01 11.7C155.17 11.68 155.24 11.59 155.24 11.42V11.28C155.24 11.09 155.15 11 154.98 11H147.86C147.69 11 147.6 11.09 147.6 11.28V11.34C147.6 11.51 147.67 11.6 147.81 11.62L148.09 11.68C148.45 11.75 148.71 11.87 148.87 12.04C149.04 12.24 149.1 12.5 149.05 12.79C148.96 13.31 148.52 14.03 147.73 14.94L142.89 20.4L141.6 21.82V15.3C141.6 13.81 142.07 12.53 143.02 11.45C143.11 11.38 143.12 11.28 143.07 11.17C143.02 11.06 142.94 11 142.84 11H134.95C134.83 11 134.75 11.06 134.7 11.17C134.66 11.28 134.68 11.37 134.76 11.45C135.71 12.53 136.18 13.81 136.18 15.3V26.5C136.18 28 135.71 29.29 134.76 30.35C134.67 30.44 134.65 30.54 134.7 30.66C134.74 30.77 134.83 30.83 134.95 30.83H142.84C142.94 30.83 143.02 30.77 143.07 30.66C143.12 30.55 143.1 30.45 143.02 30.35C142.07 29.29 141.6 28.01 141.6 26.5V23.13L142.76 21.88L149 30.71C149.05 30.78 149.12 30.82 149.21 30.82H155.16C155.26 30.82 155.34 30.76 155.39 30.65C155.44 30.54 155.42 30.45 155.34 30.37C154.57 29.43 153.84 28.47 153.15 27.48Z" fill="#E8D7AC"/>
<path d="M172.85 24.97C172.72 24.91 172.61 24.95 172.53 25.08C171.49 26.83 170.6 28.07 169.84 28.81C169.01 29.61 168.11 30.01 167.12 30.01H166.29C165.17 30.01 164.39 29.76 163.96 29.26C163.6 28.57 163.38 27.84 163.31 27.06L163.28 26.95C163.28 26.88 163.28 26.78 163.28 26.67C163.28 26.52 163.28 26.4 163.28 26.31V21.24L165.22 21.32C166.17 21.36 166.89 21.56 167.39 21.93C167.91 22.28 168.31 22.91 168.61 23.83C168.64 23.96 168.73 24.02 168.88 24C169.03 23.98 169.1 23.89 169.1 23.72V18.03C169.1 17.88 169.03 17.79 168.88 17.77C168.73 17.74 168.64 17.8 168.61 17.95C168.3 18.88 167.9 19.52 167.42 19.87C166.94 20.2 166.2 20.39 165.22 20.43L163.28 20.54V11.93H166.23C167.49 11.93 168.46 12.26 169.15 12.91C169.79 13.52 170.45 14.66 171.14 16.31C171.19 16.46 171.29 16.51 171.42 16.48L171.5 16.45C171.64 16.43 171.71 16.34 171.71 16.17C171.68 15.24 171.65 14.36 171.63 13.52C171.63 12.74 171.64 11.98 171.66 11.24C171.66 11.17 171.63 11.1 171.58 11.04C171.53 10.98 171.47 10.96 171.4 10.96H156.63C156.51 10.96 156.43 11.02 156.38 11.13C156.34 11.24 156.36 11.34 156.44 11.44C157.39 12.52 157.86 13.8 157.86 15.29V26.52C157.86 28.02 157.39 29.31 156.44 30.37C156.35 30.46 156.33 30.56 156.38 30.68C156.42 30.79 156.5 30.85 156.63 30.85H171.84C172 30.85 172.07 30.77 172.07 30.6C172.12 29.99 172.22 29.26 172.35 28.43C172.49 27.59 172.69 26.55 172.97 25.31C173.03 25.13 172.98 25.03 172.85 24.97Z" fill="#E8D7AC"/>
<path d="M192.97 10.96H189.4C189.28 10.96 189.2 11.02 189.15 11.13C189.11 11.24 189.13 11.34 189.21 11.44C190.14 12.5 190.62 13.76 190.63 15.23L190.71 24.12V24.62L181.29 11.08C181.24 11.01 181.17 10.97 181.08 10.97L174.59 11C174.49 11 174.41 11.05 174.36 11.15C174.31 11.25 174.32 11.35 174.39 11.44L176.12 13.64V26.82C176.07 28.23 175.59 29.45 174.7 30.47C174.63 30.56 174.62 30.67 174.66 30.78C174.7 30.89 174.78 30.95 174.88 30.95H178.48C178.58 30.95 178.66 30.89 178.7 30.78C178.74 30.67 178.73 30.57 178.66 30.47C177.71 29.39 177.24 28.11 177.24 26.62C177.24 26.6 177.23 26.58 177.21 26.56L177.16 15.5L177.13 15L187.87 30.75C187.92 30.82 187.99 30.86 188.08 30.86L191.47 30.83C191.64 30.83 191.73 30.75 191.73 30.58V15.28C191.73 13.79 192.2 12.51 193.15 11.43C193.24 11.34 193.26 11.24 193.21 11.12C193.17 11.01 193.09 10.96 192.97 10.96Z" fill="#E8D7AC"/>
<path d="M211.12 24.97C210.99 24.91 210.88 24.95 210.8 25.08C209.76 26.83 208.87 28.07 208.11 28.81C207.28 29.61 206.38 30.01 205.39 30.01H204.56C203.44 30.01 202.66 29.76 202.23 29.26C201.87 28.57 201.65 27.84 201.58 27.06L201.55 26.95C201.55 26.88 201.55 26.78 201.55 26.67C201.55 26.52 201.55 26.4 201.55 26.31V21.24L203.49 21.32C204.44 21.36 205.16 21.56 205.66 21.93C206.18 22.28 206.58 22.91 206.88 23.83C206.91 23.96 207 24.02 207.15 24C207.3 23.98 207.37 23.89 207.37 23.72V18.03C207.37 17.88 207.3 17.79 207.15 17.77C207 17.74 206.91 17.8 206.88 17.95C206.57 18.88 206.17 19.52 205.69 19.87C205.21 20.2 204.47 20.39 203.49 20.43L201.55 20.54V11.93H204.5C205.76 11.93 206.73 12.26 207.42 12.91C208.06 13.52 208.72 14.66 209.41 16.31C209.46 16.46 209.56 16.51 209.69 16.48L209.77 16.45C209.91 16.43 209.98 16.34 209.98 16.17C209.94 15.24 209.92 14.36 209.9 13.52C209.9 12.74 209.91 11.98 209.93 11.24C209.93 11.17 209.9 11.1 209.85 11.04C209.8 10.98 209.74 10.96 209.67 10.96H194.9C194.78 10.96 194.7 11.02 194.65 11.13C194.61 11.24 194.63 11.34 194.71 11.44C195.66 12.52 196.13 13.8 196.13 15.29V26.52C196.13 28.02 195.66 29.31 194.71 30.37C194.62 30.46 194.6 30.56 194.65 30.68C194.69 30.79 194.77 30.85 194.9 30.85H210.11C210.27 30.85 210.34 30.77 210.34 30.6C210.39 29.99 210.49 29.26 210.62 28.43C210.76 27.59 210.96 26.55 211.24 25.31C211.29 25.13 211.25 25.03 211.12 24.97Z" fill="#E8D7AC"/>
<path d="M229.27 13.63C227.11 11.85 224.18 10.95 220.47 10.95C220.42 10.95 220.33 10.94 220.21 10.92C219.66 10.92 219.14 10.93 218.66 10.95H212.99C212.87 10.95 212.79 11.01 212.74 11.12C212.7 11.23 212.72 11.32 212.8 11.4C213.75 12.48 214.22 13.76 214.22 15.25V20.24C214.22 20.26 214.23 20.28 214.25 20.3V21.58C214.23 21.6 214.22 21.62 214.22 21.64V26.63C214.22 28.12 213.75 29.4 212.8 30.48C212.71 30.55 212.69 30.65 212.74 30.76C212.78 30.87 212.86 30.93 212.99 30.93H221.3C224.7 30.93 227.41 30.02 229.45 28.2C231.49 26.36 232.5 23.96 232.5 21.01C232.5 17.89 231.42 15.43 229.27 13.63ZM225.57 28.07C224.74 29.44 223.56 30.13 222.03 30.13C221.15 30.13 220.53 29.87 220.17 29.35C219.82 28.87 219.65 28.03 219.65 26.84V11.68H219.81C221.98 11.87 223.7 12.92 224.96 14.83C226.2 16.74 226.82 19.25 226.82 22.35C226.81 24.83 226.39 26.73 225.57 28.07Z" fill="#E8D7AC"/>
<path d="M73.17 48.89C70.3 48.89 68.32 46.74 68.32 44.06C68.32 41.38 70.3 39.23 73.17 39.23C74.88 39.23 76.4 40.13 77.11 41.47L77.84 41.05C76.94 39.46 75.18 38.43 73.17 38.43C69.85 38.43 67.5 40.94 67.5 44.05C67.5 47.17 69.85 49.68 73.17 49.68C75.21 49.68 76.99 48.62 77.88 47.02L77.15 46.6C76.43 47.97 74.9 48.89 73.17 48.89Z" fill="#FFFAF5"/>
<path d="M89.5 38.44C86.35 38.44 83.88 40.95 83.88 44.06C83.88 47.18 86.36 49.69 89.5 49.69C92.65 49.69 95.12 47.18 95.12 44.06C95.13 40.95 92.65 38.44 89.5 38.44ZM89.5 48.89C86.8 48.89 84.7 46.74 84.7 44.06C84.7 41.38 86.8 39.23 89.5 39.23C92.2 39.23 94.3 41.38 94.3 44.06C94.3 46.74 92.2 48.89 89.5 48.89Z" fill="#FFFAF5"/>
<path d="M102.72 38.61H101.89V49.52H107.86V48.74H102.72V38.61Z" fill="#FFFAF5"/>
<path d="M115.07 38.61H114.25V49.52H120.21V48.74H115.07V38.61Z" fill="#FFFAF5"/>
<path d="M127.43 44.41H132.42V43.63H127.43V39.39H132.8V38.61H126.6V49.52H132.88V48.74H127.43V44.41Z" fill="#FFFAF5"/>
<path d="M144.55 48.89C141.68 48.89 139.7 46.74 139.7 44.06C139.7 41.38 141.68 39.23 144.55 39.23C146.26 39.23 147.78 40.13 148.49 41.47L149.22 41.05C148.32 39.46 146.56 38.43 144.55 38.43C141.23 38.43 138.88 40.94 138.88 44.05C138.88 47.17 141.23 49.68 144.55 49.68C146.59 49.68 148.37 48.62 149.26 47.02L148.53 46.6C147.81 47.97 146.28 48.89 144.55 48.89Z" fill="#FFFAF5"/>
<path d="M154.73 39.39H158.16V49.52H159V39.39H162.43V38.61H154.73V39.39Z" fill="#FFFAF5"/>
<path d="M169.65 38.61H168.82V49.52H169.65V38.61Z" fill="#FFFAF5"/>
<path d="M180.38 48.44L176.78 38.61H175.87L179.94 49.52H180.81L184.88 38.61H183.99L180.38 48.44Z" fill="#FFFAF5"/>
<path d="M191.96 48.74V44.41H196.94V43.63H191.96V39.39H197.33V38.61H191.13V49.52H197.41V48.74H191.96Z" fill="#FFFAF5"/>
<path d="M30 12.75C31.4912 12.75 32.7 11.1382 32.7 9.15C32.7 7.16178 31.4912 5.55 30 5.55C28.5088 5.55 27.3 7.16178 27.3 9.15C27.3 11.1382 28.5088 12.75 30 12.75Z" fill="#FFFAF5"/>
<path d="M30 18.3L34.58 13.72C37.1 11.2 37.1 7.09 34.58 4.57L30 0L25.42 4.58C22.9 7.1 22.9 11.21 25.42 13.73L30 18.3ZM26.95 6.1L30 3.05L33.05 6.1C34.73 7.78 34.73 10.52 33.05 12.2L30 15.25L26.95 12.2C25.27 10.52 25.27 7.78 26.95 6.1Z" fill="#E8D7AC"/>
<path d="M55.42 25.42C54.39 24.39 53.09 23.78 51.74 23.59C51.52 22.83 51.26 22.09 50.96 21.37C48.92 16.38 45.12 12.21 40.07 9.7L38.75 9.05001L38.52 10.51C38.32 11.8 37.83 13.01 37.09 14.08C36.8 14.49 36.47 14.89 36.1 15.26L34.57 16.78L33.05 18.3L31.52 19.83L30 21.35L26.95 18.3L23.9 15.25C23.54 14.89 23.21 14.49 22.92 14.07L22.86 13.98C22.15 12.94 21.68 11.77 21.48 10.5L21.25 9.04001L19.93 9.69001C14.88 12.2 11.07 16.36 9.03 21.36C8.74 22.09 8.48 22.83 8.25 23.58C6.86 23.77 5.58 24.4 4.57 25.41L0 30L4.58 34.58C5.62 35.62 6.92 36.23 8.27 36.41C8.49 37.17 8.76 37.91 9.06 38.63C11.36 44.19 15.81 48.65 21.37 50.94C22.09 51.24 22.83 51.5 23.59 51.72C23.78 53.12 24.41 54.4 25.43 55.42L30 60L34.58 55.42C35.62 54.38 36.23 53.08 36.41 51.72C37.17 51.5 37.91 51.23 38.62 50.94C44.18 48.64 48.63 44.19 50.93 38.63C51.23 37.91 51.49 37.17 51.72 36.41C53.11 36.22 54.4 35.59 55.42 34.58L60 30L55.42 25.42ZM40.32 12.29C44.1 14.49 47.01 17.77 48.73 21.63C49.02 22.29 49.28 22.97 49.51 23.67C48.81 23.81 48.12 24.08 47.49 24.46C47.27 23.77 47.01 23.08 46.71 22.43C45.2 19.1 42.71 16.26 39.48 14.3C39.82 13.66 40.11 12.99 40.32 12.29ZM36.1 18.3L37.63 16.77C37.85 16.55 38.05 16.33 38.24 16.09C38.25 16.09 38.25 16.08 38.25 16.08C41.28 17.88 43.59 20.57 44.91 23.72C45.22 24.46 45.47 25.22 45.67 26L45 26.67L43.2 28.47L34.56 19.82L36.1 18.3ZM11.28 21.63C13 17.76 15.9 14.49 19.68 12.29C19.89 12.99 20.18 13.66 20.53 14.3C17.3 16.25 14.81 19.09 13.3 22.43C13 23.09 12.74 23.77 12.52 24.47C11.9 24.09 11.22 23.82 10.5 23.67C10.72 22.97 10.98 22.29 11.28 21.63ZM7.72 34.07C7.13 33.86 6.58 33.52 6.11 33.05L3.05 30L6.1 26.94C6.56 26.48 7.11 26.13 7.71 25.93C7.54 26.84 7.43 27.77 7.38 28.71C7.35 29.13 7.34 29.56 7.34 29.99C7.34 30.42 7.35 30.85 7.38 31.28L7.62 31.52C7.85 31.75 8.12 31.92 8.43 32.03C8.66 32.11 8.9 32.15 9.15 32.15C9.28 32.15 9.42 32.14 9.55 32.11C9.57 32.11 9.59 32.1 9.6 32.1C9.53 31.41 9.49 30.7 9.49 29.99C9.49 29.28 9.53 28.58 9.6 27.88C9.67 27.16 9.78 26.45 9.93 25.74C10.67 25.88 11.36 26.21 11.94 26.7C12.03 26.77 12.11 26.85 12.19 26.93L13.72 28.46L13.9 28.28L15.25 26.93L14.31 25.99C14.51 25.21 14.76 24.45 15.07 23.71C16.39 20.56 18.7 17.87 21.73 16.07C21.93 16.31 22.14 16.54 22.37 16.76L23.89 18.28L25.41 19.8L15.26 30L13.88 31.38L12.21 33.05C12.13 33.13 12.04 33.21 11.96 33.28C11.37 33.78 10.68 34.1 9.95 34.24C9.2 34.38 8.43 34.32 7.72 34.07ZM23.68 49.49C22.99 49.26 22.31 49 21.65 48.7C17.06 46.64 13.36 42.94 11.3 38.35C11.01 37.69 10.74 37.01 10.52 36.32C11.22 36.17 11.9 35.91 12.53 35.53C12.75 36.23 13.01 36.91 13.31 37.57C15.15 41.6 18.41 44.86 22.44 46.7C23.1 47 23.78 47.26 24.48 47.48C24.09 48.11 23.82 48.78 23.68 49.49ZM34.07 52.28C33.87 52.87 33.53 53.42 33.06 53.89L30 56.95L26.95 53.9C26.49 53.44 26.14 52.89 25.93 52.29C26.84 52.46 27.77 52.57 28.71 52.62C29.13 52.65 29.56 52.66 29.99 52.66V50.5C29.28 50.5 28.58 50.46 27.88 50.39C27.16 50.32 26.45 50.2 25.75 50.06C25.89 49.32 26.22 48.63 26.71 48.05C26.78 47.97 26.86 47.88 26.94 47.81L28.47 46.28L26.94 44.75L26 45.69C25.22 45.49 24.46 45.24 23.73 44.93C19.84 43.29 16.72 40.17 15.08 36.28C14.77 35.54 14.52 34.79 14.32 34L14.98 33.33L16.78 31.53L30 44.74L31.38 46.12L33.06 47.8C33.14 47.88 33.21 47.96 33.29 48.04C33.8 48.63 34.11 49.32 34.25 50.05C34.38 50.79 34.32 51.57 34.07 52.28ZM48.71 38.36C46.65 42.95 42.95 46.65 38.36 48.71C37.7 49 37.02 49.27 36.33 49.49C36.18 48.79 35.92 48.11 35.54 47.48C36.24 47.26 36.92 47 37.57 46.7C41.6 44.86 44.86 41.61 46.7 37.57C47 36.91 47.26 36.23 47.48 35.53C48.1 35.91 48.77 36.17 49.49 36.32C49.26 37.02 49 37.7 48.71 38.36ZM53.9 33.05C53.43 33.51 52.89 33.86 52.29 34.07C52.46 33.16 52.57 32.23 52.62 31.29C52.65 30.87 52.66 30.43 52.66 30C52.66 29.57 52.65 29.14 52.62 28.72L52.38 28.48C52.15 28.25 51.88 28.08 51.59 27.98C51.35 27.9 51.1 27.85 50.86 27.85C50.72 27.85 50.59 27.86 50.46 27.89C50.44 27.89 50.42 27.9 50.4 27.9C50.47 28.59 50.51 29.3 50.51 30.01C50.51 30.72 50.47 31.43 50.4 32.12C50.32 32.84 50.21 33.55 50.07 34.25C49.33 34.11 48.64 33.78 48.06 33.28C47.97 33.21 47.89 33.13 47.81 33.05L46.28 31.53L46.1 31.71L44.76 33.06L45.69 34C45.49 34.78 45.24 35.54 44.93 36.28C43.29 40.16 40.17 43.28 36.29 44.93C35.56 45.24 34.79 45.5 34.01 45.69L33.35 45.03L30 41.7V41.69L26.95 38.64L18.3 30L26.94 21.36L27.71 22.12L30 24.41L30.77 25.17L35.59 30L31.52 34.07L33.04 35.59L38.64 30L31.52 22.88L33.04 21.36L41.7 30L33.06 38.64L32.1 37.68L29.25 34.83L29.2 34.78L24.41 30L28.48 25.93L26.96 24.4L21.36 30L33.06 41.7L44.74 30L47.79 26.95C47.87 26.87 47.96 26.79 48.04 26.72C48.63 26.22 49.33 25.9 50.05 25.76C50.79 25.62 51.56 25.68 52.28 25.94C52.87 26.14 53.42 26.48 53.89 26.95L56.94 30L53.9 33.05Z" fill="#E8D7AC"/>
</svg>
