<svg width="22" height="16" viewBox="0 0 22 16" fill="none" xmlns="http://www.w3.org/2000/svg">
<path d="M22 1.90009C22 0.783171 21.1504 0.000383043 19.9509 0.000383043C14.8433 0.000383043 9.72557 0.000383043 4.61789 0.000383043C3.76828 0.000383043 2.91867 0.00992935 2.05906 0.000383043C0.999543 -0.0187096 0.169952 0.678203 0.0300156 1.5851C0.0300156 1.60419 0.00999545 1.62329 0 1.64238C0 5.88094 0 10.1195 0 14.3581C0.0799636 14.6826 0.179952 14.9976 0.409848 15.2745C0.79967 15.7422 1.3094 15.9714 1.92911 16C1.97909 16 2.02909 16 2.07907 16C8.02637 16 13.9736 16 19.9209 16C20.7605 16 21.4103 15.685 21.7801 14.9499C21.9101 14.6922 21.98 14.3867 21.98 14.1003C22 10.0336 22 5.96681 22 1.90009ZM19.7011 1.24139C16.8224 3.99073 13.9237 6.75917 11.005 9.54669C8.11632 6.81645 5.19762 4.04801 2.22897 1.24139C8.0963 1.24139 13.9137 1.24139 19.7011 1.24139ZM1.3094 13.8139C1.3094 9.94766 1.3094 6.05275 1.3094 2.10058C3.38846 4.06712 5.43756 6.01455 7.46663 7.93336C5.40757 9.8999 3.34847 11.8665 1.3094 13.8139ZM2.25898 14.759C4.31805 12.7925 6.3671 10.8355 8.42616 8.86894C8.46614 8.90712 8.52614 8.95481 8.57611 9.00254C9.21582 9.61351 9.85552 10.215 10.4952 10.8259C10.8651 11.1791 11.2049 11.1791 11.5748 10.8259C12.2444 10.1863 12.9141 9.53717 13.5638 8.91666C15.6129 10.8737 17.662 12.8306 19.681 14.759C13.9237 14.759 8.09633 14.759 2.25898 14.759ZM20.6906 13.7757C18.6915 11.8664 16.6524 9.91904 14.6234 7.98114C16.6224 6.07188 18.6615 4.12442 20.6906 2.18652C20.6906 6.05278 20.6906 9.94763 20.6906 13.7757Z" fill="#C4C8CC"/>
</svg>
