<svg width="34" height="32" viewBox="0 0 34 32" fill="none" xmlns="http://www.w3.org/2000/svg">
<path d="M33.4328 16.0905C33.4328 7.2005 25.9522 0 16.7164 0C7.4806 0 0 7.2005 0 16.0905C0 24.1257 6.11194 30.7831 14.1045 31.9899V20.7467H9.86275V16.0905H14.1045V12.5506C14.1045 8.51792 16.6015 6.29542 20.415 6.29542C22.2433 6.29542 24.1552 6.60717 24.1552 6.60717V10.5695H22.0448C19.9656 10.5695 19.3179 11.8064 19.3179 13.0836V16.1006H23.9568L23.2149 20.7568H19.3179V32C27.3209 30.7832 33.4328 24.1257 33.4328 16.0905Z" fill="white"/>
<path d="M24.1123 20.5252L24.8715 15.8485H20.1241V12.8182C20.1241 11.5353 20.787 10.2929 22.9148 10.2929H25.0746V6.31313C25.0746 6.31313 23.118 6 21.2469 6C17.3442 6 14.7887 8.23232 14.7887 12.2828V15.8384H10.4478V20.5151H14.7887V31.8081C15.6548 31.9394 16.5529 32 17.4618 32C18.3706 32 19.2688 31.9293 20.1348 31.8081V20.5151H24.1123V20.5252Z" fill="#0080FF"/>
</svg>
