<svg width="29" height="20" viewBox="0 0 29 20" fill="none" xmlns="http://www.w3.org/2000/svg">
<path d="M14.15 20C11.59 20 9.03 19.02 7.08 17.07L0 10L7.07 2.93001C10.97 -0.969995 17.32 -0.969995 21.22 2.93001L28.29 10L21.22 17.07C19.27 19.02 16.71 20 14.15 20ZM1.97 10L8.06 16.09C11.42 19.45 16.88 19.45 20.23 16.09L26.32 10L20.23 3.90999C16.87 0.549986 11.41 0.549986 8.06 3.90999L1.97 10Z" fill="#E8D7AC"/>
<path d="M14.15 5.02997C14.73 6.08997 15.35 6.93991 15.65 7.34991C16.23 8.11991 17.1 9.16994 18.09 9.99994C17.1 10.8299 16.23 11.88 15.65 12.65C15.35 13.06 14.73 13.9099 14.15 14.9699C13.57 13.9099 12.95 13.06 12.65 12.65C12.07 11.88 11.2 10.8299 10.21 9.99994C11.2 9.16994 12.07 8.11991 12.65 7.34991C12.95 6.93991 13.56 6.07997 14.15 5.02997ZM14.15 0.689941C14.15 3.78994 9.5 9.99994 7.17 9.99994C9.5 9.99994 14.15 16.2 14.15 19.31C14.15 16.21 18.8 9.99994 21.13 9.99994C18.8 9.99994 14.15 3.79994 14.15 0.689941Z" fill="#E8D7AC"/>
</svg>
