<svg width="39" height="37" viewBox="0 0 39 37" fill="none" xmlns="http://www.w3.org/2000/svg">
<g clip-path="url(#clip0_435_880)">
<path d="M37.1971 15.2834L21.4294 15.2827C20.7331 15.2827 20.1688 15.8228 20.1688 16.4893V21.3105C20.1688 21.9768 20.7331 22.517 21.4293 22.517H30.3088C29.3364 24.9322 27.5217 26.9548 25.2064 28.24L28.9925 34.5133C35.066 31.1513 38.6567 25.2523 38.6567 18.6488C38.6567 17.7086 38.5843 17.0365 38.4395 16.2796C38.3294 15.7046 37.8078 15.2834 37.1971 15.2834Z" fill="#167EE6"/>
<path d="M19.3284 29.7607C14.983 29.7607 11.1895 27.4882 9.15205 24.1255L2.59808 27.7412C5.93335 33.274 12.1814 36.9998 19.3284 36.9998C22.8344 36.9998 26.1427 36.0963 28.9925 34.5217V34.5131L25.2064 28.2397C23.4745 29.2011 21.4704 29.7607 19.3284 29.7607Z" fill="#12B347"/>
<path d="M28.9925 34.5217V34.5131L25.2064 28.2397C23.4745 29.2011 21.4706 29.7607 19.3284 29.7607V36.9999C22.8344 36.9999 26.1428 36.0963 28.9925 34.5217Z" fill="#0F993E"/>
<path d="M7.56328 18.5002C7.56328 16.4501 8.14781 14.5321 9.15205 12.8745L2.59808 9.25879C0.943918 11.9779 0 15.1358 0 18.5002C0 21.8646 0.943918 25.0225 2.59808 27.7416L9.15205 24.1259C8.14781 22.4683 7.56328 20.5503 7.56328 18.5002Z" fill="#FFD500"/>
<path d="M19.3284 7.23914C22.162 7.23914 24.7648 8.20287 26.7979 9.80594C27.2994 10.2014 28.0284 10.1728 28.4878 9.7331L32.0568 6.3171C32.578 5.81818 32.5409 5.0015 31.9841 4.53915C28.5778 1.71074 24.1459 0 19.3284 0C12.1814 0 5.93335 3.7258 2.59808 9.2586L9.15205 12.8743C11.1895 9.5116 14.983 7.23914 19.3284 7.23914Z" fill="#FF4B26"/>
<path d="M26.7979 9.80594C27.2994 10.2014 28.0285 10.1728 28.4878 9.7331L32.0568 6.3171C32.5779 5.81818 32.5408 5.0015 31.9841 4.53915C28.5778 1.71067 24.1459 0 19.3284 0V7.23914C22.1619 7.23914 24.7648 8.20287 26.7979 9.80594Z" fill="#D93F21"/>
</g>
<defs>
<clipPath id="clip0_435_880">
<rect width="38.6567" height="37" fill="white"/>
</clipPath>
</defs>
</svg>
