<svg width="380" height="21" viewBox="0 0 380 21" fill="none" xmlns="http://www.w3.org/2000/svg">
<path d="M189.97 20.3499C187.41 20.3499 184.85 19.37 182.9 17.42L175.83 10.3499L182.9 3.27998C186.8 -0.620019 193.15 -0.620019 197.05 3.27998L204.12 10.3499L197.05 17.42C195.09 19.38 192.53 20.3499 189.97 20.3499ZM183.88 16.4399C187.24 19.7999 192.7 19.7999 196.05 16.4399L202.14 10.3499L196.05 4.25996C192.69 0.899961 187.23 0.899961 183.88 4.25996L177.79 10.3499L183.88 16.4399Z" fill="#E8D7AC"/>
<path d="M189.97 5.38C190.55 6.44 191.17 7.28995 191.47 7.69995C192.05 8.46995 192.92 9.51998 193.91 10.35C192.92 11.18 192.05 12.23 191.47 13C191.17 13.41 190.55 14.2599 189.97 15.3199C189.39 14.2599 188.77 13.41 188.47 13C187.89 12.23 187.02 11.18 186.03 10.35C187.02 9.51998 187.89 8.46995 188.47 7.69995C188.77 7.28995 189.39 6.44 189.97 5.38ZM189.97 1.04004C189.97 4.14004 185.32 10.35 182.99 10.35C185.32 10.35 189.97 16.55 189.97 19.66C189.97 16.56 194.62 10.35 196.95 10.35C194.62 10.35 189.97 4.15004 189.97 1.04004Z" fill="#E8D7AC"/>
<path d="M212.439 9.3501L379.589 10.3501L212.439 11.3501V9.3501Z" fill="#E8D7AC"/>
<path d="M167.5 11.3501L0.349609 10.3501L167.5 9.3501V11.3501Z" fill="#E8D7AC"/>
</svg>
