<svg width="1920" height="1400" viewBox="0 0 1920 1400" fill="none" xmlns="http://www.w3.org/2000/svg">
<path d="M1919.97 20H-0.0300293V1100H1919.97V20Z" fill="#FFFAF5"/>
<path d="M1919.97 1100H-0.0302734V1399.64H1919.97V1100Z" fill="#FFFAF5"/>
<path d="M120.76 1184.8C132.44 1189.2 151.31 1185.35 161.36 1179.87C137.69 1160.11 105.47 1188.25 89.0699 1206.64C95.6699 1187.36 77.9799 1163.61 57.8999 1164.88C69.84 1176.82 80.4399 1197.38 83.34 1214.1C66.41 1243.76 30.2599 1268.87 0.489948 1242.27C-3.44005 1239.76 -5.69005 1245.62 -3.71005 1248.34C26.2399 1275.6 68.2799 1252.33 84.5399 1219.73C97.2399 1222.52 114.18 1220.69 125.74 1214.59C117.55 1206.14 99.2799 1204.83 89.5299 1212.46C97.8599 1200.21 108.25 1189.33 120.76 1184.8Z" fill="white"/>
<path d="M55 1125.47C37.89 1099.53 19.81 1050.4 20.14 1020.2C41.63 1040.74 62.31 1091.35 57.27 1122.7C74.46 1101.97 91.83 1078.22 106.07 1054.28C97.12 1042.13 82.85 1036.73 72.1 1024.25C58.74 1011.07 53.62 981.34 71.86 971.64C72.29 1000.43 115.23 1016.72 109.36 1048.69C124.23 1020.13 142.16 990.34 143.98 958.95C127.58 946.63 110.58 917.61 107.2 898.47C124.05 902.01 146.75 927.32 146.9 946.83C152.75 936.95 152.88 921.61 153.71 912.77C153.15 913.23 152.81 913.47 152.81 913.47C144.78 899.04 140.72 874.63 146.43 859.3C163.41 866.45 170.58 899.19 154.68 911.94C154.36 918.39 153.94 926.45 152.78 935.71C164.31 915.85 198.95 908.54 217.09 911.76C135.94 963.71 156.06 957.7 118.06 1039.8C135.63 1011.12 181.99 1005.05 206.02 1028.36C177.03 1042.26 142.7 1051.9 110.71 1055.11C110.7 1055.11 111.22 1053.26 112.29 1050.53C98.58 1075.17 81.58 1099.53 64.45 1121.12C88.09 1102.48 137.32 1111.03 149.76 1139.69C121.45 1138.31 84.79 1137.49 57.11 1130.28C31.91 1160.9 -0.290001 1193.38 -26.26 1214.77L-30 1210.05C-26.9 1207.56 -22.5 1203.89 -17.65 1199.67C4.98 1179.96 32.27 1152.65 55 1125.47Z" fill="white"/>
<path d="M1788.25 163.89C1774.81 187.1 1781.56 220.98 1803.13 236.72C1802.48 209.13 1801.29 179.55 1799.74 151.9C1815.31 135.06 1829.27 116.39 1840.96 98.6698C1831.91 126.34 1850.65 161.16 1878.78 168.4C1869.19 143.33 1857.21 116.47 1844.98 92.4797C1854.7 79.0797 1901.61 -6.68029 1876.58 16.9497C1876.02 20.0397 1850.84 73.1297 1839.43 89.5997C1813.09 80.3797 1766.38 78.7497 1741.24 89.1198C1763.99 103.37 1812.84 107.18 1837.61 92.5598C1826.01 111.15 1811.8 131.15 1795.86 149.04C1783.88 145.21 1775.04 135.69 1762.32 130.3C1747.89 122.89 1722.53 125.9 1718.61 143.19C1742.26 133.95 1766.46 164.04 1791.24 154.19C1774.35 172.67 1755.74 189.19 1735.64 202.47C1732.18 202.73 1729.28 203.35 1725.02 204.96C1710.71 192.95 1681.61 187.13 1664.53 191.11C1672.59 205.52 1694.66 216.97 1712.28 212.87C1703.97 223.29 1689.07 226.33 1678.63 230.32C1664.53 221.74 1641.04 228.09 1632.32 240.76C1645.44 252.23 1672.1 247.62 1680.28 231.54C1687.52 229.45 1695.51 226.44 1704.08 222.79C1693.2 239.95 1697.03 263.82 1705.67 279.77C1707.09 276.83 1709.05 271.73 1710.69 266.87C1728.43 192.86 1739.88 211.75 1788.25 163.89Z" fill="#FFF6F0"/>
<path d="M1762.98 40.34C1767.6 40.32 1772.4 39.57 1775.18 38.7C1761.04 21.38 1728.39 6.12006 1706.59 9.13006C1714.36 24.7401 1743.81 42.85 1762.98 40.34Z" fill="#FFF6F0"/>
<path d="M1770.89 54.9399C1756.88 71.0299 1762.15 100.42 1780.51 110.62C1784.42 90.64 1783.85 67.0801 1778.99 47.3101C1776.74 48.7601 1773.47 51.5499 1770.89 54.9399Z" fill="#FFF6F0"/>
<path d="M1714.83 68.1799C1719.82 68.9599 1722.79 68.5599 1726.18 67.0399C1718.46 59.8599 1716.63 49.3598 1708.54 41.2198C1700.39 31.3998 1679.74 26.8999 1672.97 39.3699C1689.63 42.4199 1696.29 66.5599 1714.83 68.1799Z" fill="#FFF6F0"/>
<path d="M1820.19 1.58985C1787.07 34.1199 1717.77 87.8899 1662.36 87.5099C1654.82 76.7299 1636.96 64.1199 1625.06 60.4099C1626.89 71.2699 1642 87.0299 1654.41 88.6299C1647.7 92.1099 1637.47 92.1199 1631.46 91.7599C1632.05 91.5399 1633.67 90.6899 1633.54 90.7399C1625.54 85.1499 1606.85 79.8798 1597.32 83.9498C1608.9 96.3898 1628.09 93.1498 1643.99 93.5698C1631.85 100.68 1626.48 122.02 1627.83 133C1627.83 133 1630.79 130.16 1634.69 125.47C1661.26 87.5699 1667.21 93.7099 1708.16 81.1099C1694 93.4399 1692.06 118.13 1703.56 132.37C1713.72 114.8 1721.82 94.1599 1725.59 74.1099C1760.06 59.9599 1807.08 24.6598 1825.19 4.83985C1829.45 -0.41015 1823.49 -0.89015 1820.19 1.58985Z" fill="#FFF6F0"/>
<path d="M1950.03 171.42C1947.28 175.91 1934.34 173.25 1924.84 180.34C1900.88 194.47 1873.69 210.41 1857.91 234.62C1870.41 240.73 1875.18 258.23 1876.26 270.91C1859.76 271.7 1850.86 249.12 1857.05 235.94C1851.13 245.31 1846.36 255.78 1843.52 266.2L1843.55 266.19C1848.58 278.01 1847.86 290.27 1838.31 299.62C1827.28 291.93 1828.52 271.35 1841.99 266.68C1842.74 263.15 1843.91 259.31 1845.27 255.18C1836.04 264.58 1819.5 267.97 1808.38 264.52C1819.07 258.04 1833.96 251.28 1846.08 245.99C1853.36 242.1 1853.87 233.78 1859.66 227.16C1851.67 229.85 1842.45 228.61 1836.07 223.93C1848.13 220.58 1861.22 215.87 1872.94 211.31C1881.87 201.58 1943.23 155.31 1950.03 171.42Z" fill="#FFF6F0"/>
</svg>
