<svg width="22" height="22" viewBox="0 0 22 22" fill="none" xmlns="http://www.w3.org/2000/svg">
<rect x="0.5" y="0.5" width="21" height="21" rx="0.5" stroke="#E8D7AC"/>
<path d="M16.9995 9.52824C17.0056 9.89988 16.9544 10.2666 16.859 10.617C16.6898 11.4999 15.6406 12.7726 13.6664 14.4728C12.9044 15.1282 12.2839 15.6173 11.8275 15.9223C11.7486 15.9726 11.6635 16 11.5794 16C11.5004 16 11.4214 15.9778 11.3537 15.9393C11.3312 15.9282 11.3137 15.9112 11.2912 15.9001L11.1507 15.7951C10.801 15.5393 9.99384 14.9504 9.45846 14.5171C7.40529 12.8444 6.35615 11.6333 6.15818 10.7171C6.06282 10.4111 6.00642 10.0444 6.00026 9.67274C5.98899 8.67274 6.34998 7.71097 6.98789 7.02811C7.56835 6.40591 8.33549 6.0614 9.13647 6.0614C10.0502 6.0614 10.8738 6.44439 11.4717 7.11714C12.0532 6.4222 12.8818 6.0111 13.7792 6H13.8356C15.5555 6 16.977 7.58372 16.9995 9.52824H16.9995Z" stroke="#E8D7AC"/>
</svg>
