<svg width="571" height="60" viewBox="0 0 571 60" fill="none" xmlns="http://www.w3.org/2000/svg">
<path d="M345.507 42.88C337.677 42.88 332.267 37.15 332.267 30C332.267 22.85 337.677 17.12 345.507 17.12C350.187 17.12 354.317 19.53 356.277 23.1L358.277 21.98C355.807 17.74 350.997 15 345.507 15C336.437 15 330.007 21.69 330.007 30C330.007 38.31 336.437 45 345.507 45C351.087 45 355.937 42.17 358.367 37.89L356.367 36.77C354.397 40.43 350.227 42.88 345.507 42.88Z" fill="#FFFAF5"/>
<path d="M377.347 15C368.747 15 361.977 21.69 361.977 30C361.977 38.31 368.747 45 377.347 45C385.947 45 392.717 38.31 392.717 30C392.717 21.69 385.947 15 377.347 15ZM377.347 42.88C369.987 42.88 364.237 37.15 364.237 30C364.237 22.85 369.987 17.12 377.347 17.12C384.717 17.12 390.457 22.85 390.457 30C390.467 37.15 384.717 42.88 377.347 42.88Z" fill="#FFFAF5"/>
<path d="M400.687 15.46H398.427V44.54H414.737V42.47H400.687V15.46Z" fill="#FFFAF5"/>
<path d="M421.677 15.46H419.417V44.54H435.727V42.47H421.677V15.46Z" fill="#FFFAF5"/>
<path d="M442.667 30.91H456.287V28.84H442.667V17.53H457.347V15.46H440.407V44.54H457.567V42.47H442.667V30.91Z" fill="#FFFAF5"/>
<path d="M476.677 42.88C468.847 42.88 463.437 37.15 463.437 30C463.437 22.85 468.847 17.12 476.677 17.12C481.357 17.12 485.487 19.53 487.447 23.1L489.447 21.98C486.977 17.74 482.167 15 476.677 15C467.607 15 461.177 21.69 461.177 30C461.177 38.31 467.607 45 476.677 45C482.257 45 487.107 42.17 489.537 37.89L487.537 36.77C485.577 40.43 481.407 42.88 476.677 42.88Z" fill="#FFFAF5"/>
<path d="M491.707 17.53H501.077V44.54H503.377V17.53H512.747V15.46H491.707V17.53Z" fill="#FFFAF5"/>
<path d="M519.687 15.46H517.427V44.55H519.687V15.46Z" fill="#FFFAF5"/>
<path d="M536.247 41.68L526.407 15.46H523.937L535.047 44.54H537.437L548.547 15.46H546.117L536.247 41.68Z" fill="#FFFAF5"/>
<path d="M555.107 42.47V30.91H568.727V28.84H555.107V17.53H569.797V15.46H552.847V44.54H570.007V42.47H555.107Z" fill="#FFFAF5"/>
<path d="M26.4367 40.99C26.4367 40.96 26.4267 40.94 26.3967 40.91L16.6467 15.25C16.5667 15.06 16.4367 14.98 16.2367 15.01L7.69673 16.87C7.51673 16.92 7.41675 17.03 7.39675 17.19C7.36674 17.35 7.41671 17.49 7.54671 17.59C8.72671 18.54 9.57671 19.75 10.1067 21.24V21.28C9.15671 24.28 8.49675 26.2 8.14674 27.04L4.30672 37.9C3.42672 40.41 2.03673 42.52 0.126725 44.22C-0.00327455 44.36 -0.0332404 44.51 0.0367596 44.69C0.0967596 44.87 0.216745 44.95 0.396745 44.95C0.596745 44.95 2.06671 44.95 4.79671 44.95H6.11672C6.26672 44.95 6.37672 44.87 6.43672 44.71C6.49672 44.55 6.47673 44.4 6.37673 44.26C5.77673 43.56 5.38674 42.73 5.20674 41.77C5.02674 40.81 5.09675 39.87 5.39675 38.95L6.2267 36.52H15.8967L16.8367 38.95C17.1667 39.84 17.2467 40.77 17.0767 41.75C16.9167 42.72 16.5167 43.56 15.8867 44.26C15.7867 44.4 15.7667 44.54 15.8267 44.69C15.8867 44.84 15.9967 44.91 16.1467 44.91H28.2667C28.4467 44.91 28.5567 44.83 28.6267 44.67C28.6867 44.51 28.6568 44.36 28.5368 44.22C27.6168 43.31 26.9167 42.23 26.4367 40.99ZM6.75673 34.99L10.9367 23.24L15.3767 34.99H6.75673Z" fill="#FFFAF5"/>
<path d="M71.8267 16.6699C71.9567 16.5399 71.9867 16.3799 71.9167 16.1999C71.8567 16.0199 71.7367 15.9399 71.5567 15.9399H63.9567C63.7767 15.9399 63.6667 16.0399 63.6167 16.2199C63.5667 16.4099 63.6167 16.5599 63.7667 16.6699C64.6167 17.3699 65.1967 18.2799 65.4967 19.3899C65.7967 20.4999 65.7567 21.6199 65.3867 22.7499L60.0767 38.4799L54.4668 22.8299C54.0668 21.7199 54.0367 20.5899 54.3767 19.4499C54.7167 18.2999 55.3468 17.3799 56.2768 16.6699C56.4268 16.5599 56.4668 16.4099 56.4068 16.2199C56.3468 16.0299 56.2267 15.9399 56.0467 15.9399H42.5368C42.3568 15.9399 42.2367 16.0299 42.1767 16.1999C42.1167 16.3799 42.1467 16.5199 42.2667 16.6299C43.8767 18.2499 45.0867 20.1699 45.9167 22.3899L46.9668 25.3499L42.4867 38.4799L36.9568 22.8299C36.5568 21.7199 36.5267 20.5899 36.8767 19.4499C37.2267 18.2999 37.8667 17.3799 38.7967 16.6699C38.9467 16.5599 38.9867 16.4099 38.9267 16.2199C38.8667 16.0299 38.7467 15.9399 38.5667 15.9399H25.0567C24.8767 15.9399 24.7567 16.0299 24.6967 16.1999C24.6367 16.3799 24.6668 16.5199 24.7868 16.6299C26.3968 18.2499 27.5968 20.1699 28.3968 22.3899L36.3368 44.5999C36.4168 44.7899 36.5368 44.8699 36.7168 44.8399C38.2468 44.7599 39.7567 44.7599 41.2367 44.8399C41.4167 44.8699 41.5367 44.7899 41.6167 44.5999L47.8667 27.8599L53.9668 44.5999C54.0468 44.7599 54.1567 44.8399 54.3067 44.8399H54.3468C55.8768 44.7599 57.3867 44.7599 58.8667 44.8399C59.0367 44.8399 59.1667 44.7599 59.2467 44.5999L66.8468 23.8899C67.9368 21.0199 69.5867 18.6099 71.8267 16.6699Z" fill="#FFFAF5"/>
<path d="M94.3267 40.99C94.3267 40.96 94.3167 40.94 94.2867 40.91L84.5367 15.25C84.4567 15.06 84.3266 14.98 84.1266 15.01L75.5867 16.87C75.4067 16.92 75.3067 17.03 75.2867 17.19C75.2567 17.35 75.3066 17.49 75.4366 17.59C76.6166 18.54 77.4666 19.75 77.9966 21.24V21.28C77.0466 24.28 76.3867 26.2 76.0367 27.04L72.1967 37.9C71.3167 40.41 69.9267 42.52 68.0167 44.22C67.8867 44.36 67.8566 44.51 67.9266 44.69C67.9866 44.87 68.1067 44.95 68.2867 44.95C68.4867 44.95 69.9566 44.95 72.6866 44.95H74.0067C74.1567 44.95 74.2667 44.87 74.3267 44.71C74.3867 44.55 74.3667 44.4 74.2667 44.26C73.6667 43.56 73.2767 42.73 73.0967 41.77C72.9167 40.81 72.9867 39.87 73.2867 38.95L74.1166 36.52H83.7867L84.7266 38.95C85.0566 39.84 85.1367 40.77 84.9667 41.75C84.8067 42.72 84.4067 43.56 83.7767 44.26C83.6767 44.4 83.6567 44.54 83.7167 44.69C83.7767 44.84 83.8867 44.91 84.0367 44.91H96.1567C96.3367 44.91 96.4467 44.83 96.5167 44.67C96.5767 44.51 96.5466 44.36 96.4266 44.22C95.5066 43.31 94.8067 42.23 94.3267 40.99ZM74.6467 34.99L78.8267 23.24L83.2667 34.99H74.6467Z" fill="#FFFAF5"/>
<path d="M124.587 39.97L114.807 26.19L114.697 26.03L117.637 22.75C119.147 21.1 120.617 19.84 122.057 18.96C123.497 18.08 125.167 17.45 127.047 17.08L127.307 17.04C127.537 17.01 127.647 16.88 127.647 16.63V16.43C127.647 16.16 127.517 16.02 127.267 16.02H116.907C116.657 16.02 116.527 16.16 116.527 16.43V16.51C116.527 16.75 116.627 16.89 116.827 16.92L117.237 17C117.767 17.11 118.137 17.28 118.367 17.53C118.617 17.83 118.707 18.19 118.627 18.62C118.497 19.38 117.857 20.42 116.707 21.74L109.667 29.69L107.787 31.76V22.27C107.787 20.11 108.477 18.24 109.857 16.68C109.987 16.57 110.007 16.44 109.937 16.28C109.857 16.12 109.747 16.04 109.597 16.04H98.1167C97.9367 16.04 97.8267 16.12 97.7567 16.28C97.6967 16.44 97.7267 16.58 97.8467 16.68C99.2267 18.25 99.9167 20.11 99.9167 22.27V38.56C99.9167 40.75 99.2267 42.61 97.8467 44.15C97.7167 44.29 97.6867 44.43 97.7567 44.6C97.8167 44.76 97.9367 44.84 98.1167 44.84H109.597C109.747 44.84 109.857 44.76 109.937 44.6C110.017 44.44 109.987 44.29 109.857 44.15C108.477 42.61 107.787 40.75 107.787 38.56V33.66L109.477 31.84L118.547 44.69C118.627 44.8 118.717 44.85 118.847 44.85H127.507C127.657 44.85 127.767 44.77 127.847 44.61C127.927 44.45 127.897 44.31 127.767 44.2C126.657 42.81 125.587 41.41 124.587 39.97Z" fill="#FFFAF5"/>
<path d="M153.247 36.33C153.057 36.25 152.897 36.3 152.777 36.49C151.267 39.03 149.967 40.84 148.867 41.92C147.667 43.08 146.347 43.66 144.917 43.66H143.717C142.087 43.66 140.957 43.3 140.327 42.57C139.797 41.57 139.487 40.5 139.387 39.37L139.347 39.21C139.347 39.1 139.347 38.97 139.347 38.8C139.347 38.58 139.347 38.41 139.347 38.27V30.89L142.167 31.01C143.547 31.06 144.597 31.36 145.327 31.9C146.077 32.41 146.667 33.33 147.097 34.66C147.147 34.85 147.277 34.93 147.497 34.9C147.707 34.87 147.817 34.74 147.817 34.5V26.23C147.817 26.01 147.707 25.89 147.497 25.84C147.287 25.8 147.147 25.89 147.097 26.1C146.647 27.45 146.067 28.38 145.367 28.9C144.667 29.39 143.597 29.66 142.167 29.71L139.347 29.87V17.36H143.637C145.467 17.36 146.887 17.83 147.887 18.78C148.817 19.67 149.777 21.32 150.787 23.73C150.867 23.95 150.997 24.03 151.197 23.97L151.307 23.93C151.507 23.9 151.607 23.77 151.607 23.53C151.557 22.18 151.517 20.9 151.497 19.68C151.497 18.55 151.507 17.44 151.537 16.36C151.537 16.25 151.497 16.16 151.427 16.08C151.347 16 151.267 15.96 151.167 15.96H129.677C129.497 15.96 129.377 16.04 129.317 16.2C129.257 16.36 129.287 16.51 129.407 16.65C130.787 18.22 131.477 20.08 131.477 22.24V38.58C131.477 40.77 130.787 42.63 129.407 44.17C129.277 44.31 129.247 44.45 129.317 44.62C129.377 44.78 129.497 44.86 129.677 44.86H151.807C152.037 44.86 152.147 44.74 152.147 44.49C152.227 43.6 152.357 42.54 152.557 41.33C152.757 40.11 153.057 38.6 153.457 36.79C153.497 36.56 153.427 36.41 153.247 36.33Z" fill="#FFFAF5"/>
<path d="M182.507 15.9399H177.317C177.137 15.9399 177.027 16.0199 176.957 16.1799C176.897 16.3399 176.927 16.4899 177.047 16.6299C178.397 18.1699 179.087 20.0099 179.117 22.1399L179.227 35.0699V35.7999L165.527 16.0999C165.447 15.9899 165.347 15.9399 165.227 15.9399L155.777 15.9799C155.627 15.9799 155.517 16.0499 155.437 16.1999C155.357 16.3499 155.377 16.4899 155.477 16.6299L157.997 19.8299V38.9999C157.917 41.0499 157.227 42.8199 155.927 44.3099C155.827 44.4499 155.807 44.5899 155.867 44.7599C155.927 44.9199 156.037 44.9999 156.187 44.9999H161.417C161.567 44.9999 161.677 44.9199 161.737 44.7599C161.797 44.5999 161.777 44.4499 161.677 44.3099C160.297 42.7399 159.607 40.8799 159.607 38.7199C159.607 38.6899 159.597 38.6699 159.567 38.6399L159.487 22.5499L159.447 21.8199L175.067 44.7199C175.147 44.8299 175.237 44.8799 175.367 44.8799L180.297 44.8399C180.547 44.8399 180.677 44.7199 180.677 44.4699V22.2199C180.677 20.0599 181.367 18.1899 182.747 16.6299C182.877 16.4999 182.907 16.3499 182.837 16.1799C182.797 16.0199 182.677 15.9399 182.507 15.9399Z" fill="#FFFAF5"/>
<path d="M208.907 36.33C208.717 36.25 208.557 36.3 208.437 36.49C206.927 39.03 205.627 40.84 204.527 41.92C203.327 43.08 202.007 43.66 200.577 43.66H199.377C197.747 43.66 196.617 43.3 195.987 42.57C195.457 41.57 195.147 40.5 195.047 39.37L195.007 39.21C195.007 39.1 195.007 38.97 195.007 38.8C195.007 38.58 195.007 38.41 195.007 38.27V30.89L197.827 31.01C199.207 31.06 200.257 31.36 200.987 31.9C201.737 32.41 202.327 33.33 202.757 34.66C202.807 34.85 202.937 34.93 203.157 34.9C203.367 34.87 203.477 34.74 203.477 34.5V26.23C203.477 26.01 203.367 25.89 203.157 25.84C202.947 25.8 202.807 25.89 202.757 26.1C202.307 27.45 201.727 28.38 201.027 28.9C200.327 29.39 199.257 29.66 197.827 29.71L195.007 29.87V17.36H199.297C201.127 17.36 202.547 17.83 203.547 18.78C204.477 19.67 205.437 21.32 206.447 23.73C206.527 23.95 206.657 24.03 206.857 23.97L206.967 23.93C207.167 23.9 207.267 23.77 207.267 23.53C207.217 22.18 207.177 20.9 207.157 19.68C207.157 18.55 207.167 17.44 207.197 16.36C207.197 16.25 207.157 16.16 207.087 16.08C207.007 16 206.927 15.96 206.827 15.96H185.337C185.157 15.96 185.037 16.04 184.977 16.2C184.917 16.36 184.947 16.51 185.067 16.65C186.447 18.22 187.137 20.08 187.137 22.24V38.58C187.137 40.77 186.447 42.63 185.067 44.17C184.937 44.31 184.907 44.45 184.977 44.62C185.037 44.78 185.157 44.86 185.337 44.86H207.467C207.697 44.86 207.807 44.74 207.807 44.49C207.887 43.6 208.017 42.54 208.217 41.33C208.417 40.11 208.717 38.6 209.117 36.79C209.157 36.56 209.087 36.41 208.907 36.33Z" fill="#FFFAF5"/>
<path d="M235.307 19.8299C232.167 17.2399 227.907 15.9399 222.507 15.9399C222.427 15.9399 222.307 15.9299 222.127 15.8999C221.327 15.8999 220.567 15.9099 219.867 15.9399H211.627C211.447 15.9399 211.327 16.0199 211.267 16.1799C211.207 16.3399 211.237 16.4799 211.357 16.5899C212.737 18.1599 213.427 20.0199 213.427 22.1799V29.4399C213.427 29.4699 213.437 29.4899 213.467 29.5199V31.3799C213.437 31.4099 213.427 31.4299 213.427 31.4599V38.7199C213.427 40.8799 212.737 42.7499 211.357 44.3099C211.227 44.4199 211.197 44.5499 211.267 44.7199C211.327 44.8799 211.447 44.9599 211.627 44.9599H223.707C228.647 44.9599 232.597 43.6399 235.557 40.9899C238.517 38.3199 239.997 34.8299 239.997 30.5299C240.007 26.0199 238.437 22.4499 235.307 19.8299ZM229.917 40.8199C228.717 42.8199 226.997 43.8199 224.757 43.8199C223.477 43.8199 222.577 43.4399 222.047 42.6799C221.547 41.9799 221.297 40.7599 221.297 39.0299V16.9899H221.527C224.687 17.2599 227.187 18.7899 229.017 21.5699C230.827 24.3499 231.727 27.9999 231.727 32.5099C231.727 36.1099 231.127 38.8799 229.917 40.8199Z" fill="#FFFAF5"/>
<path d="M285.007 12.7498C286.498 12.7498 287.707 11.138 287.707 9.14981C287.707 7.16158 286.498 5.5498 285.007 5.5498C283.516 5.5498 282.307 7.16158 282.307 9.14981C282.307 11.138 283.516 12.7498 285.007 12.7498Z" fill="#FFFAF5"/>
<path d="M285.007 18.3L289.587 13.72C292.107 11.2 292.107 7.09 289.587 4.57L285.007 0L280.427 4.58C277.907 7.1 277.907 11.21 280.427 13.73L285.007 18.3ZM281.957 6.1L285.007 3.05L288.057 6.1C289.737 7.78 289.737 10.52 288.057 12.2L285.007 15.25L281.957 12.2C280.277 10.52 280.277 7.78 281.957 6.1Z" fill="#E8D7AC"/>
<path d="M310.427 25.42C309.397 24.39 308.097 23.78 306.747 23.59C306.527 22.83 306.267 22.09 305.967 21.37C303.927 16.38 300.127 12.21 295.077 9.70004L293.757 9.05004L293.527 10.51C293.327 11.8 292.837 13.01 292.097 14.08C291.807 14.49 291.477 14.89 291.107 15.26L289.577 16.78L288.057 18.3L286.527 19.83L285.007 21.35L281.957 18.3L278.907 15.25C278.547 14.89 278.217 14.49 277.927 14.07L277.867 13.98C277.157 12.94 276.687 11.77 276.487 10.5L276.257 9.04004L274.937 9.69004C269.887 12.2 266.077 16.36 264.037 21.36C263.747 22.09 263.487 22.83 263.257 23.58C261.867 23.77 260.587 24.4 259.577 25.41L255.007 30L259.587 34.58C260.627 35.62 261.927 36.23 263.277 36.41C263.497 37.17 263.767 37.91 264.067 38.63C266.367 44.19 270.817 48.65 276.377 50.94C277.097 51.24 277.837 51.5 278.597 51.72C278.787 53.12 279.417 54.4 280.437 55.42L285.007 60L289.587 55.42C290.627 54.38 291.237 53.08 291.417 51.72C292.177 51.5 292.917 51.23 293.627 50.94C299.187 48.64 303.637 44.19 305.937 38.63C306.237 37.91 306.497 37.17 306.727 36.41C308.117 36.22 309.407 35.59 310.427 34.58L315.007 30L310.427 25.42ZM295.327 12.29C299.107 14.49 302.017 17.77 303.737 21.63C304.027 22.29 304.287 22.97 304.517 23.67C303.817 23.81 303.127 24.08 302.497 24.46C302.277 23.77 302.017 23.08 301.717 22.43C300.207 19.1 297.717 16.26 294.487 14.3C294.827 13.66 295.117 12.99 295.327 12.29ZM291.107 18.3L292.637 16.77C292.857 16.55 293.057 16.33 293.247 16.09C293.257 16.09 293.257 16.08 293.257 16.08C296.287 17.88 298.597 20.57 299.917 23.72C300.227 24.46 300.477 25.22 300.677 26L300.007 26.67L298.207 28.47L289.567 19.82L291.107 18.3ZM266.287 21.63C267.997 17.76 270.907 14.49 274.687 12.29C274.897 12.99 275.187 13.66 275.537 14.3C272.307 16.25 269.817 19.09 268.307 22.43C268.007 23.09 267.747 23.77 267.527 24.47C266.907 24.09 266.227 23.82 265.507 23.67C265.727 22.97 265.987 22.29 266.287 21.63ZM262.727 34.07C262.137 33.86 261.587 33.52 261.117 33.05L258.057 30L261.107 26.94C261.567 26.48 262.117 26.13 262.717 25.93C262.547 26.84 262.437 27.77 262.387 28.71C262.357 29.13 262.347 29.56 262.347 29.99C262.347 30.42 262.357 30.85 262.387 31.28L262.627 31.52C262.857 31.75 263.127 31.92 263.437 32.03C263.667 32.11 263.907 32.15 264.157 32.15C264.287 32.15 264.427 32.14 264.557 32.11C264.577 32.11 264.597 32.1 264.607 32.1C264.537 31.41 264.497 30.7 264.497 29.99C264.497 29.28 264.537 28.58 264.607 27.88C264.677 27.16 264.787 26.45 264.937 25.74C265.677 25.88 266.367 26.21 266.947 26.7C267.037 26.77 267.117 26.85 267.197 26.93L268.727 28.46L268.907 28.28L270.257 26.93L269.317 25.99C269.517 25.21 269.767 24.45 270.077 23.71C271.397 20.56 273.707 17.87 276.737 16.07C276.937 16.31 277.147 16.54 277.377 16.76L278.897 18.28L280.417 19.8L270.267 30L268.887 31.38L267.217 33.05C267.137 33.13 267.047 33.21 266.967 33.28C266.377 33.78 265.687 34.1 264.957 34.24C264.207 34.38 263.437 34.32 262.727 34.07ZM278.687 49.49C277.997 49.26 277.317 49 276.647 48.7C272.057 46.64 268.357 42.94 266.297 38.35C266.007 37.69 265.737 37.01 265.517 36.32C266.217 36.17 266.897 35.91 267.527 35.53C267.747 36.23 268.007 36.91 268.307 37.57C270.147 41.6 273.407 44.86 277.437 46.7C278.097 47 278.777 47.26 279.477 47.48C279.097 48.11 278.827 48.78 278.687 49.49ZM289.077 52.28C288.877 52.87 288.537 53.42 288.067 53.89L285.017 56.94L281.967 53.89C281.507 53.43 281.157 52.88 280.947 52.28C281.857 52.45 282.787 52.56 283.727 52.61C284.147 52.64 284.577 52.65 285.007 52.65V50.49C284.297 50.49 283.597 50.45 282.897 50.38C282.177 50.31 281.467 50.19 280.767 50.05C280.907 49.31 281.237 48.62 281.727 48.04C281.797 47.96 281.877 47.87 281.957 47.8L283.487 46.27L281.957 44.74L281.017 45.68C280.237 45.48 279.477 45.23 278.747 44.92C274.857 43.28 271.737 40.16 270.097 36.27C269.787 35.53 269.537 34.78 269.337 33.99L269.997 33.32L271.797 31.52L285.007 44.74L286.387 46.12L288.067 47.8C288.147 47.88 288.217 47.96 288.297 48.04C288.807 48.63 289.117 49.32 289.257 50.05C289.387 50.79 289.327 51.57 289.077 52.28ZM303.717 38.36C301.657 42.95 297.957 46.65 293.367 48.71C292.707 49 292.027 49.27 291.337 49.49C291.187 48.79 290.927 48.11 290.547 47.48C291.247 47.26 291.927 47 292.577 46.7C296.607 44.86 299.867 41.61 301.707 37.57C302.007 36.91 302.267 36.23 302.487 35.53C303.107 35.91 303.777 36.17 304.497 36.32C304.267 37.02 304.007 37.7 303.717 38.36ZM308.907 33.05C308.437 33.51 307.897 33.86 307.297 34.07C307.467 33.16 307.577 32.23 307.627 31.29C307.657 30.87 307.667 30.43 307.667 30C307.667 29.57 307.657 29.14 307.627 28.72L307.387 28.48C307.157 28.25 306.887 28.08 306.597 27.98C306.357 27.9 306.107 27.85 305.867 27.85C305.727 27.85 305.597 27.86 305.467 27.89C305.447 27.89 305.427 27.9 305.407 27.9C305.477 28.59 305.517 29.3 305.517 30.01C305.517 30.72 305.477 31.43 305.407 32.12C305.327 32.84 305.217 33.55 305.077 34.25C304.337 34.11 303.647 33.78 303.067 33.28C302.977 33.21 302.897 33.13 302.817 33.05L301.287 31.53L301.107 31.71L299.767 33.06L300.697 34C300.497 34.78 300.247 35.54 299.937 36.28C298.297 40.16 295.177 43.28 291.297 44.93C290.567 45.24 289.797 45.5 289.017 45.69L288.357 45.03L285.007 41.7V41.69L281.957 38.64L273.307 30L281.947 21.36L282.717 22.12L285.007 24.41L285.777 25.17L290.607 30L286.537 34.07L288.057 35.59L293.647 30L286.527 22.88L288.047 21.36L296.707 30L288.067 38.64L287.107 37.68L284.257 34.83L284.207 34.78L279.417 30L283.487 25.93L281.967 24.4L276.367 30L288.067 41.7L299.747 30L302.797 26.95C302.877 26.87 302.967 26.79 303.047 26.72C303.637 26.22 304.337 25.9 305.057 25.76C305.797 25.62 306.567 25.68 307.287 25.94C307.877 26.14 308.427 26.48 308.897 26.95L311.947 30L308.907 33.05Z" fill="#E8D7AC"/>
</svg>
