<svg width="175" height="45" viewBox="0 0 175 45" fill="none" xmlns="http://www.w3.org/2000/svg">
<path fill-rule="evenodd" clip-rule="evenodd" d="M64.8309 21.0113C64.8309 20.9978 64.8248 20.9842 64.8116 20.9706L59.7108 8.12393C59.6712 8.02974 59.5991 7.98896 59.4946 8.00255L55.024 8.9357C54.9316 8.96289 54.8789 9.01727 54.8667 9.09884C54.8535 9.17943 54.8789 9.2474 54.9448 9.30081C55.5619 9.77467 56.0084 10.3835 56.2845 11.1283V11.1487C55.7852 12.6499 55.4442 13.6112 55.2605 14.0297L53.251 19.4694C52.7923 20.7278 52.0625 21.7823 51.0659 22.6349C51 22.7029 50.9837 22.7805 51.0162 22.8679C51.0487 22.9563 51.1116 23 51.2029 23H53.5078H54.1969C54.276 23 54.3308 22.9592 54.3643 22.8786C54.3968 22.7971 54.3867 22.7233 54.3349 22.6553C54.0193 22.3038 53.8163 21.8872 53.7239 21.4075C53.6326 20.9269 53.6651 20.4569 53.8224 19.9966L54.2557 18.779H59.317L59.8092 19.9966C59.9797 20.4433 60.0223 20.9094 59.9371 21.3968C59.8518 21.8843 59.6448 22.3038 59.317 22.6553C59.2642 22.7233 59.2551 22.7941 59.2875 22.8679C59.32 22.9427 59.3758 22.9796 59.455 22.9796H65.796C65.8884 22.9796 65.9503 22.9398 65.9838 22.8582C66.0163 22.7776 66 22.7029 65.9341 22.6349C65.4479 22.1756 65.0805 21.6338 64.8309 21.0113H64.8309ZM55 18L57.424 12L60 18H55Z" fill="#FFFAF5"/>
<path d="M86.937 8.37841C87 8.30796 87.0158 8.22745 86.9842 8.13586C86.9527 8.04529 86.8917 8 86.803 8H82.9417C82.8521 8 82.795 8.04931 82.7694 8.14693C82.7437 8.24455 82.7694 8.32205 82.8462 8.37841C83.2796 8.74272 83.5721 9.21271 83.7258 9.78736C83.8785 10.363 83.8598 10.9447 83.6687 11.5335L80.9727 19.6944L78.125 11.5757C77.9211 11.0011 77.9053 10.4154 78.0777 9.81957C78.2491 9.22378 78.5712 8.74272 79.043 8.37841C79.1189 8.32205 79.1415 8.24455 79.109 8.14693C79.0775 8.04931 79.0164 8 78.9278 8H72.0661C71.9765 8 71.9164 8.04529 71.8839 8.13586C71.8524 8.22745 71.8681 8.30091 71.9322 8.35727C72.7478 9.19862 73.3654 10.1939 73.786 11.3443L74.3208 12.879L72.0464 19.6944L69.2371 11.5757C69.0332 11.0011 69.0204 10.4154 69.1987 9.81957C69.377 9.22378 69.7021 8.74272 70.1739 8.37841C70.2497 8.32205 70.2724 8.24455 70.2409 8.14693C70.2084 8.04931 70.1483 8 70.0587 8H63.197C63.1074 8 63.0473 8.04529 63.0158 8.13586C62.9842 8.22745 63 8.30091 63.063 8.35727C63.8786 9.19862 64.4903 10.1939 64.8981 11.3443L68.9308 22.8706C68.9692 22.9692 69.0332 23.0114 69.1219 22.9974C69.8991 22.9551 70.6635 22.9551 71.416 22.9974C71.5047 23.0114 71.5687 22.9692 71.6071 22.8706L74.7798 14.1833L77.8767 22.8706C77.9152 22.9551 77.9723 22.9974 78.0491 22.9974H78.0678C78.845 22.9551 79.6094 22.9551 80.361 22.9974C80.4506 22.9974 80.5146 22.9551 80.553 22.8706L84.4133 12.1222C84.961 10.6358 85.8022 9.38782 86.937 8.37841H86.937Z" fill="#FFFAF5"/>
<path fill-rule="evenodd" clip-rule="evenodd" d="M99.8319 21.0113C99.8319 20.9978 99.8248 20.9842 99.8116 20.9706L94.7108 8.12393C94.6722 8.02974 94.5991 7.98896 94.4946 8.00255L90.024 8.9357C89.9317 8.96289 89.8799 9.01727 89.8667 9.09884C89.8535 9.17943 89.8799 9.2474 89.9449 9.30081C90.5619 9.77467 91.0084 10.3835 91.2845 11.1283V11.1487C90.7852 12.6499 90.4442 13.6112 90.2605 14.0297L88.252 19.4694C87.7923 20.7278 87.0636 21.7823 86.0659 22.6349C86 22.7029 85.9837 22.7805 86.0162 22.8679C86.0487 22.9563 86.1116 23 86.204 23H88.5078H89.1969C89.276 23 89.3318 22.9592 89.3643 22.8786C89.3968 22.7971 89.3866 22.7233 89.3349 22.6553C89.0203 22.3038 88.8163 21.8872 88.7239 21.4075C88.6326 20.9269 88.6651 20.4569 88.8224 19.9966L89.2557 18.779H94.317L94.8102 19.9966C94.9797 20.4433 95.0233 20.9094 94.9381 21.3968C94.8518 21.8843 94.6458 22.3038 94.317 22.6553C94.2642 22.7233 94.2551 22.7941 94.2875 22.8679C94.32 22.9427 94.3769 22.9796 94.455 22.9796H100.797C100.888 22.9796 100.95 22.9398 100.984 22.8582C101.016 22.7776 101 22.7029 100.934 22.6349C100.449 22.1756 100.081 21.6338 99.8319 21.0113H99.8319ZM90 18L92.4235 12L95 18H90Z" fill="#FFFAF5"/>
<path d="M115.241 20.4685L110.05 13.2961L109.99 13.2113L111.547 11.5025C112.346 10.6445 113.128 9.98742 113.893 9.53018C114.659 9.07294 115.54 8.74591 116.538 8.54909L116.678 8.52789C116.797 8.51376 116.858 8.44311 116.858 8.31694V8.21095C116.858 8.07065 116.791 8 116.659 8H111.168C111.035 8 110.968 8.07065 110.968 8.21095V8.25335C110.968 8.38053 111.022 8.45118 111.128 8.4643L111.348 8.5067C111.627 8.56322 111.827 8.65406 111.947 8.78124C112.079 8.93567 112.127 9.12543 112.086 9.35051C112.02 9.74416 111.68 10.2862 111.069 10.9746L107.335 15.1099L106.336 16.1859V11.2491C106.336 10.1247 106.703 9.15369 107.435 8.33813C107.501 8.28161 107.514 8.21095 107.475 8.12718C107.435 8.04239 107.374 8 107.295 8H101.206C101.113 8 101.049 8.04239 101.016 8.12718C100.984 8.21095 101 8.28161 101.067 8.33813C101.798 9.15369 102.165 10.1247 102.165 11.2491V19.7297C102.165 20.8693 101.798 21.8392 101.067 22.6407C101 22.7113 100.984 22.788 101.016 22.8728C101.049 22.9576 101.113 23 101.206 23H107.295C107.374 23 107.435 22.9576 107.475 22.8728C107.514 22.788 107.501 22.7113 107.435 22.6407C106.703 21.8392 106.336 20.8693 106.336 19.7297V17.177L107.236 16.2282L112.046 22.9152C112.086 22.9717 112.14 23 112.207 23H116.797C116.878 23 116.937 22.9576 116.977 22.8728C117.018 22.788 117.004 22.7184 116.937 22.6619C116.339 21.9452 115.773 21.2134 115.241 20.4685H115.241Z" fill="#FFFAF5"/>
<path d="M128.89 18.5821C128.796 18.5399 128.718 18.568 128.656 18.6657C127.909 19.9843 127.262 20.9244 126.714 21.4851C126.117 22.088 125.464 22.389 124.754 22.389H124.157C123.348 22.389 122.787 22.1998 122.476 21.8213C122.215 21.3029 122.06 20.7483 122.01 20.1594L121.991 20.0749V19.8645V19.5917V15.7627L123.391 15.8261C124.075 15.8543 124.599 16.0083 124.959 16.2881C125.333 16.5549 125.625 17.032 125.837 17.7195C125.862 17.8171 125.927 17.8594 126.033 17.8453C126.139 17.8312 126.192 17.7608 126.192 17.6349V13.3429C126.192 13.2312 126.139 13.1647 126.033 13.1436C125.927 13.1225 125.862 13.1678 125.837 13.2805C125.613 13.9821 125.326 14.4652 124.978 14.732C124.629 14.9836 124.101 15.1245 123.391 15.1527L121.991 15.2363V8.73581H124.119C125.028 8.73581 125.731 8.98141 126.228 9.47262C126.689 9.93464 127.168 10.7902 127.667 12.0384C127.704 12.1511 127.773 12.1934 127.872 12.1652L127.927 12.1441C128.028 12.13 128.078 12.0595 128.078 11.9337C128.052 11.2331 128.033 10.5658 128.021 9.93464C128.021 9.34579 128.028 8.77104 128.04 8.21037C128.04 8.15401 128.021 8.10468 127.984 8.06241C127.947 8.02013 127.902 8 127.853 8H117.193C117.106 8 117.046 8.04127 117.015 8.12582C116.985 8.21037 117 8.28687 117.063 8.35733C117.747 9.17065 118.089 10.139 118.089 11.2603V19.7387C118.089 20.8751 117.747 21.8424 117.063 22.6417C117 22.7121 116.985 22.7886 117.015 22.8732C117.046 22.9577 117.106 23 117.193 23H128.171C128.282 23 128.338 22.9366 128.338 22.8098C128.376 22.3477 128.444 21.8002 128.544 21.169C128.643 20.5379 128.792 19.7528 128.992 18.8136C129.017 18.7009 128.983 18.6234 128.89 18.5821Z" fill="#FFFAF5"/>
<path d="M144.803 8H142.158C142.068 8 142.008 8.04104 141.975 8.12513C141.944 8.20921 141.96 8.28529 142.024 8.35536C142.714 9.15015 143.065 10.0991 143.077 11.2002L143.135 17.8749V18.2513L136.16 8.08308C136.122 8.02803 136.07 8 136.007 8L131.197 8.02002C131.121 8.02002 131.063 8.05906 131.024 8.13514C130.987 8.21221 130.993 8.28529 131.044 8.35536L132.328 10.008V19.9039C132.289 20.964 131.938 21.8779 131.274 22.6446C131.223 22.7147 131.213 22.7908 131.245 22.8749C131.277 22.958 131.331 23 131.408 23H134.072C134.149 23 134.202 22.958 134.234 22.8749C134.266 22.7908 134.256 22.7147 134.206 22.6446C133.503 21.8358 133.151 20.8739 133.151 19.7578C133.151 19.7437 133.145 19.7297 133.132 19.7157L133.094 11.4104L133.075 11.033L141.027 22.8539C141.066 22.9099 141.116 22.9369 141.18 22.9369L143.691 22.9169C143.818 22.9169 143.882 22.8539 143.882 22.7277V11.2422C143.882 10.1271 144.234 9.16416 144.936 8.35536C145 8.28529 145.016 8.20921 144.984 8.12513C144.952 8.04104 144.891 8 144.803 8L144.803 8Z" fill="#FFFAF5"/>
<path d="M157.89 18.5821C157.796 18.5399 157.718 18.568 157.657 18.6657C156.909 19.9843 156.263 20.9244 155.714 21.4851C155.117 22.088 154.464 22.389 153.754 22.389H153.157C152.348 22.389 151.788 22.1998 151.477 21.8213C151.216 21.3029 151.06 20.7483 151.01 20.1594L150.991 20.0749V19.8645V19.5917V15.7627L152.391 15.8261C153.076 15.8543 153.599 16.0083 153.959 16.2881C154.333 16.5549 154.625 17.032 154.837 17.7195C154.862 17.8171 154.927 17.8594 155.033 17.8453C155.139 17.8312 155.192 17.7608 155.192 17.6349V13.3429C155.192 13.2312 155.139 13.1647 155.033 13.1436C154.927 13.1225 154.862 13.1678 154.837 13.2805C154.613 13.9821 154.327 14.4652 153.979 14.732C153.629 14.9836 153.101 15.1245 152.391 15.1527L150.991 15.2363V8.73581H153.119C154.028 8.73581 154.731 8.98141 155.229 9.47262C155.689 9.93464 156.168 10.7902 156.667 12.0384C156.704 12.1511 156.773 12.1934 156.872 12.1652L156.928 12.1441C157.028 12.13 157.078 12.0595 157.078 11.9337C157.053 11.2331 157.033 10.5658 157.022 9.93464C157.022 9.34579 157.028 8.77104 157.04 8.21037C157.04 8.15401 157.022 8.10468 156.984 8.06241C156.947 8.02013 156.903 8 156.853 8H146.193C146.106 8 146.047 8.04127 146.015 8.12582C145.985 8.21037 146 8.28687 146.063 8.35733C146.747 9.17065 147.089 10.139 147.089 11.2603V19.7387C147.089 20.8751 146.747 21.8424 146.063 22.6417C146 22.7121 145.985 22.7886 146.015 22.8732C146.047 22.9577 146.106 23 146.193 23H157.171C157.282 23 157.339 22.9366 157.339 22.8098C157.376 22.3477 157.444 21.8002 157.544 21.169C157.643 20.5379 157.792 19.7528 157.993 18.8136C158.017 18.7009 157.983 18.6234 157.89 18.5821Z" fill="#FFFAF5"/>
<path fill-rule="evenodd" clip-rule="evenodd" d="M172.547 10.029C170.911 8.68969 168.687 8.02102 165.875 8.02102C165.835 8.02102 165.77 8.01401 165.679 8C165.26 8 164.867 8.00701 164.5 8.02102H160.203C160.111 8.02102 160.05 8.06206 160.016 8.14615C159.984 8.23023 160 8.2993 160.066 8.35536C160.785 9.16416 161.145 10.1271 161.145 11.2422V14.987C161.145 15.002 161.151 15.016 161.165 15.029V15.992C161.151 16.006 161.145 16.02 161.145 16.033V19.7788C161.145 20.8949 160.785 21.8569 160.066 22.6657C160 22.7217 159.984 22.7908 160.016 22.8749C160.05 22.958 160.111 23 160.203 23H166.503C169.08 23 171.141 22.3173 172.684 20.95C174.227 19.5696 175 17.7698 175 15.5526C175 13.2232 174.182 11.3824 172.547 10.029ZM169.133 21.4347C168.555 22.4789 167.731 23 166.66 23C166.047 23 165.614 22.8027 165.361 22.4081C165.12 22.0418 165 21.4073 165 20.5048V9H165.108C166.624 9.14166 167.821 9.93799 168.7 11.39C169.567 12.842 170 14.7453 170 17.0999C170 18.9748 169.711 20.4198 169.133 21.4347Z" fill="#FFFAF5"/>
<path d="M55.3726 36.434C53.1616 36.434 51.6363 34.9057 51.6363 33C51.6363 31.0943 53.1616 29.5651 55.3726 29.5651C56.6934 29.5651 57.8591 30.2079 58.411 31.1607L58.9764 30.8621C58.2795 29.731 56.9216 29 55.3726 29C52.8142 29 51 30.7843 51 33C51 35.2157 52.8142 37 55.3726 37C56.9463 37 58.3154 36.2463 59 35.1048L58.4357 34.8061C57.8827 35.7808 56.7058 36.434 55.3726 36.434Z" fill="#E8D7AC"/>
<path fill-rule="evenodd" clip-rule="evenodd" d="M66.9995 29C64.7618 29 63 30.7843 63 33C63 35.2157 64.7618 37 66.9995 37C69.2382 37 71 35.2157 71 33C71 30.7843 69.2382 29 66.9995 29ZM67.4995 37C65.5344 37 64 35.4425 64 33.5005C64 31.5585 65.5344 30 67.4995 30C69.4656 30 71 31.5585 71 33.5005C71 35.4425 69.4656 37 67.4995 37Z" fill="#E8D7AC"/>
<path d="M76.5535 29H76V37H80V36.4285H76.5535V29Z" fill="#E8D7AC"/>
<path d="M86.5535 29H86V37H90V36.4285H86.5535V29Z" fill="#E8D7AC"/>
<path d="M95.6576 33.2513H99.628V32.6799H95.6576V29.5715H99.9382V29H95V37H100V36.4285H95.6576L95.6576 33.2513Z" fill="#E8D7AC"/>
<path d="M108.373 36.434C106.163 36.434 104.637 34.9057 104.637 33C104.637 31.0943 106.163 29.5651 108.373 29.5651C109.693 29.5651 110.859 30.2079 111.412 31.1607L111.976 30.8621C111.279 29.731 109.923 29 108.373 29C105.814 29 104 30.7843 104 33C104 35.2157 105.814 37 108.373 37C109.946 37 111.315 36.2463 112 35.1048L111.436 34.8061C110.884 35.7808 109.706 36.434 108.373 36.434Z" fill="#E8D7AC"/>
<path d="M116 29.5715H118.672V37H119.328V29.5715H122V29H116V29.5715Z" fill="#E8D7AC"/>
<rect x="127" y="29" width="1" height="8" fill="#E8D7AC"/>
<path d="M135.5 36.2113L132.703 29H132L135.161 37H135.839L139 29H138.31L135.5 36.2113Z" fill="#E8D7AC"/>
<path d="M143.658 36.4286V33.2513H147.628V32.6799H143.658V29.5715H147.938V29H143V37H148V36.4285L143.658 36.4286Z" fill="#E8D7AC"/>
<ellipse cx="22" cy="6.5" rx="2" ry="2.5" fill="#FFFAF5"/>
<path fill-rule="evenodd" clip-rule="evenodd" d="M23 14L26.5369 10.4992C28.4877 8.56989 28.4877 5.43011 26.5369 3.49975L23 0L19.4631 3.49975C17.5123 5.43011 17.5123 8.56989 19.4631 10.4992L23 14ZM21.0242 4.24975L23.5 2L25.9758 4.24975C27.3414 5.49066 27.3414 7.50934 25.9758 8.75025L23.5 11L21.0242 8.75025C19.6586 7.50934 19.6586 5.49066 21.0242 4.24975Z" fill="#E8D7AC"/>
<path fill-rule="evenodd" clip-rule="evenodd" d="M41.565 19.2086C40.791 18.4399 39.815 17.9834 38.803 17.8472C38.639 17.2834 38.445 16.7315 38.221 16.1925C36.692 12.4703 33.839 9.35977 30.05 7.49025L29.063 7.00298L28.894 8.0889C28.74 9.05448 28.378 9.94947 27.818 10.749C27.602 11.0573 27.351 11.3546 27.079 11.6281L25.933 12.7657L24.789 13.9023L23.643 15.0419L22.503 16.1766L22.5 16.1786L20.211 13.9023L17.924 11.6281C17.652 11.3576 17.404 11.0622 17.188 10.749L17.142 10.6794C16.608 9.90174 16.26 9.03261 16.109 8.08591L15.939 7L14.952 7.48826C11.164 9.35977 8.311 12.4654 6.776 16.1895C6.555 16.7315 6.361 17.2834 6.194 17.8472C5.153 17.9864 4.19 18.4578 3.433 19.2116L0 22.6254L3.435 26.0393C4.215 26.8139 5.191 27.2694 6.205 27.4066C6.372 27.9695 6.569 28.5224 6.795 29.0613C8.518 33.2091 11.859 36.5315 16.031 38.2449C16.57 38.4676 17.126 38.6635 17.695 38.8296C17.835 39.8698 18.312 40.8304 19.073 41.5861L22.503 45L25.935 41.5861C26.715 40.8115 27.17 39.8379 27.311 38.8296C27.877 38.6635 28.432 38.4676 28.972 38.2449C33.141 36.5315 36.482 33.2091 38.205 29.0613C38.431 28.5224 38.628 27.9695 38.795 27.4066C39.839 27.2674 40.807 26.795 41.567 26.0393L45 22.6254L41.565 19.2086ZM30.6773 9C33.6938 10.6278 36.0096 13.0494 37.3801 15.9078C37.6151 16.3968 37.8224 16.9016 38 17.4153C37.4375 17.5218 36.8931 17.718 36.3913 18C36.2169 17.4873 36.0074 16.9815 35.7661 16.4954V16.4924C34.5646 14.0305 32.5752 11.9274 30 10.4839C30.2754 10.0136 30.5082 9.51567 30.6773 9H30.6773ZM27.1007 13.6115L28.2015 12.5017C28.3571 12.3419 28.504 12.1801 28.6443 12.0107C28.6491 12.0077 28.6519 12.0029 28.6548 12C30.838 13.3084 32.5007 15.2618 33.4516 17.5522C33.6744 18.0878 33.8578 18.6389 34 19.2083L33.5207 19.6935L32.226 21L26 14.7185L27.1007 13.6115ZM8.62201 15.9025C9.99043 13.0451 12.3062 10.6244 15.3227 9C15.4918 9.51845 15.7214 10.0133 16 10.4834C13.4248 11.9244 11.4354 14.0258 10.2339 16.4929C9.99256 16.9818 9.78309 17.4845 9.60872 18C9.11217 17.7181 8.57097 17.519 8 17.4096C8.17757 16.8971 8.3849 16.3914 8.62201 15.9025ZM5.54428 25.8118C5.09644 25.6521 4.67797 25.393 4.3203 25.0305L2 22.6896L4.31726 20.3416C4.66987 19.9883 5.08732 19.7231 5.54124 19.5633C5.4156 20.2617 5.33049 20.9775 5.293 21.7004C5.27375 22.0261 5.26565 22.3548 5.26565 22.6865C5.26565 23.0173 5.27375 23.3491 5.29503 23.6747L5.47842 23.8601C5.65371 24.0362 5.86143 24.1693 6.09042 24.2492C6.26267 24.3096 6.44809 24.3434 6.63959 24.3434C6.74091 24.3434 6.84426 24.3352 6.94558 24.3157L6.98713 24.3076C6.93241 23.774 6.90505 23.2334 6.90505 22.6865C6.90505 22.1428 6.93241 21.6011 6.98713 21.0686C7.04184 20.5136 7.12594 19.9668 7.23841 19.4282C7.80075 19.5326 8.32561 19.7866 8.76535 20.1685C8.83121 20.2238 8.89403 20.2812 8.95381 20.3416L10.115 21.5161L10.2487 21.3799L11.2731 20.3416L10.5608 19.6186C10.7108 19.0165 10.9043 18.4369 11.1393 17.8706V17.8676C12.1424 15.4489 13.8964 13.3804 16.1994 12C16.3524 12.1853 16.5135 12.3615 16.6838 12.5335L17.8419 13.7039L19 14.8744L11.2761 22.6865L10.2274 23.7464L8.95685 25.0305C8.89605 25.094 8.83121 25.1524 8.76839 25.2107C8.31953 25.5968 7.79264 25.8395 7.24043 25.9449C6.67505 26.0494 6.09042 26.0054 5.54428 25.8118ZM17.4308 37C16.9332 36.8376 16.4471 36.6495 15.9735 36.4356C12.6844 34.9629 10.0342 32.3128 8.56155 29.0237C8.35049 28.5529 8.16235 28.0658 8 27.5692C8.50234 27.4632 8.98844 27.2731 9.4373 27C9.59393 27.4995 9.78206 27.9865 9.99885 28.4602C11.3139 31.3492 13.6499 33.6823 16.5398 34.9983C17.0106 35.2151 17.4977 35.4032 18 35.5598C17.7269 36.0058 17.5359 36.49 17.4308 37ZM25.817 39.5145C25.6639 39.9549 25.4098 40.3694 25.0567 40.7212L22.7669 43L20.4762 40.7212C20.1311 40.3744 19.872 39.9629 19.7129 39.5145C20.3952 39.638 21.0914 39.7217 21.8006 39.7596C22.1197 39.7805 22.4398 39.7885 22.764 39.7885V38.1763C22.2298 38.1763 21.7036 38.1494 21.1834 38.0956C20.6412 38.0417 20.1071 37.9561 19.5839 37.8464C19.6859 37.2924 19.937 36.7763 20.3061 36.3438C20.3601 36.282 20.4172 36.2203 20.4762 36.1615L21.6226 35.0196L20.4762 33.8776L19.7729 34.5791C19.1848 34.4307 18.6176 34.2404 18.0674 34.0092H18.0654C15.1464 32.7836 12.8046 30.4519 11.5722 27.5443V27.5413C11.3401 26.9903 11.149 26.4263 11 25.8404L11.4972 25.3432L12.8456 24L22.764 33.8796L23.7973 34.909L25.0567 36.1615C25.1157 36.2203 25.1728 36.2801 25.2268 36.3438C25.6069 36.7842 25.844 37.3034 25.944 37.8464C26.0491 38.3995 26.006 38.9774 25.817 39.5145H25.817ZM36.4381 29.0243C34.9646 32.3143 32.3129 34.9652 29.022 36.4383C28.5509 36.6494 28.0635 36.8376 27.5667 37C27.4606 36.4975 27.2733 36.0103 27 35.5623C27.4998 35.4028 27.9861 35.2174 28.4582 35.0006H28.4611C31.3516 33.6823 33.6842 31.3504 35 28.4606C35.2169 27.9887 35.4052 27.4996 35.5619 27C36.0053 27.2703 36.4897 27.4614 37 27.5694C36.8376 28.0661 36.6493 28.5533 36.4381 29.0243H36.4381ZM40.7117 24.6532C40.3605 24.9956 39.9512 25.2511 39.5 25.408C39.624 24.7351 39.7081 24.0483 39.7461 23.3488C39.7671 23.035 39.7751 22.7153 39.7751 22.3966C39.7751 22.077 39.7671 21.7602 39.7481 21.4465L39.565 21.2659C39.3919 21.0952 39.1898 20.9709 38.9686 20.8929C38.7875 20.8318 38.6044 20.8002 38.4213 20.8002C38.3183 20.8002 38.2182 20.8081 38.1211 20.8268C38.1051 20.8298 38.0921 20.8318 38.0751 20.8377C38.1292 21.3508 38.1562 21.8727 38.1562 22.3966C38.1562 22.9235 38.1292 23.4445 38.0751 23.9586C38.0191 24.4933 37.935 25.0202 37.825 25.5363C37.2687 25.4346 36.7503 25.1899 36.3191 24.8199C36.2541 24.7696 36.192 24.7114 36.133 24.6532L34.9863 23.5244L34.8512 23.6576L33.8426 24.6552L34.5441 25.3498C34.395 25.9299 34.2039 26.4914 33.9717 27.034L33.9687 27.037C32.741 29.9102 30.3996 32.22 27.4849 33.4356H27.4829C26.9326 33.6645 26.3602 33.8559 25.7689 34L25.2726 33.5126L22.7801 31.0518L22.7771 31.0548V31.0459L20.4868 28.7923L14 22.3966L20.4868 16L21.0611 16.5644L22.7772 18.2565L23.3515 18.8209L26.9756 22.3966L23.9238 25.406L25.0675 26.5338L29.264 22.3966L23.9208 17.1288L25.0655 16L31.5543 22.3966L25.0675 28.7923L24.3451 28.0799L22.2078 25.9694L22.1698 25.9329L18.5787 22.3966L21.6305 19.3873L20.4868 18.2565L16.2914 22.3966L25.0675 31.0518L33.8426 22.3966V22.3937L36.13 20.1371C36.192 20.076 36.2541 20.0178 36.3191 19.9645C36.7614 19.5925 37.2847 19.3557 37.827 19.257C38.3863 19.1554 38.9636 19.1988 39.503 19.3873C39.9422 19.5392 40.3555 19.7888 40.7087 20.1371L43 22.3937L40.7117 24.6532Z" fill="#E8D7AC"/>
</svg>
