<svg width="18" height="22" viewBox="0 0 18 22" fill="none" xmlns="http://www.w3.org/2000/svg">
<path d="M17.9099 16.4776C17.7922 15.227 17.5272 14.0264 16.9287 12.9059C16.2616 11.6554 15.2706 10.8749 13.8774 10.6649C13.3672 10.5848 12.8864 10.6249 12.4547 10.955C12.2193 11.1351 11.9642 11.2852 11.7091 11.4452C9.90377 12.5858 8.09845 12.5858 6.29315 11.4452C5.97919 11.2451 5.68484 11.025 5.37087 10.8549C5.17465 10.7449 4.9392 10.6349 4.72335 10.6249C4.03655 10.6149 3.37918 10.7649 2.76107 11.1051C1.7603 11.6453 1.17158 12.5357 0.759499 13.5662C0.121757 15.1569 -0.0547982 16.8377 0.0138817 18.5385C0.0825616 20.1792 1.04407 21.3798 2.57465 21.83C2.81993 21.9 3.07499 21.94 3.33008 22C7.10748 22 10.8947 22 14.6721 22C14.7212 21.99 14.7604 21.96 14.8094 21.96C16.6834 21.7499 17.9785 20.3193 17.9982 18.3984C18.008 17.7581 17.9786 17.1179 17.9099 16.4776ZM14.3582 20.7095C12.5725 20.7295 10.7868 20.7095 9.00111 20.7095C7.28411 20.7095 5.57694 20.7095 3.85994 20.7095C3.33012 20.7095 2.81013 20.6294 2.33918 20.3493C1.63276 19.9291 1.29916 19.2688 1.27953 18.4584C1.24029 16.9878 1.36784 15.5271 1.89766 14.1365C2.1037 13.5962 2.38821 13.086 2.80029 12.6758C3.29086 12.1756 3.89917 11.9555 4.58597 11.9254C4.66446 11.9254 4.74294 11.9755 4.81162 12.0155C5.28257 12.3056 5.7339 12.6458 6.23428 12.8959C8.35355 13.9664 10.4237 13.7963 12.4155 12.5257C12.6804 12.3557 12.9453 12.1756 13.22 12.0055C13.3083 11.9555 13.4162 11.9254 13.5143 11.9355C14.6132 11.9955 15.3393 12.6158 15.8495 13.5662C16.3302 14.4866 16.5461 15.4871 16.654 16.5075C16.7129 17.0778 16.7423 17.6481 16.7423 18.2183C16.7521 19.719 15.8397 20.6895 14.3582 20.7095Z" fill="#C4C8CC"/>
<path d="M8.88335 10.5949C11.7777 10.5648 14.0834 8.21372 14.0736 5.29239C14.0638 2.35105 11.7581 0 8.87353 0C5.98897 0 3.66368 2.38108 3.67349 5.31242C3.6833 8.24375 6.02823 10.6249 8.88335 10.5949ZM8.87353 1.28061C11.0615 1.28061 12.8079 3.07138 12.8079 5.29239C12.8079 7.52341 11.0517 9.30423 8.87353 9.30423C6.68558 9.30423 4.93914 7.5134 4.93914 5.29239C4.93914 3.06137 6.68558 1.28061 8.87353 1.28061Z" fill="#C4C8CC"/>
</svg>
