<svg width="18" height="22" viewBox="0 0 18 22" fill="none" xmlns="http://www.w3.org/2000/svg">
<path d="M1.92151 22C1.71426 21.93 1.48517 21.8801 1.28882 21.7901C0.481624 21.4202 0.0125956 20.8104 0.0125956 19.9806C-0.00922059 16.7416 0.00168748 13.5025 0.0125956 10.2534C0.0125956 9.16374 1.00524 8.274 2.20513 8.254C2.46692 8.24401 2.7178 8.254 3.01232 8.254C3.01232 8.16403 3.01232 8.09406 3.01232 8.01408C3.01232 7.19432 3.01232 6.38454 3.01232 5.56478C3.01232 2.77559 5.12843 0.506254 8.13906 0.0663817C11.2915 -0.403482 14.4221 1.67591 14.913 4.56507C14.9784 4.91497 15.0003 5.27487 15.0003 5.63477C15.0112 6.49452 15.0003 7.36426 15.0003 8.254C15.2293 8.254 15.4475 8.254 15.6657 8.254C17.0292 8.254 18 9.14376 18 10.3934C18 13.5425 18 16.6916 18 19.8407C18 20.9503 17.3128 21.7201 16.1347 21.97C16.1129 21.97 16.102 21.99 16.0802 22C11.3461 22 6.6338 22 1.92151 22ZM9.01176 9.63361C6.79742 9.63361 4.57213 9.63361 2.35779 9.63361C1.77966 9.63361 1.48516 9.9035 1.48516 10.4234C1.48516 13.5624 1.48516 16.6916 1.48516 19.8306C1.48516 20.3705 1.76877 20.6304 2.36871 20.6304C6.77557 20.6304 11.1933 20.6304 15.6002 20.6304C16.1892 20.6304 16.4838 20.3705 16.4838 19.8306C16.4838 16.7016 16.4838 13.5725 16.4838 10.4534C16.4838 9.90353 16.2001 9.64361 15.5893 9.64361C13.4077 9.63362 11.2043 9.63361 9.01176 9.63361ZM13.4731 8.254C13.484 8.21401 13.495 8.194 13.495 8.17401C13.495 7.21429 13.5168 6.25462 13.484 5.2949C13.4077 3.17552 11.4224 1.416 9.10989 1.386C6.54649 1.34602 4.50671 3.18551 4.4958 5.53482C4.4958 6.37458 4.4958 7.20435 4.4958 8.0441C4.4958 8.11408 4.4958 8.18402 4.4958 8.254C7.50643 8.254 10.4843 8.254 13.4731 8.254Z" fill="#C4C8CC"/>
<path fill-rule="evenodd" clip-rule="evenodd" d="M10.6261 15.132C10.6261 14.3023 9.89522 13.6324 8.98985 13.6324C8.08448 13.6324 7.35364 14.3023 7.35364 15.132C7.35364 15.7318 7.7354 16.2417 8.29172 16.4817V18.2311H9.68798V16.4817C10.2443 16.2417 10.6261 15.7318 10.6261 15.132Z" fill="#C4C8CC"/>
</svg>
