<svg width="24" height="24" viewBox="0 0 24 24" fill="none" xmlns="http://www.w3.org/2000/svg">
<path d="M17.265 20C14.0009 20 10.7369 18.4545 8.08485 15.8788C5.43282 13.2 3.9028 9.69699 4.0048 6.40002V6.19395L4.10684 5.9879C4.31084 5.67881 4.61686 5.47273 4.82086 5.16364C5.73887 4.23637 6.75888 3.61819 7.8809 3.10304C7.9829 3.00001 8.1869 3 8.39091 3C8.79891 3 9.61492 3.20608 9.92093 3.82426C10.3289 4.95759 10.8389 6.40001 11.1449 7.7394C11.2469 8.15152 11.1449 9.0788 10.6349 9.38789L9.30888 10.2121C9.30888 10.2121 9.30889 10.4182 9.5129 10.6243C10.0229 11.3455 10.6349 11.9637 11.2469 12.6849C11.8589 13.3031 12.5729 13.9212 13.287 14.4364C13.389 14.5394 13.5929 14.5394 13.6949 14.5394H13.797L14.613 13.303C14.919 12.7879 15.837 12.6849 15.939 12.6849C16.041 12.6849 16.143 12.6849 16.245 12.6849C17.979 13.097 18.897 13.4061 20.223 14.0243C20.835 14.3333 21.1411 15.3636 20.9371 15.9818C20.5291 17.1152 19.815 18.1455 18.897 19.0727C18.693 19.2788 18.387 19.5879 18.081 19.794L17.877 19.897L17.265 20ZM5.43284 6.60606C5.43284 9.38788 6.75883 12.4788 9.10487 14.7455L9.2069 14.8485C11.5529 17.2182 14.5109 18.5576 17.265 18.5576C17.469 18.4546 17.571 18.2485 17.775 18.1455C18.489 17.4243 19.101 16.497 19.407 15.5697C19.407 15.5697 19.407 15.4667 19.305 15.3636C18.183 14.8485 17.265 14.5394 15.735 14.2303C15.735 14.2303 15.633 14.2303 15.531 14.2303L14.817 15.3636C14.409 16.0848 13.185 16.1879 12.2669 15.5697C11.5529 15.0546 10.8389 14.4364 10.1249 13.7152C9.41087 12.994 8.79887 12.2727 8.28887 11.5515C7.98286 11.0364 7.7789 10.5212 7.8809 9.90304C7.9829 9.49092 8.18688 9.18184 8.49288 8.97578L9.61487 8.25455C9.61487 8.15152 9.61487 8.04851 9.61487 8.04851C9.30887 6.81215 8.79889 5.57578 8.49288 4.44245C8.39088 4.44245 8.39087 4.44245 8.28887 4.44245C7.37085 4.85457 6.55484 5.3697 5.73883 6.09091C5.73883 6.19394 5.53484 6.4 5.43284 6.60606Z" fill="#C4C8CC"/>
</svg>
