<svg width="24" height="24" viewBox="0 0 24 24" fill="none" xmlns="http://www.w3.org/2000/svg">
<path d="M11.8714 23C11.6143 23 11.4857 22.8735 11.3571 22.747C10.4571 21.988 3 15.5362 3 10.8554C3 6.0482 6.98571 2 12 2C16.8857 2 21 5.92169 21 10.8554C21 15.5362 13.4143 21.988 12.6429 22.747C12.2571 22.8735 12 23 11.8714 23ZM11.8714 3.77108C7.88571 3.77108 4.67145 6.93374 4.67145 10.8554C4.67145 13.8916 9.42856 18.6988 11.8714 20.8494C14.3143 18.6988 19.0714 13.8916 19.0714 10.8554C19.0714 7.06025 15.8571 3.77108 11.8714 3.77108Z" fill="#C4C8CC"/>
<path d="M12 15C9.76469 15 8 13.2353 8 11C8 8.76469 9.76469 7 12 7C14.2353 7 16 8.76469 16 11C16 13.2353 14.1176 15 12 15ZM12 8.52943C10.7059 8.52943 9.64705 9.58825 9.64705 10.8824C9.64705 12.1765 10.7059 13.2353 12 13.2353C13.2941 13.2353 14.3529 12.1765 14.3529 10.8824C14.3529 9.58825 13.2941 8.52943 12 8.52943Z" fill="#C4C8CC"/>
</svg>
