<svg width="22" height="22" viewBox="0 0 22 22" fill="none" xmlns="http://www.w3.org/2000/svg">
<rect x="0.5" y="0.5" width="21" height="21" rx="0.5" stroke="#E8D7AC"/>
<path d="M16.8184 10.6759L13.948 12.8647L15.0422 16.402C15.1048 16.5878 15.037 16.7969 14.8842 16.9099C14.8104 16.9712 14.7212 17 14.6299 17C14.5407 17 14.4494 16.9712 14.3766 16.9099L11.5 14.7261L8.62337 16.9099C8.47158 17.0278 8.26853 17.0278 8.11573 16.9099C7.96291 16.7969 7.89521 16.5879 7.95778 16.402L9.05205 12.8647L6.18157 10.6759C6.02877 10.5633 5.96108 10.3549 6.02261 10.1684C6.08004 9.9826 6.24926 9.85238 6.43488 9.85238H9.98836L11.0888 6.31601C11.1442 6.1242 11.3133 6 11.5 6C11.6867 6 11.8558 6.12419 11.9112 6.31601L13.0116 9.85238H16.5651C16.7507 9.85238 16.9199 9.98259 16.9774 10.1684C17.0389 10.3549 16.9713 10.5633 16.8184 10.6759H16.8184Z" stroke="#E8D7AC"/>
</svg>
