<svg width="31" height="26" viewBox="0 0 31 26" fill="none" xmlns="http://www.w3.org/2000/svg">
<path fill-rule="evenodd" clip-rule="evenodd" d="M10.0493 25.2002C21.3793 25.2002 27.5493 15.8702 27.5493 7.7002C27.5493 7.3702 27.5493 7.20012 27.5493 6.87012C28.7193 6.04012 29.7193 4.8702 30.5493 3.7002C29.3793 4.2002 28.2193 4.5302 27.0493 4.7002C28.3793 3.8702 29.2194 2.70012 29.7194 1.37012C28.5494 2.04012 27.2194 2.54012 25.8894 2.87012C24.7194 1.54012 23.0594 0.870117 21.3894 0.870117C18.0594 0.870117 15.2194 3.70004 15.2194 7.04004C15.2194 7.54004 15.2194 8.04012 15.3894 8.37012C10.2194 8.04012 5.71936 5.70012 2.71936 1.87012C2.21936 2.70012 1.8894 3.87004 1.8894 5.04004C1.8894 7.21004 3.05933 9.03996 4.55933 10.21C3.55933 10.21 2.55937 9.87988 1.72937 9.37988C1.72937 12.3799 3.89937 14.8799 6.72937 15.3799C6.22937 15.5499 5.72933 15.5498 5.05933 15.5498C4.72933 15.5498 4.2294 15.5499 3.8894 15.3799C4.7194 17.8799 6.88936 19.55 9.71936 19.71C7.54936 21.38 4.88932 22.3799 2.04932 22.3799C1.54932 22.3799 1.04932 22.38 0.549316 22.21C3.21932 24.2 6.54932 25.2002 10.0493 25.2002Z" fill="#FFFAF5"/>
</svg>
