<svg width="20" height="20" viewBox="0 0 20 20" fill="none" xmlns="http://www.w3.org/2000/svg">
<path d="M10.8 19.6H8.7C7.9 19.6 7.3 19 7.3 18.2V16.8L6.6 16.5L5.6 17.4C5.1 17.9 4.1 17.9 3.6 17.4L2.1 15.9C1.8 15.6 1.7 15.3 1.7 14.9C1.7 14.5 1.8 14.2 2.1 13.9L3.1 12.9L2.8 12.2H1.4C0.600002 12.2 0 11.6 0 10.8V8.70001C0 7.90001 0.600002 7.29999 1.4 7.29999H2.8L3.1 6.60001L2.2 5.60001C1.9 5.30001 1.8 5.00001 1.8 4.60001C1.8 4.20001 1.9 3.90001 2.2 3.60001L3.7 2.10001C4.2 1.60001 5.2 1.60001 5.7 2.10001L6.7 3.10001L7.3 2.79999V1.39999C7.3 0.599994 7.9 0 8.7 0H10.8C11.6 0 12.2 0.599994 12.2 1.39999V2.79999L12.9 3.10001L13.9 2.20001C14.2 1.90001 14.5 1.79999 14.9 1.79999C15.3 1.79999 15.6 1.90001 15.9 2.20001L17.4 3.70001C17.7 4.00001 17.8 4.30001 17.8 4.70001C17.8 5.10001 17.7 5.40001 17.4 5.70001L16.4 6.70001L16.7 7.39999H18.1C18.9 7.39999 19.5 7.99999 19.5 8.79999V10.9C19.5 11.7 18.9 12.3 18.1 12.3H16.7L16.5 13L17.4 14C17.7 14.3 17.8 14.6 17.8 15C17.8 15.4 17.7 15.7 17.4 16L15.9 17.5C15.4 18 14.4 18 13.9 17.5L12.9 16.5L12.2 16.8V18.2C12.2 19 11.6 19.6 10.8 19.6ZM8.9 18H10.5V16.9C10.5 16.2 11 15.6 11.6 15.3L12.2 15.1C12.4 15 12.6 15 12.9 15C13.4 15 13.8 15.2 14.1 15.5L14.9 16.3L16.1 15.1L15.3 14.3C14.8 13.8 14.7 13 15 12.4L15.2 11.8C15.4 11.2 16.1 10.7 16.7 10.7H17.8V9.10001H16.7C16 9.10001 15.4 8.6 15.1 8L14.9 7.39999C14.6 6.89999 14.8 6.00001 15.2 5.60001L16 4.79999L14.8 3.60001L14 4.39999C13.5 4.89999 12.7 5.00001 12.1 4.70001L11.5 4.5C10.9 4.3 10.4 3.6 10.4 3V1.89999H8.8V3C8.8 3.7 8.3 4.30001 7.7 4.60001L7.1 4.79999C6.9 4.89999 6.7 4.89999 6.4 4.89999C5.9 4.89999 5.5 4.69999 5.2 4.39999L4.4 3.60001L3.2 4.79999L4 5.60001C4.5 6.10001 4.6 6.9 4.3 7.5L4.1 8.10001C3.9 8.70001 3.2 9.20001 2.6 9.20001H1.5V10.8H2.6C3.3 10.8 3.9 11.3 4.2 11.9L4.4 12.5C4.7 13 4.5 13.9 4.1 14.3L3.5 15L4.7 16.2L5.5 15.4C6 14.9 6.8 14.8 7.4 15.1L8 15.3C8.6 15.5 9.1 16.2 9.1 16.8V18H8.9ZM9.7 13.5C7.7 13.5 6.1 11.9 6.1 9.89999C6.1 7.89999 7.7 6.29999 9.7 6.29999C11.7 6.29999 13.3 7.89999 13.3 9.89999C13.3 11.9 11.8 13.5 9.7 13.5ZM9.7 7.89999C8.6 7.89999 7.7 8.79999 7.7 9.89999C7.7 11 8.6 11.9 9.7 11.9C10.8 11.9 11.7 11 11.7 9.89999C11.7 8.79999 10.8 7.89999 9.7 7.89999Z" fill="#363138"/>
</svg>
