<svg width="24" height="24" viewBox="0 0 24 24" fill="none" xmlns="http://www.w3.org/2000/svg">
<path d="M24 12C24 18.6 18.6 24 12 24C5.4 24 0 18.6 0 12C0 5.4 5.4 0 12 0C18.6 0 24 5.3 24 12Z" fill="#0081FF"/>
<path d="M11.4915 18L6.71187 17.8C6.40679 17.8 6.2034 17.6 6.2034 17.3L6 12.6C6 12.5 6.00004 12.3 6.10173 12.2L12.3051 6.09998C12.4068 5.99998 12.5084 6 12.6101 6C12.7118 6 12.9153 6.09998 12.9153 6.09998L17.8983 11C18 11.1 18 11.2 18 11.3C18 11.4 17.8983 11.6 17.8983 11.6L11.6949 17.7C11.7966 17.9 11.6949 18 11.4915 18ZM7.22035 16.8L11.3899 16.9L17.0847 11.3L12.8135 7.09998L7.11868 12.7L7.22035 16.8Z" fill="white"/>
<path d="M15.8196 13C15.7165 13 15.7165 13 15.6134 12.8975L11.0773 8.3846C10.9742 8.28204 10.9742 8.17949 11.0773 8.07692C11.1804 7.97436 11.2835 7.97436 11.3866 8.07692L15.9227 12.5897C16.0258 12.6923 16.0258 12.7949 15.9227 12.8975C15.9227 13 15.9226 13 15.8196 13Z" fill="white"/>
<path d="M11.8196 17C11.7165 17 11.7165 17 11.6134 16.8974C11.201 16.4872 10.4794 16.3846 9.86083 16.6923C9.75774 16.6923 9.65466 16.6923 9.55157 16.6923C9.44847 16.5897 9.44847 16.4872 9.55157 16.3846C9.86084 15.7692 9.75774 15.1538 9.34537 14.641C8.933 14.2308 8.21134 14.1282 7.59278 14.4359C7.48969 14.4359 7.38661 14.4359 7.28352 14.4359C7.18042 14.3333 7.18042 14.2308 7.28352 14.1282C7.59279 13.5128 7.48969 12.8975 7.07732 12.3846C6.97423 12.2821 6.97423 12.1795 7.07732 12.0769C7.18041 11.9744 7.28349 11.9744 7.38658 12.0769C7.90205 12.5897 8.00514 13.2051 7.90205 13.8205C8.5206 13.718 9.24226 13.9231 9.65463 14.3333C10.1701 14.8462 10.2732 15.4616 10.1701 16.0769C10.7887 15.9744 11.5103 16.1795 11.9227 16.5898C12.0258 16.6923 12.0258 16.7949 11.9227 16.8974C11.9227 17 11.9227 17 11.8196 17Z" fill="white"/>
<path d="M8.30221 14C8.19232 14 8.19231 14 8.08242 13.8907C7.97253 13.7814 7.97253 13.6721 8.08242 13.5628L12.5879 9.08197C12.6978 8.97268 12.8077 8.97268 12.9176 9.08197C13.0275 9.19126 13.0275 9.30053 12.9176 9.40982L8.41207 13.8907C8.41207 14 8.30221 14 8.30221 14Z" fill="white"/>
<path d="M10.3022 16C10.1923 16 10.1923 16 10.0824 15.8907C9.97253 15.7814 9.97253 15.6721 10.0824 15.5628L14.5879 11.082C14.6978 10.9727 14.8077 10.9727 14.9176 11.082C15.0275 11.1913 15.0275 11.3005 14.9176 11.4098L10.4121 15.8907C10.4121 16 10.3022 16 10.3022 16Z" fill="white"/>
<path d="M8.67858 18L6.32142 17.8966C6.21427 17.8966 6.10712 17.7931 6.10712 17.6897L6 15.3104C6 15.2069 6.10716 15.1034 6.2143 15H6.32142H6.4286C7.82146 15 9 16.1379 9 17.4828C9 17.5862 9 17.6897 9 17.6897V17.7931C8.89286 17.8966 8.78573 18 8.67858 18ZM6.53572 17.4828L8.46428 17.5862C8.46428 16.5517 7.60715 15.7241 6.53572 15.6207V17.4828Z" fill="white"/>
</svg>
