<svg width="20" height="20" viewBox="0 0 20 20" fill="none" xmlns="http://www.w3.org/2000/svg">
<path fill-rule="evenodd" clip-rule="evenodd" d="M19.4785 16.5044C19.2785 16.9827 18.8785 17.2696 18.2785 17.2696H12.1785C12.1785 18.5131 11.0785 19.5653 9.77846 19.5653C8.47846 19.5653 7.37846 18.5131 7.37846 17.2696H1.27846C0.778458 17.2696 0.278461 16.9827 0.0784607 16.5044C-0.121539 16.0261 0.0784622 15.5479 0.478462 15.1653C1.67846 14.3044 2.47846 12.8696 2.47846 11.4348V7.89571C2.47846 4.06963 5.77846 0.913086 9.77846 0.913086C13.7785 0.913086 17.0785 4.06963 17.0785 7.89571V11.4348C17.0785 12.8696 17.7785 14.3044 19.0785 15.1653C19.4785 15.4522 19.6785 16.0261 19.4785 16.5044ZM14.8785 11.4348V7.89571C14.7785 5.3131 12.5785 3.20876 9.77846 3.20876C7.07846 3.20876 4.77846 5.3131 4.67846 7.89571V11.4348C4.67846 12.6783 4.27846 13.9218 3.67846 14.974H15.8785C15.2785 13.9218 14.8785 12.6783 14.8785 11.4348Z" fill="#363138"/>
</svg>
