<svg width="24" height="24" viewBox="0 0 24 24" fill="none" xmlns="http://www.w3.org/2000/svg">
<path fill-rule="evenodd" clip-rule="evenodd" d="M18.2545 19.7091C18.6424 20.097 19.3212 20.097 19.7091 19.7091C20.097 19.3212 20.097 18.6424 19.7091 18.2545L16.6061 15.1515C17.4788 13.9879 17.9636 12.5333 17.9636 10.9818C17.9636 7.10303 14.8606 4 10.9818 4C7.10299 4 4 7.10303 4 10.9818C4 14.8606 7.10299 17.9636 10.9818 17.9636C12.5333 17.9636 13.9879 17.4788 15.1515 16.6061L18.2545 19.7091ZM6.03635 11.0788C6.03635 8.26667 8.26661 6.03636 11.0787 6.03636C13.7939 6.03636 16.1212 8.26667 16.1212 11.0788C16.1212 13.8909 13.8909 16.1212 11.0787 16.1212C8.26661 16.0242 6.03635 13.7939 6.03635 11.0788Z" fill="#363138"/>
</svg>
