<svg width="24" height="24" viewBox="0 0 24 24" fill="none" xmlns="http://www.w3.org/2000/svg">
<path fill-rule="evenodd" clip-rule="evenodd" d="M21.4785 18.5044C21.2785 18.9827 20.8785 19.2696 20.2785 19.2696H14.1785C14.1785 20.5131 13.0785 21.5653 11.7785 21.5653C10.4785 21.5653 9.37846 20.5131 9.37846 19.2696H3.27846C2.77846 19.2696 2.27846 18.9827 2.07846 18.5044C1.87846 18.0261 2.07846 17.5479 2.47846 17.1653C3.67846 16.3044 4.47846 14.8696 4.47846 13.4348V9.89571C4.47846 6.06963 7.77846 2.91309 11.7785 2.91309C15.7785 2.91309 19.0785 6.06963 19.0785 9.89571V13.4348C19.0785 14.8696 19.7785 16.3044 21.0785 17.1653C21.4785 17.4522 21.6785 18.0261 21.4785 18.5044ZM16.8785 13.4348V9.89571C16.7785 7.3131 14.5785 5.20876 11.7785 5.20876C9.07846 5.20876 6.77846 7.3131 6.67846 9.89571V13.4348C6.67846 14.6783 6.27846 15.9218 5.67846 16.974H17.8785C17.2785 15.9218 16.8785 14.6783 16.8785 13.4348Z" fill="#363138"/>
</svg>
