<svg width="24" height="24" viewBox="0 0 24 24" fill="none" xmlns="http://www.w3.org/2000/svg">
<path d="M5.7234 13.7108H12.3298C12.7128 13.7108 13 13.4102 13 13.0094C13 12.6087 12.7128 12.3082 12.3298 12.3082H5.7234L8.02128 9.00189C8.21277 8.70132 8.11702 8.3006 7.92553 8.10023C7.82979 8.00004 7.6383 8 7.54255 8C7.35107 8 7.15958 8.10024 7.06383 8.30061L4 12.6087V12.7089C4 12.7089 4 12.7089 4 12.8091C4 12.9093 4 12.9092 4 13.0094C4 13.1096 4 13.2098 4 13.2098C4 13.2098 4 13.2099 4 13.31V13.4102L7.06383 17.7183C7.25532 18.0189 7.6383 18.1191 7.92553 17.8185C8.21277 17.6182 8.30851 17.2174 8.02128 16.9168L5.7234 13.7108Z" fill="#DE3F44"/>
<path d="M18.3137 5H9.68628C9.29412 5 9 5.29033 9 5.67743C9 6.06453 9.29412 6.35486 9.68628 6.35486H17.7255V18.6451H9.68628C9.29412 18.6451 9 18.9355 9 19.3226C9 19.7097 9.29412 20 9.68628 20H18.3137C18.7059 20 19 19.7097 19 19.3226V5.77418C19 5.29031 18.7059 5 18.3137 5Z" fill="#DE3F44"/>
</svg>
