<svg width="24" height="24" viewBox="0 0 24 24" fill="none" xmlns="http://www.w3.org/2000/svg">
<path fill-rule="evenodd" clip-rule="evenodd" d="M17.9373 8.09999C17.9373 4.69999 15.2373 2 11.8373 2C8.4373 2 5.7373 4.69999 5.7373 8.09999C5.7373 9.99999 6.5373 11.6 7.8373 12.7C5.1373 14.1 3.2373 17 3.2373 20.3C3.2373 21 3.73731 21.5 4.43731 21.5C5.13731 21.5 5.63731 21 5.63731 20.3C5.63731 16.9 8.3373 14.2 11.7373 14.2C15.1373 14.2 17.8373 16.9 17.8373 20.3C17.8373 21 18.3373 21.5 19.0373 21.5C19.7373 21.5 20.2373 21 20.2373 20.3C20.2373 17 18.3373 14.2 15.6373 12.7C17.1373 11.6 17.9373 9.99999 17.9373 8.09999ZM11.8373 11.8C9.8373 11.8 8.13731 10.2 8.13731 8.09999C8.13731 6.09999 9.7373 4.39999 11.8373 4.39999C13.8373 4.39999 15.5373 5.99999 15.5373 8.09999C15.5373 10.1 13.8373 11.8 11.8373 11.8Z" fill="#363138"/>
</svg>
