<svg width="24" height="25" viewBox="0 0 24 25" fill="none" xmlns="http://www.w3.org/2000/svg">
<path d="M3.18198 23.1056L22.2739 4.0137C22.8395 3.44801 22.8395 2.45806 22.2739 1.89238C21.7082 1.32669 20.7182 1.32669 20.1525 1.89238L1.06066 20.9843C0.494975 21.5499 0.494975 22.5399 1.06066 23.1056C1.62635 23.6713 2.6163 23.6713 3.18198 23.1056Z" fill="#363138"/>
<path d="M22.2736 20.9846L3.18175 1.89269C2.61607 1.32701 1.62612 1.32701 1.06043 1.89269C0.494748 2.45838 0.494748 3.44833 1.06043 4.01401L20.1523 23.1059C20.718 23.6716 21.708 23.6716 22.2736 23.1059C22.8393 22.5402 22.8393 21.5503 22.2736 20.9846Z" fill="#363138"/>
</svg>
