<svg width="37" height="37" viewBox="0 0 37 37" fill="none" xmlns="http://www.w3.org/2000/svg">
<path fill-rule="evenodd" clip-rule="evenodd" d="M18.5 37C8.29886 37 0 28.7011 0 18.5C0 8.29885 8.29886 0 18.5 0C28.7011 0 37 8.29885 37 18.5C37 28.7011 28.7011 37 18.5 37ZM18.5 2C9.40193 2 2 9.40191 2 18.5C2 27.5981 9.40193 35 18.5 35C27.5981 35 35 27.5981 35 18.5C35 9.40191 27.5981 2 18.5 2Z" fill="#FFFAF5"/>
<path fill-rule="evenodd" clip-rule="evenodd" d="M22.7055 15.7375C22.7055 13.3292 20.793 11.4167 18.3846 11.4167C15.9763 11.4167 14.0638 13.3292 14.0638 15.7375C14.0638 17.0833 14.6305 18.2167 15.5513 18.9958C13.6388 19.9875 12.293 22.0417 12.293 24.3792C12.293 24.875 12.6471 25.2292 13.143 25.2292C13.6388 25.2292 13.993 24.875 13.993 24.3792C13.993 21.9708 15.9055 20.0583 18.3138 20.0583C20.7221 20.0583 22.6346 21.9708 22.6346 24.3792C22.6346 24.875 22.9888 25.2292 23.4846 25.2292C23.9805 25.2292 24.3346 24.875 24.3346 24.3792C24.3346 22.0417 22.9888 20.0583 21.0763 18.9958C22.1388 18.2167 22.7055 17.0833 22.7055 15.7375ZM18.3846 18.3583C16.968 18.3583 15.7638 17.225 15.7638 15.7375C15.7638 14.3208 16.8971 13.1167 18.3846 13.1167C19.8013 13.1167 21.0055 14.25 21.0055 15.7375C21.0055 17.1542 19.8013 18.3583 18.3846 18.3583Z" fill="#FFFAF5"/>
</svg>
