<svg width="24" height="24" viewBox="0 0 24 24" fill="none" xmlns="http://www.w3.org/2000/svg">
<path d="M3.18222 22.274L22.2741 3.18216C22.8398 2.61647 22.8398 1.62652 22.2741 1.06084C21.7084 0.495151 20.7185 0.495151 20.1528 1.06084L1.0609 20.1527C0.495219 20.7184 0.495219 21.7084 1.0609 22.274C1.62659 22.8397 2.61654 22.8397 3.18222 22.274Z" fill="#FFFAF5"/>
<path d="M22.2739 20.153L3.182 1.06115C2.61631 0.495463 1.62636 0.495463 1.06068 1.06115C0.494992 1.62683 0.494992 2.61678 1.06068 3.18247L20.1526 22.2744C20.7182 22.84 21.7082 22.84 22.2739 22.2744C22.8396 21.7087 22.8396 20.7187 22.2739 20.153Z" fill="#FFFAF5"/>
</svg>
