<svg width="30" height="4" viewBox="0 0 30 4" fill="none" xmlns="http://www.w3.org/2000/svg">
<path d="M6 2.00242L4.5 0.587687C3.67603 -0.195896 2.32397 -0.195896 1.5 0.587687L0 2.00242L1.5 3.41715C2.32397 4.19428 3.67603 4.19428 4.5 3.41715L6 2.00242Z" fill="#5D4060"/>
<path d="M12 2.00242L13.5 3.41715C14.324 4.19428 15.676 4.19428 16.5 3.41715L18 2.00242L16.5 0.587687C15.676 -0.195896 14.324 -0.195896 13.5 0.587687L12 2.00242Z" fill="#5D4060"/>
<path d="M24 2.00242L25.5 3.41715C26.324 4.19428 27.676 4.19428 28.5 3.41715L30 2.00242L28.5 0.587687C27.676 -0.195896 26.324 -0.195896 25.5 0.587687L24 2.00242Z" fill="#5D4060"/>
</svg>
