<svg width="41" height="7" viewBox="0 0 41 7" fill="none" xmlns="http://www.w3.org/2000/svg">
<path d="M8.96973 3.6699L6.96973 1.6699C5.86973 0.559902 4.06973 0.559902 2.96973 1.6699L0.969727 3.6699L2.96973 5.6699C4.06973 6.7699 5.86973 6.7699 6.96973 5.6699L8.96973 3.6699Z" fill="#363138"/>
<path d="M16.9697 3.6699L18.9697 5.6699C20.0697 6.7699 21.8697 6.7699 22.9697 5.6699L24.9697 3.6699L22.9697 1.6699C21.8697 0.559902 20.0697 0.559902 18.9697 1.6699L16.9697 3.6699Z" fill="#363138"/>
<path d="M32.9697 3.6699L34.9697 5.6699C36.0697 6.7699 37.8697 6.7699 38.9697 5.6699L40.9697 3.6699L38.9697 1.6699C37.8697 0.559902 36.0697 0.559902 34.9697 1.6699L32.9697 3.6699Z" fill="#363138"/>
</svg>
