<svg width="31" height="31" viewBox="0 0 31 31" fill="none" xmlns="http://www.w3.org/2000/svg">
<path fill-rule="evenodd" clip-rule="evenodd" d="M23.5494 5.75C22.5494 5.75 21.7195 6.58008 21.7195 7.58008C21.7195 8.58008 22.5494 9.41016 23.5494 9.41016C24.5494 9.41016 25.3795 8.58008 25.3795 7.58008C25.3795 6.58008 24.5494 5.75 23.5494 5.75ZM15.5494 20.5801C12.7194 20.5801 10.5494 18.4101 10.5494 15.5801C10.5494 12.7501 12.7194 10.5801 15.5494 10.5801C18.3794 10.5801 20.5494 12.7501 20.5494 15.5801C20.5494 18.4201 18.3894 20.5801 15.5494 20.5801ZM15.5494 7.91992C11.2194 7.91992 7.87952 11.2498 7.87952 15.5898C7.87952 19.9198 11.3794 23.2598 15.5494 23.2598C19.8794 23.2598 23.2195 19.7598 23.2195 15.5898C23.2195 11.4198 19.8894 7.91992 15.5494 7.91992ZM15.5494 0.580078C11.5494 0.580078 10.8795 0.58 9.37952 0.75C7.70952 0.75 6.70947 1.07992 5.70947 1.41992C4.70947 1.75992 3.87943 2.24984 3.03943 3.08984C2.20943 3.91984 1.70951 4.75977 1.36951 5.75977C0.869507 6.75977 0.699463 7.75969 0.699463 9.42969C0.529463 10.9297 0.529541 11.5996 0.529541 15.5996C0.529541 19.5996 0.529463 20.2695 0.699463 21.7695C0.699463 23.4395 1.02951 24.4404 1.36951 25.4404C1.69951 26.4404 2.19943 27.2704 3.03943 28.1104C3.86943 28.9404 4.70947 29.4403 5.70947 29.7803C6.70947 30.1103 7.70952 30.4502 9.37952 30.4502C10.8795 30.6202 11.5494 30.6201 15.5494 30.6201C19.5494 30.6201 20.2195 30.6202 21.7195 30.4502C23.3895 30.4502 24.3895 30.1203 25.3895 29.7803C26.3895 29.4403 27.2194 28.9504 28.0594 28.1104C28.8894 27.2804 29.3895 26.4404 29.7295 25.4404C30.0695 24.4404 30.3995 23.4395 30.3995 21.7695C30.3995 20.0995 30.5695 19.5996 30.5695 15.5996C30.5695 11.5996 30.5695 10.9297 30.3995 9.42969C30.3995 7.75969 30.0695 6.75977 29.7295 5.75977C29.3995 4.75977 28.8994 3.92984 28.0594 3.08984C27.2294 2.25984 26.3895 1.75992 25.3895 1.41992C24.3895 1.07992 23.3895 0.75 21.7195 0.75C20.2195 0.58 19.5494 0.580078 15.5494 0.580078ZM15.5494 3.25C19.5494 3.25 20.0494 3.24992 21.5494 3.41992C23.0494 3.41992 23.8795 3.74992 24.3795 3.91992C25.0495 4.24992 25.5494 4.58984 26.0494 5.08984C26.5494 5.58984 26.8795 6.08977 27.2195 6.75977C27.3895 7.25977 27.7195 8.08984 27.7195 9.58984C27.7195 11.0898 27.8895 11.5898 27.8895 15.5898C27.8895 19.5898 27.8895 20.0898 27.7195 21.5898C27.7195 23.0898 27.3895 23.9199 27.2195 24.4199C26.8895 25.0899 26.5494 25.5898 26.0494 26.0898C25.5494 26.5898 25.0495 26.9198 24.3795 27.2598C23.8795 27.4298 23.0494 27.7598 21.5494 27.7598C20.0494 27.7598 19.5494 27.9297 15.5494 27.9297C11.5494 27.9297 11.0494 27.9298 9.54944 27.7598C8.04944 27.7598 7.21948 27.4298 6.71948 27.2598C6.04948 26.9298 5.54944 26.5898 5.04944 26.0898C4.54944 25.5898 4.21952 25.0899 3.87952 24.4199C3.70952 23.9199 3.37952 23.0898 3.37952 21.5898C3.37952 20.0898 3.20947 19.5898 3.20947 15.5898C3.20947 11.5898 3.20952 11.0898 3.37952 9.58984C3.37952 8.08984 3.70952 7.25977 3.87952 6.75977C4.20952 6.08977 4.54944 5.58984 5.04944 5.08984C5.54944 4.41984 6.04948 4.08992 6.71948 3.91992C7.21948 3.74992 8.04944 3.41992 9.54944 3.41992C11.0494 3.24992 11.5494 3.25 15.5494 3.25Z" fill="#FFFAF5"/>
</svg>
