<svg width="197" height="51" viewBox="0 0 197 51" fill="none" xmlns="http://www.w3.org/2000/svg">
<path d="M72.2216 32.3127C72.2216 32.2955 72.213 32.2782 72.1959 32.261L66.4556 17.0597C66.4127 16.9476 66.327 16.8959 66.2157 16.9132L61.1864 18.0162C61.0836 18.0507 61.0236 18.111 61.0065 18.2058C60.9894 18.3006 61.0236 18.3781 61.0922 18.4471C61.7862 19.0072 62.2917 19.7311 62.6001 20.6101V20.6359C62.0346 22.4111 61.6577 23.5487 61.4435 24.0485L59.1816 30.4858C58.6675 31.9766 57.845 33.2262 56.7227 34.2344C56.6456 34.312 56.6284 34.4068 56.6713 34.5102C56.7055 34.6136 56.7741 34.6653 56.8854 34.6653C57.0054 34.6653 57.8707 34.6653 59.4815 34.6653H60.2611C60.3468 34.6653 60.4153 34.6136 60.4496 34.5188C60.4839 34.424 60.4753 34.3378 60.4153 34.2516C60.0641 33.838 59.8327 33.3468 59.7299 32.778C59.6271 32.2093 59.6614 31.6578 59.8413 31.1062L60.3297 29.6671H66.0272L66.5841 31.1062C66.7726 31.6319 66.824 32.1834 66.7297 32.7608C66.6355 33.3382 66.4042 33.8294 66.0357 34.2516C65.9758 34.3292 65.9672 34.4154 66.0015 34.5015C66.0357 34.5877 66.1043 34.6308 66.19 34.6308H73.3269C73.4297 34.6308 73.4982 34.5791 73.541 34.4843C73.5753 34.3895 73.5582 34.3033 73.4896 34.2172C72.9156 33.6915 72.5043 33.0452 72.2216 32.3127ZM60.6295 28.7537L63.0885 21.7907L65.7016 28.7537H60.6295Z" fill="#E8D7AC"/>
<path d="M98.8485 18.2064C98.9257 18.1298 98.9429 18.0362 98.9 17.9341C98.8657 17.832 98.7885 17.781 98.6856 17.781H94.1993C94.0964 17.781 94.0277 17.8405 94.002 17.9511C93.9763 18.0617 94.002 18.1468 94.0878 18.2149C94.5939 18.6233 94.9284 19.1594 95.1086 19.806C95.2887 20.4527 95.263 21.1078 95.0399 21.7715L91.909 30.9693L88.5979 21.814C88.3577 21.1674 88.3406 20.5037 88.5464 19.8315C88.7437 19.1594 89.1212 18.6148 89.6701 18.2064C89.7559 18.1468 89.7817 18.0532 89.7473 17.9426C89.713 17.832 89.6358 17.7724 89.5329 17.7724H81.564C81.4611 17.7724 81.3924 17.8235 81.3495 17.9256C81.3152 18.0277 81.3324 18.1128 81.401 18.1724C82.3446 19.1168 83.0651 20.24 83.5541 21.5418L84.1717 23.269L81.5297 30.9523L78.2701 21.797C78.0299 21.1504 78.0213 20.4867 78.2272 19.8145C78.433 19.1423 78.8105 18.5978 79.3595 18.1894C79.4452 18.1298 79.471 18.0362 79.4367 17.9256C79.4024 17.815 79.3252 17.7554 79.2222 17.7554H71.2533C71.1504 17.7554 71.0817 17.8065 71.0389 17.9086C71.0045 18.0107 71.0217 18.0958 71.0903 18.1553C72.0339 19.0998 72.7459 20.2229 73.2177 21.5248L77.9012 34.5174C77.9441 34.6281 78.0213 34.6791 78.1242 34.6621C79.0249 34.611 79.917 34.611 80.7834 34.6621C80.8863 34.6791 80.9635 34.6281 81.0064 34.5174L84.6864 24.724L88.2805 34.5174C88.3234 34.611 88.392 34.6621 88.4778 34.6621H88.5035C89.4042 34.611 90.2963 34.611 91.1627 34.6621C91.2656 34.6621 91.3428 34.611 91.3857 34.5174L95.872 22.4011C96.5582 20.7505 97.5361 19.3465 98.8485 18.2064Z" fill="#E8D7AC"/>
<path d="M111.96 32.3127C111.96 32.2955 111.951 32.2782 111.934 32.261L106.194 17.0597C106.151 16.9476 106.065 16.8959 105.954 16.9132L100.925 18.0162C100.822 18.0507 100.762 18.111 100.745 18.2058C100.728 18.3006 100.762 18.3781 100.83 18.4471C101.524 19.0072 102.03 19.7311 102.338 20.6101V20.6359C101.773 22.4111 101.396 23.5487 101.182 24.0485L98.9198 30.4858C98.4057 31.9766 97.5832 33.2262 96.4609 34.2344C96.3837 34.312 96.3666 34.4068 96.4095 34.5102C96.4437 34.6136 96.5123 34.6653 96.6236 34.6653C96.7436 34.6653 97.6089 34.6653 99.2197 34.6653H99.9993C100.085 34.6653 100.154 34.6136 100.188 34.5188C100.222 34.424 100.214 34.3378 100.154 34.2516C99.8023 33.838 99.5709 33.3468 99.4681 32.778C99.3653 32.2093 99.3996 31.6578 99.5795 31.1062L100.068 29.6671H105.765L106.322 31.1062C106.511 31.6319 106.562 32.1834 106.468 32.7608C106.374 33.3382 106.142 33.8294 105.774 34.2516C105.714 34.3292 105.705 34.4154 105.74 34.5015C105.774 34.5877 105.842 34.6308 105.928 34.6308H113.065C113.168 34.6308 113.236 34.5791 113.279 34.4843C113.314 34.3895 113.296 34.3033 113.228 34.2172C112.654 33.6915 112.234 33.0452 111.96 32.3127ZM100.359 28.7537L102.818 21.7907L105.431 28.7537H100.359Z" fill="#E8D7AC"/>
<path d="M129.957 31.8086L124.196 23.7332L124.128 23.6394L125.857 21.7122C126.738 20.7486 127.611 20.0067 128.459 19.4865C129.306 18.9749 130.282 18.5996 131.395 18.3779L131.549 18.3523C131.686 18.3353 131.746 18.2585 131.746 18.1136V17.9942C131.746 17.8322 131.668 17.7554 131.523 17.7554H125.429C125.283 17.7554 125.206 17.8322 125.206 17.9942V18.0454C125.206 18.1903 125.266 18.2671 125.386 18.2841L125.626 18.3353C125.934 18.395 126.156 18.4973 126.293 18.6423C126.439 18.8128 126.49 19.0345 126.447 19.2818C126.37 19.7253 125.994 20.3392 125.318 21.1152L121.175 25.7712L120.071 26.9821V21.4222C120.071 20.1516 120.473 19.0601 121.286 18.1392C121.363 18.0795 121.372 17.9942 121.329 17.9004C121.286 17.8066 121.218 17.7554 121.132 17.7554H114.379C114.276 17.7554 114.208 17.8066 114.165 17.9004C114.131 17.9942 114.148 18.0709 114.216 18.1392C115.029 19.0601 115.432 20.1516 115.432 21.4222V30.9729C115.432 32.252 115.029 33.3521 114.216 34.256C114.139 34.3327 114.122 34.418 114.165 34.5203C114.199 34.6141 114.276 34.6653 114.379 34.6653H121.132C121.218 34.6653 121.286 34.6141 121.329 34.5203C121.372 34.4265 121.355 34.3413 121.286 34.256C120.473 33.3521 120.071 32.2606 120.071 30.9729V28.0992L121.064 27.0333L126.405 34.563C126.447 34.6227 126.507 34.6568 126.584 34.6568H131.677C131.763 34.6568 131.831 34.6056 131.874 34.5118C131.917 34.418 131.9 34.3413 131.831 34.273C131.172 33.4715 130.547 32.6528 129.957 31.8086Z" fill="#E8D7AC"/>
<path d="M146.145 29.6663C146.033 29.6153 145.938 29.6493 145.869 29.7598C144.971 31.2476 144.202 32.3018 143.546 32.931C142.829 33.6111 142.051 33.9512 141.196 33.9512H140.479C139.512 33.9512 138.838 33.7386 138.467 33.3135C138.156 32.7269 137.966 32.1063 137.906 31.4432L137.88 31.3496C137.88 31.2901 137.88 31.2051 137.88 31.1116C137.88 30.9841 137.88 30.882 137.88 30.8055V26.4952L139.555 26.5632C140.376 26.5972 140.998 26.7672 141.43 27.0818C141.879 27.3794 142.224 27.915 142.483 28.6971C142.509 28.8076 142.587 28.8586 142.716 28.8416C142.846 28.8246 142.906 28.7481 142.906 28.6036V23.7661C142.906 23.6386 142.846 23.5621 142.716 23.5451C142.587 23.5196 142.509 23.5706 142.483 23.6981C142.215 24.4888 141.87 25.0329 141.455 25.3304C141.041 25.611 140.402 25.7725 139.555 25.8065L137.88 25.9001V18.5801H140.428C141.516 18.5801 142.354 18.8607 142.95 19.4133C143.502 19.9319 144.072 20.9011 144.668 22.3038C144.712 22.4314 144.798 22.4739 144.91 22.4484L144.979 22.4229C145.1 22.4059 145.161 22.3293 145.161 22.1848C145.135 21.3942 145.109 20.646 145.092 19.9319C145.092 19.2687 145.1 18.6226 145.117 17.9935C145.117 17.934 145.092 17.8745 145.048 17.8234C145.005 17.7724 144.953 17.7554 144.893 17.7554H132.136C132.033 17.7554 131.964 17.8064 131.92 17.9C131.886 17.9935 131.903 18.0785 131.972 18.1635C132.793 19.0817 133.199 20.1699 133.199 21.4367V30.9841C133.199 32.2593 132.793 33.356 131.972 34.2572C131.894 34.3337 131.877 34.4188 131.92 34.5208C131.955 34.6143 132.024 34.6653 132.136 34.6653H145.273C145.411 34.6653 145.472 34.5973 145.472 34.4528C145.515 33.9342 145.601 33.3135 145.713 32.6079C145.834 31.8938 146.007 31.0096 146.249 29.9554C146.301 29.8023 146.258 29.7173 146.145 29.6663Z" fill="#E8D7AC"/>
<path d="M162.954 17.7554H159.921C159.819 17.7554 159.751 17.8062 159.708 17.8992C159.674 17.9923 159.691 18.0769 159.759 18.1615C160.549 19.0581 160.957 20.124 160.966 21.3675L161.034 28.8877V29.3107L153.03 17.8569C152.988 17.7977 152.928 17.7639 152.852 17.7639L147.338 17.7893C147.253 17.7893 147.185 17.8316 147.143 17.9162C147.1 18.0008 147.109 18.0853 147.168 18.1615L148.638 20.0225V31.1717C148.595 32.3644 148.188 33.3964 147.432 34.2593C147.372 34.3354 147.364 34.4284 147.398 34.5215C147.432 34.6146 147.5 34.6653 147.584 34.6653H150.643C150.728 34.6653 150.796 34.6146 150.83 34.5215C150.864 34.4284 150.855 34.3439 150.796 34.2593C149.989 33.3457 149.59 32.2629 149.59 31.0025C149.59 30.9856 149.581 30.9686 149.564 30.9517L149.522 21.5959L149.496 21.1729L158.621 34.4961C158.663 34.5553 158.723 34.5892 158.799 34.5892L161.679 34.5638C161.824 34.5638 161.9 34.4961 161.9 34.3523V21.4098C161.9 20.1494 162.3 19.0666 163.107 18.153C163.183 18.0769 163.2 17.9923 163.158 17.8908C163.124 17.7977 163.056 17.7554 162.954 17.7554Z" fill="#E8D7AC"/>
<path d="M179.123 29.6663C179.011 29.6153 178.916 29.6493 178.847 29.7598C177.948 31.2476 177.179 32.3018 176.523 32.931C175.806 33.6111 175.028 33.9512 174.173 33.9512H173.456C172.488 33.9512 171.815 33.7386 171.443 33.3135C171.132 32.7269 170.942 32.1063 170.882 31.4432L170.856 31.3496C170.856 31.2901 170.856 31.2051 170.856 31.1116C170.856 30.9841 170.856 30.882 170.856 30.8055V26.4952L172.532 26.5632C173.352 26.5972 173.974 26.7672 174.406 27.0818C174.856 27.3794 175.201 27.915 175.46 28.6971C175.486 28.8076 175.564 28.8586 175.693 28.8416C175.823 28.8246 175.884 28.7481 175.884 28.6036V23.7661C175.884 23.6386 175.823 23.5621 175.693 23.5451C175.564 23.5196 175.486 23.5706 175.46 23.6981C175.192 24.4888 174.847 25.0329 174.432 25.3304C174.018 25.611 173.378 25.7725 172.532 25.8065L170.856 25.9001V18.5801H173.404C174.493 18.5801 175.331 18.8607 175.927 19.4133C176.48 19.9319 177.05 20.9011 177.646 22.3038C177.689 22.4314 177.776 22.4739 177.888 22.4484L177.957 22.4229C178.078 22.4059 178.138 22.3293 178.138 22.1848C178.104 21.3942 178.087 20.646 178.069 19.9319C178.069 19.2687 178.078 18.6226 178.095 17.9935C178.095 17.934 178.069 17.8745 178.026 17.8234C177.983 17.7724 177.931 17.7554 177.871 17.7554H165.111C165.007 17.7554 164.938 17.8064 164.895 17.9C164.86 17.9935 164.877 18.0785 164.946 18.1635C165.767 19.0817 166.173 20.1699 166.173 21.4367V30.9841C166.173 32.2593 165.767 33.356 164.946 34.2572C164.869 34.3337 164.851 34.4188 164.895 34.5208C164.929 34.6143 164.998 34.6653 165.111 34.6653H178.251C178.389 34.6653 178.449 34.5973 178.449 34.4528C178.493 33.9342 178.579 33.3135 178.691 32.6079C178.812 31.8938 178.985 31.0096 179.227 29.9554C179.27 29.8023 179.236 29.7173 179.123 29.6663Z" fill="#E8D7AC"/>
<path d="M194.24 20.0456C192.394 18.5413 189.89 17.7808 186.719 17.7808C186.677 17.7808 186.6 17.7723 186.497 17.7554C186.027 17.7554 185.583 17.7639 185.173 17.7808H180.327C180.224 17.7808 180.156 17.8315 180.113 17.9245C180.079 18.0174 180.096 18.0935 180.165 18.1611C180.976 19.0737 181.378 20.1554 181.378 21.4146V25.6315C181.378 25.6484 181.387 25.6653 181.404 25.6822V26.7639C181.387 26.7808 181.378 26.7977 181.378 26.8146V31.0315C181.378 32.2907 180.976 33.3723 180.165 34.285C180.088 34.3442 180.071 34.4287 180.113 34.5216C180.147 34.6146 180.216 34.6653 180.327 34.6653H187.429C190.334 34.6653 192.65 33.8963 194.394 32.3583C196.137 30.8033 197 28.7752 197 26.2822C197 23.6456 196.077 21.5667 194.24 20.0456ZM191.078 32.2484C190.369 33.4061 189.36 33.9892 188.053 33.9892C187.3 33.9892 186.771 33.7695 186.463 33.3301C186.164 32.9245 186.019 32.2146 186.019 31.209V18.3977H186.155C188.01 18.5583 189.48 19.4456 190.557 21.0597C191.616 22.6737 192.146 24.7949 192.146 27.4146C192.138 29.5104 191.779 31.116 191.078 32.2484Z" fill="#E8D7AC"/>
<path d="M61.2668 49.2311C58.929 49.2311 57.3162 47.4537 57.3162 45.2381C57.3162 43.0225 58.929 41.2451 61.2668 41.2451C62.6596 41.2451 63.8977 41.9891 64.476 43.0969L65.0707 42.7497C64.3376 41.4352 62.904 40.5837 61.2668 40.5837C58.5625 40.5837 56.6483 42.6588 56.6483 45.2298C56.6483 47.8091 58.5625 49.8842 61.2668 49.8842C62.9284 49.8842 64.3783 49.0079 65.1032 47.6851L64.5086 47.3379C63.9222 48.4705 62.6759 49.2311 61.2668 49.2311Z" fill="#FFFAF5"/>
<path d="M75.6719 40.5837C73.0655 40.5837 71.0217 42.6588 71.0217 45.2298C71.0217 47.8091 73.0737 49.8842 75.6719 49.8842C78.2783 49.8842 80.3221 47.8091 80.3221 45.2298C80.3304 42.6588 78.2783 40.5837 75.6719 40.5837ZM75.6719 49.2228C73.4378 49.2228 71.7002 47.4454 71.7002 45.2298C71.7002 43.0142 73.4378 41.2368 75.6719 41.2368C77.906 41.2368 79.6436 43.0142 79.6436 45.2298C79.6436 47.4454 77.906 49.2228 75.6719 49.2228Z" fill="#FFFAF5"/>
<path d="M86.9459 41.4293H86.2406V50.7297H91.3135V50.0648H86.9459V41.4293Z" fill="#FFFAF5"/>
<path d="M97.0845 41.4293H96.3865V50.7297H101.459V50.0648H97.0845V41.4293Z" fill="#FFFAF5"/>
<path d="M108.048 46.3736H112.079V45.7086H108.048V42.0942H112.386V41.4293H107.378V50.7297H112.451V50.0648H108.048V46.3736Z" fill="#FFFAF5"/>
<path d="M122.142 49.2311C119.805 49.2311 118.192 47.4537 118.192 45.2381C118.192 43.0225 119.805 41.2451 122.142 41.2451C123.535 41.2451 124.773 41.9891 125.352 43.0969L125.946 42.7497C125.213 41.4352 123.78 40.5837 122.142 40.5837C119.438 40.5837 117.524 42.6588 117.524 45.2298C117.524 47.8091 119.438 49.8842 122.142 49.8842C123.804 49.8842 125.254 49.0079 125.979 47.6851L125.384 47.3379C124.798 48.4705 123.551 49.2311 122.142 49.2311Z" fill="#FFFAF5"/>
<path d="M131.052 42.0942H134.065V50.7297H134.803V42.0942H137.816V41.4293H131.052V42.0942Z" fill="#FFFAF5"/>
<path d="M143.734 41.4293H142.889V50.7297H143.734V41.4293Z" fill="#FFFAF5"/>
<path d="M152.616 49.809L149.576 41.4293H148.807L152.244 50.7297H152.979L156.417 41.4293H155.665L152.616 49.809Z" fill="#FFFAF5"/>
<path d="M162.16 50.0648V46.3736H166.183V45.7086H162.16V42.0942H166.498V41.4293H161.49V50.7297H166.562V50.0648H162.16Z" fill="#FFFAF5"/>
<path d="M24.9421 10.9914C26.1094 10.9914 27.0558 9.6665 27.0558 8.03216C27.0558 6.39783 26.1094 5.07294 24.9421 5.07294C23.7747 5.07294 22.8283 6.39783 22.8283 8.03216C22.8283 9.6665 23.7747 10.9914 24.9421 10.9914Z" fill="#FFFAF5"/>
<path d="M25.7876 15.2189L29.6779 11.41C31.8184 9.31429 31.8184 5.89628 29.6779 3.80056L25.7876 0L21.8972 3.80888C19.7567 5.9046 19.7567 9.32261 21.8972 11.4183L25.7876 15.2189ZM23.1968 5.07296L25.7876 2.53648L28.3783 5.07296C29.8053 6.4701 29.8053 8.74878 28.3783 10.1459L25.7876 12.6824L23.1968 10.1459C21.7698 8.74878 21.7698 6.4701 23.1968 5.07296Z" fill="#E8D7AC"/>
<path d="M46.8573 21.4695C45.9864 20.5979 44.8873 20.0818 43.7458 19.921C43.5598 19.2779 43.34 18.6518 43.0864 18.0426C41.3615 13.8202 38.1487 10.2918 33.8789 8.1679L32.7629 7.6179L32.5684 8.85329C32.3993 9.94483 31.985 10.9687 31.3594 11.8741C31.1142 12.221 30.8351 12.5595 30.5223 12.8725L29.2287 14.1587L27.9436 15.4449L26.65 16.7395L25.3648 18.0256L22.786 15.4449L20.2073 12.8641C19.9029 12.5595 19.6239 12.221 19.3787 11.8656L19.328 11.7895C18.7277 10.9095 18.3303 9.91944 18.1612 8.84482L17.9667 7.60944L16.8507 8.15944C12.5809 10.2833 9.35961 13.8033 7.63481 18.0341C7.38961 18.6518 7.16979 19.2779 6.97532 19.9126C5.80009 20.0733 4.71785 20.6064 3.86391 21.461L0 25.3449L3.87236 29.2203C4.75168 30.1003 5.85081 30.6165 6.99223 30.7688C7.17824 31.4118 7.40652 32.038 7.66017 32.6472C9.6048 37.3519 13.3673 41.1257 18.0682 43.0634C18.677 43.3173 19.3026 43.5373 19.9452 43.7234C20.1058 44.908 20.6385 45.9911 21.5009 46.8542L25.3648 50.7296L29.2372 46.8542C30.1165 45.9742 30.6322 44.8742 30.7844 43.7234C31.427 43.5373 32.0527 43.3088 32.653 43.0634C37.3539 41.1173 41.1164 37.3519 43.061 32.6472C43.3146 32.038 43.5345 31.4118 43.7289 30.7688C44.9042 30.608 45.9948 30.0749 46.8573 29.2203L50.7296 25.3449L46.8573 21.4695ZM34.0903 10.3594C37.2863 12.221 39.7467 14.9964 41.2009 18.2626C41.4461 18.821 41.6659 19.3964 41.8604 19.9887C41.2685 20.1072 40.6851 20.3356 40.1525 20.6572C39.9665 20.0733 39.7467 19.4895 39.493 18.9395C38.2163 16.1218 36.111 13.7187 33.3801 12.0602C33.6676 11.5187 33.9127 10.9518 34.0903 10.3594ZM30.5223 15.4449L31.8159 14.1502C32.0019 13.9641 32.171 13.7779 32.3317 13.5748C32.3401 13.5748 32.3401 13.5664 32.3401 13.5664C34.902 15.0895 36.8551 17.3656 37.9711 20.031C38.2332 20.6572 38.4446 21.3003 38.6137 21.9603L38.0472 22.5272L36.5253 24.0503L29.2203 16.731L30.5223 15.4449ZM9.53717 18.2626C10.9914 14.9879 13.4433 12.221 16.6393 10.3594C16.8169 10.9518 17.0621 11.5187 17.358 12.0602C14.627 13.7102 12.5218 16.1133 11.2451 18.9395C10.9914 19.4979 10.7716 20.0733 10.5856 20.6656C10.0614 20.3441 9.48644 20.1156 8.87768 19.9887C9.06369 19.3964 9.28352 18.821 9.53717 18.2626ZM6.52721 28.7887C6.02837 28.6111 5.56335 28.3234 5.16597 27.9257L2.57875 25.3449L5.15751 22.7557C5.54644 22.3664 6.01146 22.0703 6.51875 21.901C6.37502 22.671 6.28201 23.458 6.23974 24.2533C6.21438 24.6087 6.20592 24.9726 6.20592 25.3364C6.20592 25.7003 6.21438 26.0641 6.23974 26.428L6.44266 26.631C6.63713 26.8257 6.86541 26.9695 7.12751 27.0626C7.32197 27.1303 7.52489 27.1641 7.73627 27.1641C7.84618 27.1641 7.96455 27.1557 8.07447 27.1303C8.09138 27.1303 8.10828 27.1218 8.11674 27.1218C8.05755 26.538 8.02373 25.9372 8.02373 25.3364C8.02373 24.7357 8.05755 24.1433 8.11674 23.551C8.17592 22.9418 8.26893 22.341 8.39575 21.7403C9.02142 21.8587 9.60481 22.138 10.0952 22.5526C10.1713 22.6118 10.2389 22.6795 10.3066 22.7472L11.6002 24.0418L11.7524 23.8895L12.8938 22.7472L12.099 21.9518C12.2681 21.2918 12.4795 20.6487 12.7416 20.0226C13.8576 17.3572 15.8107 15.081 18.3726 13.5579C18.5417 13.761 18.7192 13.9556 18.9137 14.1418L20.1988 15.4279L21.484 16.7141L12.9022 25.3449L11.7354 26.5126L10.3235 27.9257C10.2558 27.9934 10.1797 28.0611 10.1121 28.1203C9.61326 28.5434 9.02987 28.8141 8.41266 28.9326C7.77854 29.0511 7.12751 29.0003 6.52721 28.7887ZM20.0213 41.8365C19.4379 41.6419 18.863 41.4219 18.3049 41.168C14.4241 39.4249 11.2958 36.2942 9.55408 32.4103C9.30889 31.8518 9.0806 31.2765 8.89459 30.6926C9.48643 30.5657 10.0614 30.3457 10.594 30.0241C10.78 30.6164 10.9999 31.1918 11.2535 31.7503C12.8092 35.1603 15.5655 37.9188 18.9729 39.4757C19.5309 39.7296 20.1058 39.9496 20.6977 40.1357C20.3679 40.6688 20.1397 41.2357 20.0213 41.8365ZM28.806 44.1973C28.6369 44.6965 28.3494 45.1619 27.952 45.5596L25.3648 48.1488L22.786 45.568C22.3971 45.1788 22.1012 44.7134 21.9236 44.2057C22.693 44.3496 23.4794 44.4427 24.2741 44.485C24.6292 44.5104 24.9928 44.5188 25.3563 44.5188V42.6911C24.756 42.6911 24.1642 42.6573 23.5724 42.598C22.9636 42.5388 22.3633 42.4373 21.7715 42.3188C21.8898 41.6926 22.1688 41.1088 22.5831 40.618C22.6423 40.5503 22.71 40.4742 22.7776 40.4149L24.0712 39.1203L22.7776 37.8257L21.9828 38.6211C21.3233 38.4519 20.6808 38.2403 20.0636 37.978C16.7746 36.5903 14.1367 33.9503 12.75 30.6588C12.4879 30.0326 12.2766 29.398 12.1075 28.7295L12.6655 28.1626L14.1874 26.6395L25.3648 37.8172L26.5316 38.9849L27.952 40.4065C28.0197 40.4742 28.0788 40.5419 28.1465 40.6096C28.5777 41.1088 28.8398 41.6926 28.9582 42.3103C29.0681 42.9365 29.0173 43.5965 28.806 44.1973ZM41.184 32.4188C39.4423 36.3026 36.3139 39.4334 32.4331 41.1765C31.8751 41.4219 31.3002 41.6503 30.7168 41.8365C30.59 41.2442 30.3701 40.6688 30.0488 40.1357C30.6407 39.9496 31.2156 39.7296 31.7652 39.4757C35.1725 37.9188 37.9288 35.1688 39.4845 31.7503C39.7382 31.1918 39.958 30.6164 40.144 30.0241C40.6682 30.3457 41.2347 30.5657 41.8435 30.6926C41.649 31.2849 41.4292 31.8603 41.184 32.4188ZM45.5721 27.9257C45.1747 28.3149 44.7182 28.6111 44.2109 28.7887C44.3546 28.0187 44.4476 27.2318 44.4899 26.4364C44.5152 26.081 44.5237 25.7087 44.5237 25.3449C44.5237 24.981 44.5152 24.6172 44.4899 24.2618L44.287 24.0587C44.0925 23.8641 43.8642 23.7203 43.619 23.6357C43.4161 23.568 43.2047 23.5257 43.0018 23.5257C42.8834 23.5257 42.7735 23.5341 42.6636 23.5595C42.6467 23.5595 42.6298 23.568 42.6129 23.568C42.6721 24.1518 42.7059 24.7526 42.7059 25.3534C42.7059 25.9541 42.6721 26.5549 42.6129 27.1387C42.5452 27.748 42.4522 28.3487 42.3339 28.9411C41.7082 28.8226 41.1248 28.5434 40.6344 28.1203C40.5583 28.0611 40.4907 27.9934 40.423 27.9257L39.1294 26.6395L38.9773 26.7918L37.8443 27.9341L38.6306 28.7295C38.4615 29.3895 38.2501 30.0326 37.988 30.6588C36.6014 33.9418 33.9635 36.5819 30.683 37.978C30.0658 38.2403 29.4147 38.4603 28.7552 38.6211L28.1972 38.0626L25.3648 35.2449V35.2365L22.786 32.6557L15.4725 25.3449L22.7776 18.0341L23.4286 18.6772L25.3648 20.6149L26.0158 21.2579L30.0911 25.3449L26.65 28.7887L27.9351 30.0749L32.6699 25.3449L26.65 19.3202L27.9351 18.0341L35.2571 25.3449L27.952 32.6557L27.1403 31.8434L24.7307 29.4318L24.6884 29.3895L20.6385 25.3449L24.0797 21.901L22.7945 20.6064L18.0597 25.3449L27.952 35.2449L37.8274 25.3449L40.4061 22.7641C40.4738 22.6964 40.5499 22.6287 40.6175 22.5695C41.1164 22.1464 41.7082 21.8756 42.317 21.7572C42.9426 21.6387 43.5936 21.6895 44.2024 21.9095C44.7012 22.0787 45.1663 22.3664 45.5636 22.7641L48.1424 25.3449L45.5721 27.9257Z" fill="#E8D7AC"/>
</svg>
