<svg width="61" height="60" viewBox="0 0 61 60" fill="none" xmlns="http://www.w3.org/2000/svg">
<path d="M30.0069 12.7498C31.4981 12.7498 32.7069 11.138 32.7069 9.14981C32.7069 7.16158 31.4981 5.5498 30.0069 5.5498C28.5157 5.5498 27.3069 7.16158 27.3069 9.14981C27.3069 11.138 28.5157 12.7498 30.0069 12.7498Z" fill="#FFFAF5"/>
<path d="M30.0069 18.3L34.5869 13.72C37.1069 11.2 37.1069 7.09 34.5869 4.57L30.0069 0L25.4269 4.58C22.9069 7.1 22.9069 11.21 25.4269 13.73L30.0069 18.3ZM26.9569 6.1L30.0069 3.05L33.0569 6.1C34.7369 7.78 34.7369 10.52 33.0569 12.2L30.0069 15.25L26.9569 12.2C25.2769 10.52 25.2769 7.78 26.9569 6.1Z" fill="#E8D7AC"/>
<path d="M55.4268 25.42C54.3968 24.39 53.0968 23.78 51.7468 23.59C51.5268 22.83 51.2669 22.09 50.9669 21.37C48.9269 16.38 45.1268 12.21 40.0768 9.70004L38.7568 9.05004L38.5269 10.51C38.3269 11.8 37.8369 13.01 37.0969 14.08C36.8069 14.49 36.4768 14.89 36.1068 15.26L34.5768 16.78L33.0568 18.3L31.5269 19.83L30.0068 21.35L26.9568 18.3L23.9069 15.25C23.5469 14.89 23.2168 14.49 22.9268 14.07L22.8668 13.98C22.1568 12.94 21.6868 11.77 21.4868 10.5L21.2568 9.04004L19.9368 9.69004C14.8868 12.2 11.0769 16.36 9.03687 21.36C8.74687 22.09 8.48684 22.83 8.25684 23.58C6.86684 23.77 5.58684 24.4 4.57684 25.41L0.00683594 30L4.58685 34.58C5.62685 35.62 6.92686 36.23 8.27686 36.41C8.49686 37.17 8.76683 37.91 9.06683 38.63C11.3668 44.19 15.8168 48.65 21.3768 50.94C22.0968 51.24 22.8369 51.5 23.5969 51.72C23.7869 53.12 24.4168 54.4 25.4368 55.42L30.0068 60L34.5869 55.42C35.6269 54.38 36.2368 53.08 36.4168 51.72C37.1768 51.5 37.9168 51.23 38.6268 50.94C44.1868 48.64 48.6368 44.19 50.9368 38.63C51.2368 37.91 51.4968 37.17 51.7268 36.41C53.1168 36.22 54.4068 35.59 55.4268 34.58L60.0068 30L55.4268 25.42ZM40.3268 12.29C44.1068 14.49 47.0168 17.77 48.7368 21.63C49.0268 22.29 49.2868 22.97 49.5168 23.67C48.8168 23.81 48.1268 24.08 47.4968 24.46C47.2768 23.77 47.0169 23.08 46.7169 22.43C45.2069 19.1 42.7168 16.26 39.4868 14.3C39.8268 13.66 40.1168 12.99 40.3268 12.29ZM36.1068 18.3L37.6368 16.77C37.8568 16.55 38.0568 16.33 38.2468 16.09C38.2568 16.09 38.2568 16.08 38.2568 16.08C41.2868 17.88 43.5968 20.57 44.9168 23.72C45.2268 24.46 45.4768 25.22 45.6768 26L45.0068 26.67L43.2068 28.47L34.5668 19.82L36.1068 18.3ZM11.2869 21.63C12.9969 17.76 15.9068 14.49 19.6868 12.29C19.8968 12.99 20.1869 13.66 20.5369 14.3C17.3069 16.25 14.8168 19.09 13.3068 22.43C13.0068 23.09 12.7469 23.77 12.5269 24.47C11.9069 24.09 11.2268 23.82 10.5068 23.67C10.7268 22.97 10.9869 22.29 11.2869 21.63ZM7.72681 34.07C7.13681 33.86 6.58682 33.52 6.11682 33.05L3.05682 30L6.10681 26.94C6.56681 26.48 7.11686 26.13 7.71686 25.93C7.54686 26.84 7.43684 27.77 7.38684 28.71C7.35684 29.13 7.34686 29.56 7.34686 29.99C7.34686 30.42 7.35684 30.85 7.38684 31.28L7.62683 31.52C7.85683 31.75 8.12683 31.92 8.43683 32.03C8.66683 32.11 8.90686 32.15 9.15686 32.15C9.28686 32.15 9.42682 32.14 9.55682 32.11C9.57682 32.11 9.59681 32.1 9.60681 32.1C9.53681 31.41 9.49683 30.7 9.49683 29.99C9.49683 29.28 9.53681 28.58 9.60681 27.88C9.67681 27.16 9.78683 26.45 9.93683 25.74C10.6768 25.88 11.3668 26.21 11.9468 26.7C12.0368 26.77 12.1168 26.85 12.1968 26.93L13.7268 28.46L13.9069 28.28L15.2568 26.93L14.3168 25.99C14.5168 25.21 14.7668 24.45 15.0768 23.71C16.3968 20.56 18.7068 17.87 21.7368 16.07C21.9368 16.31 22.1468 16.54 22.3768 16.76L23.8969 18.28L25.4168 19.8L15.2668 30L13.8868 31.38L12.2169 33.05C12.1369 33.13 12.0469 33.21 11.9669 33.28C11.3769 33.78 10.6868 34.1 9.95685 34.24C9.20685 34.38 8.43681 34.32 7.72681 34.07ZM23.6868 49.49C22.9968 49.26 22.3169 49 21.6469 48.7C17.0569 46.64 13.3568 42.94 11.2968 38.35C11.0068 37.69 10.7368 37.01 10.5168 36.32C11.2168 36.17 11.8969 35.91 12.5269 35.53C12.7469 36.23 13.0068 36.91 13.3068 37.57C15.1468 41.6 18.4068 44.86 22.4368 46.7C23.0968 47 23.7768 47.26 24.4768 47.48C24.0968 48.11 23.8268 48.78 23.6868 49.49ZM34.0768 52.28C33.8768 52.87 33.5368 53.42 33.0668 53.89L30.0168 56.94L26.9669 53.89C26.5069 53.43 26.1568 52.88 25.9468 52.28C26.8568 52.45 27.7868 52.56 28.7268 52.61C29.1468 52.64 29.5768 52.65 30.0068 52.65V50.49C29.2968 50.49 28.5969 50.45 27.8969 50.38C27.1769 50.31 26.4668 50.19 25.7668 50.05C25.9068 49.31 26.2368 48.62 26.7268 48.04C26.7968 47.96 26.8768 47.87 26.9568 47.8L28.4868 46.27L26.9568 44.74L26.0168 45.68C25.2368 45.48 24.4768 45.23 23.7468 44.92C19.8568 43.28 16.7369 40.16 15.0969 36.27C14.7869 35.53 14.5369 34.78 14.3369 33.99L14.9968 33.32L16.7968 31.52L30.0068 44.74L31.3868 46.12L33.0668 47.8C33.1468 47.88 33.2168 47.96 33.2968 48.04C33.8068 48.63 34.1168 49.32 34.2568 50.05C34.3868 50.79 34.3268 51.57 34.0768 52.28ZM48.7169 38.36C46.6569 42.95 42.9568 46.65 38.3668 48.71C37.7068 49 37.0269 49.27 36.3369 49.49C36.1869 48.79 35.9268 48.11 35.5468 47.48C36.2468 47.26 36.9268 47 37.5768 46.7C41.6068 44.86 44.8668 41.61 46.7068 37.57C47.0068 36.91 47.2668 36.23 47.4868 35.53C48.1068 35.91 48.7768 36.17 49.4968 36.32C49.2668 37.02 49.0069 37.7 48.7169 38.36ZM53.9069 33.05C53.4369 33.51 52.8968 33.86 52.2968 34.07C52.4668 33.16 52.5768 32.23 52.6268 31.29C52.6568 30.87 52.6668 30.43 52.6668 30C52.6668 29.57 52.6568 29.14 52.6268 28.72L52.3868 28.48C52.1568 28.25 51.8869 28.08 51.5969 27.98C51.3569 27.9 51.1068 27.85 50.8668 27.85C50.7268 27.85 50.5969 27.86 50.4669 27.89C50.4469 27.89 50.4269 27.9 50.4069 27.9C50.4769 28.59 50.5168 29.3 50.5168 30.01C50.5168 30.72 50.4769 31.43 50.4069 32.12C50.3269 32.84 50.2168 33.55 50.0768 34.25C49.3368 34.11 48.6468 33.78 48.0668 33.28C47.9768 33.21 47.8968 33.13 47.8168 33.05L46.2869 31.53L46.1068 31.71L44.7668 33.06L45.6968 34C45.4968 34.78 45.2468 35.54 44.9368 36.28C43.2968 40.16 40.1768 43.28 36.2968 44.93C35.5668 45.24 34.7968 45.5 34.0168 45.69L33.3568 45.03L30.0068 41.7V41.69L26.9568 38.64L18.3068 30L26.9468 21.36L27.7169 22.12L30.0068 24.41L30.7769 25.17L35.6068 30L31.5369 34.07L33.0568 35.59L38.6469 30L31.5269 22.88L33.0468 21.36L41.7068 30L33.0668 38.64L32.1068 37.68L29.2568 34.83L29.2068 34.78L24.4168 30L28.4868 25.93L26.9669 24.4L21.3668 30L33.0668 41.7L44.7468 30L47.7968 26.95C47.8768 26.87 47.9668 26.79 48.0468 26.72C48.6368 26.22 49.3368 25.9 50.0568 25.76C50.7968 25.62 51.5669 25.68 52.2869 25.94C52.8769 26.14 53.4268 26.48 53.8969 26.95L56.9468 30L53.9069 33.05Z" fill="#E8D7AC"/>
</svg>
