<svg width="114" height="12" viewBox="0 0 114 12" fill="none" xmlns="http://www.w3.org/2000/svg">
<path d="M69.2698 8.58C67.619 8.58 66.4603 7.44 66.4603 6C66.4603 4.575 67.6032 3.42 69.2698 3.42C70.254 3.42 71.1429 3.9 71.5556 4.62L71.9841 4.395C71.4603 3.54 70.4444 3 69.2857 3C67.3651 3 66 4.335 66 6C66 7.665 67.3651 9 69.2857 9C70.4603 9 71.4921 8.43 72 7.575L71.5714 7.35C71.1429 8.085 70.2698 8.58 69.2698 8.58Z" fill="#FFFAF5"/>
<path d="M76 3C74.3171 3 73 4.335 73 6C73 7.665 74.3171 9 76 9C77.6829 9 79 7.665 79 6C79 4.335 77.6829 3 76 3ZM76 8.58C74.5659 8.58 73.439 7.44 73.439 6C73.439 4.575 74.5659 3.42 76 3.42C77.4342 3.42 78.561 4.56 78.561 6C78.561 7.425 77.4342 8.58 76 8.58Z" fill="#FFFAF5"/>
<path d="M80.5505 3H80V9H84V8.56701H80.5505V3Z" fill="#FFFAF5"/>
<path d="M84.5505 3H84V9H88V8.56701H84.5505V3Z" fill="#FFFAF5"/>
<path d="M88.524 6.18557H91.7031V5.75258H88.524V3.43299H91.9476V3H88V9H92V8.56701H88.524V6.18557Z" fill="#FFFAF5"/>
<path d="M95.2698 8.58C93.619 8.58 92.4603 7.44 92.4603 6C92.4603 4.575 93.6032 3.42 95.2698 3.42C96.254 3.42 97.127 3.9 97.5556 4.62L97.9841 4.395C97.4603 3.54 96.4444 3 95.2857 3C93.3651 3 92 4.335 92 6C92 7.665 93.3651 9 95.2857 9C96.4603 9 97.4921 8.43 98 7.575L97.5556 7.35C97.1429 8.085 96.2698 8.58 95.2698 8.58Z" fill="#FFFAF5"/>
<path d="M98 3.43299H99.7857V9H100.229V3.43299H102V3H98V3.43299Z" fill="#FFFAF5"/>
<path d="M105 3H104V9H105V3Z" fill="#FFFAF5"/>
<path d="M107.5 8.41237L105.503 3H105L107.256 9H107.744L110 3H109.512L107.5 8.41237Z" fill="#FFFAF5"/>
<path d="M110.524 8.56701V6.18557H113.703V5.75258H110.524V3.43299H113.948V3H110V9H114V8.56701H110.524Z" fill="#FFFAF5"/>
<path d="M5.52281 8.19076V8.17577L3.48313 3.05058C3.46744 3.00562 3.43606 2.99063 3.389 3.00562L1.60036 3.38027C1.56898 3.39525 1.5376 3.41024 1.5376 3.44021C1.5376 3.47018 1.5376 3.50016 1.56898 3.51514C1.82002 3.70996 1.9926 3.94973 2.10243 4.24945V4.26444C1.89846 4.86388 1.77295 5.25351 1.6945 5.41836L0.894318 7.57633C0.706041 8.08586 0.423624 8.50546 0.0156898 8.83516C0 8.88011 0 8.91008 0 8.94006C0.0156898 8.97003 0.0313796 9 0.078449 9H1.00415H1.28656C1.31794 9 1.33363 8.98501 1.34932 8.95504C1.36501 8.92507 1.36501 8.8951 1.33363 8.86513C1.20811 8.73025 1.12967 8.56541 1.0826 8.37059C1.05122 8.17577 1.05122 7.99594 1.12967 7.80112L1.30225 7.32157H3.32624L3.5302 7.80112C3.59296 7.98096 3.60865 8.16079 3.57727 8.3556C3.54589 8.55042 3.45175 8.71527 3.32624 8.85014C3.31055 8.88011 3.29486 8.91008 3.31055 8.94006C3.32624 8.97003 3.34193 8.98501 3.37331 8.98501H5.91505C5.94643 8.98501 5.97781 8.97003 5.9935 8.94006C6.00919 8.91008 5.9935 8.88011 5.97781 8.85014C5.77384 8.65532 5.63264 8.44552 5.52281 8.19076ZM1.41208 7.00687L2.29071 4.65407L3.21641 7.00687H1.41208Z" fill="#FFFAF5"/>
<path d="M14.9738 4.15529C15.0054 4.12423 15.0054 4.09317 14.9896 4.06212C14.9738 4.03106 14.958 4 14.9105 4H13.3126C13.2809 4 13.2493 4.01553 13.2335 4.06212C13.2177 4.1087 13.2335 4.13976 13.2651 4.15529C13.4391 4.29505 13.5657 4.4814 13.629 4.71433C13.6923 4.94727 13.6923 5.1802 13.5974 5.41313L12.4741 8.67422L11.2875 5.42866C11.2084 5.19573 11.1926 4.9628 11.2717 4.72986C11.3508 4.49693 11.4773 4.29505 11.6672 4.15529C11.6988 4.13976 11.7147 4.1087 11.6988 4.06212C11.683 4.01553 11.6672 4 11.6197 4H8.77195C8.74031 4 8.70867 4.01553 8.69285 4.06212C8.67703 4.09317 8.69285 4.12423 8.70867 4.15529C9.04091 4.49693 9.30987 4.88515 9.4839 5.35102L9.70539 5.95665L8.75613 8.67422L7.58538 5.42866C7.50627 5.19573 7.49045 4.9628 7.56956 4.72986C7.64866 4.49693 7.77523 4.29505 7.9809 4.15529C8.01254 4.13976 8.02837 4.1087 8.01254 4.06212C7.99672 4.01553 7.9809 4 7.93344 4H5.08566C5.05402 4 5.02237 4.01553 5.00655 4.06212C4.99073 4.1087 5.00655 4.12423 5.02237 4.15529C5.35462 4.49693 5.60775 4.88515 5.78178 5.35102L7.45881 9.94759C7.47463 9.99418 7.50627 10.0097 7.53791 9.99418C7.85433 9.97865 8.17075 9.97865 8.48717 9.99418C8.51882 9.99418 8.55046 9.97865 8.56628 9.94759L9.87942 6.48463L11.2084 9.94759C11.2242 9.97865 11.2559 9.99418 11.2875 9.99418H11.3033C11.6197 9.97865 11.9362 9.97865 12.2526 9.99418C12.2842 9.99418 12.3159 9.97865 12.3317 9.94759L13.9296 5.6616C14.1511 5.05597 14.4992 4.55904 14.9738 4.15529Z" fill="#FFFAF5"/>
<path d="M19.5236 8.19076V8.17577L17.4875 3.05058C17.4718 3.00562 17.4405 2.99063 17.3935 3.00562L15.6079 3.38027C15.5766 3.39525 15.5453 3.41024 15.5453 3.44021C15.5453 3.47018 15.5453 3.50016 15.5766 3.51514C15.8272 3.70996 15.9995 3.94973 16.1091 4.24945V4.26444C15.9055 4.86388 15.7802 5.25351 15.7019 5.41836L14.9031 7.59132C14.7151 8.10084 14.4332 8.52045 14.026 8.85014C13.9946 8.88011 13.9946 8.91008 14.0103 8.94006C14.026 8.97003 14.0416 9 14.0886 9H15.0127H15.2946C15.326 9 15.3416 8.98501 15.3573 8.95504C15.373 8.92507 15.373 8.8951 15.3416 8.86513C15.2163 8.73025 15.138 8.56541 15.091 8.37059C15.044 8.17577 15.0754 7.99594 15.138 7.80112L15.3103 7.32157H17.3308L17.5344 7.80112C17.5971 7.98096 17.6128 8.16079 17.5814 8.3556C17.5501 8.55042 17.4718 8.71527 17.3308 8.85014C17.3152 8.88011 17.2995 8.91008 17.3152 8.94006C17.3308 8.97003 17.3465 8.98501 17.3778 8.98501H19.9152C19.9465 8.98501 19.9778 8.97003 19.9935 8.94006C20.0092 8.91008 19.9935 8.88011 19.9778 8.85014C19.7586 8.65532 19.6176 8.44552 19.5236 8.19076ZM15.4043 7.00687L16.2814 4.65407L17.2055 7.00687H15.4043Z" fill="#FFFAF5"/>
<path d="M25.334 8.98701L23.3952 6.11948L23.3654 6.08831L23.947 5.4026C24.2453 5.05974 24.5436 4.79481 24.8269 4.60779C25.1103 4.42078 25.4384 4.2961 25.8112 4.21818L25.8709 4.2026C25.9156 4.2026 25.9455 4.17143 25.9455 4.12468V4.07792C25.9455 4.01558 25.9156 4 25.8709 4H23.8128C23.7681 4 23.7382 4.03117 23.7382 4.07792V4.10909C23.7382 4.15584 23.7531 4.18701 23.7979 4.18701L23.8874 4.2026C23.9918 4.21818 24.0663 4.26494 24.1111 4.31169C24.1558 4.37403 24.1856 4.45195 24.1707 4.54545C24.1409 4.7013 24.0216 4.91948 23.783 5.2L22.3811 6.85195L22.0082 7.28831V5.30909C22.0082 4.85714 22.1425 4.46753 22.4258 4.14026C22.4556 4.12468 22.4556 4.09351 22.4407 4.06234C22.4258 4.03117 22.396 4.01558 22.3662 4.01558H20.0844C20.0545 4.01558 20.0247 4.03117 20.0098 4.06234C19.9949 4.09351 20.0098 4.12468 20.0247 4.14026C20.2932 4.46753 20.4423 4.85714 20.4423 5.30909V8.69091C20.4423 9.14286 20.3081 9.53247 20.0247 9.85974C19.9949 9.89091 19.9949 9.92208 20.0098 9.95325C20.0247 9.98442 20.0396 10 20.0844 10H22.3662C22.396 10 22.4258 9.98442 22.4407 9.95325C22.4556 9.92208 22.4556 9.89091 22.4258 9.85974C22.1574 9.53247 22.0082 9.15844 22.0082 8.69091V7.67792L22.3513 7.3039L24.1558 9.96883C24.1707 9.98442 24.1856 10 24.2155 10H25.9156C25.9455 10 25.9753 9.98442 25.9902 9.95325C26.0051 9.92208 26.0051 9.89091 25.9753 9.87532C25.7516 9.57922 25.5279 9.28312 25.334 8.98701Z" fill="#FFFAF5"/>
<path d="M30.9228 8.22798C30.8919 8.21244 30.8455 8.22798 30.8301 8.25907C30.5211 8.78756 30.2585 9.16062 30.0267 9.37824C29.7796 9.6114 29.5015 9.73575 29.208 9.73575H28.9608C28.6209 9.73575 28.3892 9.65803 28.2656 9.50259C28.1575 9.30052 28.0957 9.06736 28.0648 8.8342V8.80311V8.72539V8.63212V7.10881L28.6518 7.1399C28.9299 7.15544 29.1462 7.21762 29.3007 7.32642C29.4552 7.43523 29.5787 7.62176 29.6714 7.90155C29.6869 7.94819 29.7023 7.96373 29.7487 7.94819C29.795 7.94819 29.8105 7.9171 29.8105 7.87047V6.14508C29.8105 6.09845 29.795 6.06736 29.7487 6.06736C29.7023 6.05181 29.6714 6.0829 29.6714 6.12953C29.5787 6.40933 29.4552 6.59585 29.3161 6.70466C29.1771 6.79793 28.9454 6.8601 28.6518 6.87565L28.0648 6.90674V4.29534H28.9454C29.3161 4.29534 29.6096 4.3886 29.8259 4.59067C30.0113 4.7772 30.2121 5.11917 30.4284 5.61658C30.4439 5.66321 30.4748 5.67876 30.5211 5.66321L30.552 5.64767C30.5983 5.64767 30.6138 5.61658 30.6138 5.56995C30.5983 5.29016 30.5983 5.02591 30.5983 4.7772C30.5983 4.54404 30.5983 4.31088 30.6138 4.09326C30.6138 4.07772 30.5983 4.04663 30.5829 4.03109C30.5674 4.01554 30.552 4 30.5211 4H26.0874C26.0565 4 26.0256 4.01554 26.0101 4.04663C25.9947 4.07772 26.0101 4.10881 26.0256 4.1399C26.3037 4.46632 26.4582 4.85492 26.4582 5.3057V8.6943C26.4582 9.14508 26.3191 9.53368 26.0256 9.8601C25.9947 9.89119 25.9947 9.92228 26.0101 9.95337C26.0256 9.98446 26.041 10 26.0874 10H30.6447C30.691 10 30.7219 9.96891 30.7219 9.92228C30.7374 9.73575 30.7683 9.51813 30.8146 9.26943C30.861 9.02073 30.9228 8.70984 31 8.32124C30.9846 8.27461 30.9691 8.24352 30.9228 8.22798Z" fill="#FFFAF5"/>
<path d="M37.9237 4.01542H36.7935C36.7608 4.01542 36.728 4.03085 36.7116 4.0617C36.6953 4.09254 36.7117 4.12339 36.728 4.15424C37.0229 4.47815 37.1703 4.84833 37.1867 5.28021L37.2194 7.93316V8.0874L34.222 4.03085C34.2056 4.01542 34.1892 4 34.1565 4L32.0927 4.01542C32.0599 4.01542 32.0271 4.03085 32.0108 4.0617C31.9944 4.09254 31.9944 4.12339 32.0271 4.15424L32.584 4.81748V8.76607C32.5677 9.18252 32.4202 9.5527 32.1254 9.86118C32.109 9.89203 32.0927 9.92288 32.109 9.95373C32.1254 9.98458 32.1418 10 32.1746 10H33.3211C33.3539 10 33.3703 9.98458 33.3866 9.95373C33.403 9.92288 33.403 9.89203 33.3703 9.86118C33.0754 9.53727 32.9116 9.15167 32.9116 8.70437C32.9116 8.70437 32.9116 8.68895 32.8952 8.68895L32.8789 5.37275V5.21851L36.2858 9.92288C36.3022 9.9383 36.3185 9.95373 36.3513 9.95373L37.4323 9.9383C37.4815 9.9383 37.5142 9.90745 37.5142 9.86118V5.31105C37.5142 4.86375 37.6617 4.47815 37.9729 4.15424C38.0056 4.12339 38.0056 4.09254 37.9892 4.0617C37.9892 4.04627 37.9729 4.01542 37.9237 4.01542Z" fill="#FFFAF5"/>
<path d="M41.9479 8.22798C41.9016 8.21244 41.8708 8.22798 41.8553 8.25907C41.5467 8.78756 41.2844 9.16062 41.053 9.37824C40.8061 9.6114 40.5283 9.73575 40.2351 9.73575H39.9882C39.6488 9.73575 39.4173 9.65803 39.2939 9.50259C39.1858 9.30052 39.1241 9.06736 39.0933 8.8342V8.80311V8.72539V8.63212V7.10881L39.6796 7.1399C39.9574 7.15544 40.1734 7.21762 40.3277 7.32642C40.482 7.43523 40.6055 7.62176 40.698 7.90155C40.7135 7.94819 40.7289 7.96373 40.7752 7.94819C40.8215 7.94819 40.8369 7.9171 40.8369 7.87047V6.14508C40.8369 6.09845 40.8215 6.06736 40.7752 6.06736C40.7289 6.06736 40.698 6.0829 40.698 6.12953C40.6055 6.40933 40.482 6.59585 40.3431 6.70466C40.2043 6.79793 39.9728 6.8601 39.6796 6.87565L39.0933 6.90674V4.29534H39.9728C40.3431 4.29534 40.6363 4.3886 40.8524 4.59067C41.0375 4.7772 41.2381 5.11917 41.4541 5.61658C41.4696 5.66321 41.5004 5.67876 41.5467 5.66321L41.5622 5.64767C41.6085 5.64767 41.6239 5.61658 41.6239 5.56995C41.6084 5.29016 41.6084 5.02591 41.6084 4.7772C41.6084 4.54404 41.6084 4.31088 41.6084 4.09326C41.6084 4.07772 41.6085 4.04663 41.5776 4.03109C41.5622 4.01554 41.5467 4 41.5159 4H37.0873C37.0564 4 37.0256 4.01554 37.0101 4.04663C36.9947 4.07772 37.0101 4.10881 37.0256 4.1399C37.3033 4.46632 37.4576 4.85492 37.4576 5.3057V8.6943C37.4576 9.14508 37.3187 9.53368 37.0256 9.8601C36.9947 9.89119 36.9947 9.92228 37.0101 9.95337C37.0256 9.98446 37.041 10 37.0873 10H41.6393C41.6856 10 41.7165 9.96891 41.7165 9.92228C41.7319 9.73575 41.7628 9.51813 41.809 9.26943C41.8553 9.02073 41.9171 8.70984 41.9942 8.32124C42.0096 8.27461 41.9942 8.24352 41.9479 8.22798Z" fill="#FFFAF5"/>
<path d="M47.0299 4.81959C46.3732 4.27835 45.4818 4.01546 44.3559 4.01546C44.3403 4.01546 44.309 4.01546 44.2777 4C44.1057 4 43.9493 4 43.8086 4.01546H42.0885C42.0572 4.01546 42.0259 4.03093 42.0103 4.06186C41.9946 4.09278 42.0103 4.12371 42.0259 4.13918C42.3074 4.46392 42.4638 4.85052 42.4638 5.29897V6.79897C42.4638 6.79897 42.4638 6.81443 42.4794 6.81443V7.20103L42.4638 7.21649V8.71649C42.4638 9.16495 42.323 9.55155 42.0259 9.87629C41.9946 9.89175 41.9946 9.92268 42.0103 9.95361C42.0259 9.98454 42.0415 10 42.0885 10H44.6061C45.6382 10 46.467 9.72165 47.0769 9.18041C47.6867 8.62371 47.9995 7.91237 47.9995 7.03093C48.0151 6.10309 47.6867 5.36082 47.0299 4.81959ZM45.9197 9.14948C45.6695 9.56701 45.3098 9.76804 44.8407 9.76804C44.5748 9.76804 44.3872 9.69072 44.2777 9.53608C44.1683 9.39691 44.1213 9.13402 44.1213 8.77835V4.24742H44.1683C44.825 4.30928 45.3411 4.61856 45.732 5.19072C46.1073 5.76289 46.295 6.52062 46.295 7.44845C46.295 8.17526 46.1699 8.74742 45.9197 9.14948Z" fill="#FFFAF5"/>
<path d="M58 3C58 2.66667 58.6667 2 59 2C58.6667 2 58 1.33333 58 1C58 1.33333 57.3333 2 57 2C57.3333 2 58 2.66667 58 3Z" fill="#FFFAF5"/>
<path d="M57.5 4L58.5578 3C59.1474 2.44262 59.1474 1.55738 58.5578 1L57.5 0L56.4422 1C55.8526 1.55738 55.8526 2.44262 56.4422 3L57.5 4ZM56.789 1.32787L57.5 0.655738L58.211 1.32787C58.5925 1.68852 58.5925 2.29508 58.211 2.65574L57.5 3.32787L56.789 2.65574C56.4075 2.29508 56.4075 1.70492 56.789 1.32787Z" fill="#E8D7AC"/>
<path d="M62.085 4.5536C61.875 4.32746 61.62 4.19824 61.35 4.16593C61.305 4.00441 61.26 3.84288 61.2 3.68135C60.795 2.59912 60.03 1.71072 59.025 1.16153L58.755 1.01615L58.71 1.32305C58.665 1.59765 58.575 1.85609 58.425 2.09838C58.365 2.1953 58.305 2.27606 58.23 2.35683L57.93 2.67988L57.63 3.00294L57.33 3.32599L57.03 3.64905L56.415 2.98678L55.8 2.32452C55.725 2.24376 55.665 2.163 55.605 2.06608L55.59 2.04993C55.455 1.82379 55.35 1.5815 55.32 1.3069L55.275 1L55.005 1.14537C54 1.67841 53.235 2.58297 52.83 3.6652C52.77 3.82673 52.725 3.98825 52.68 4.14978C52.395 4.18209 52.14 4.32746 51.945 4.53745L51 5.53891L51.915 6.52423C52.125 6.75037 52.38 6.87959 52.65 6.91189C52.695 7.07342 52.74 7.23495 52.8 7.39648C53.265 8.59178 54.15 9.56094 55.26 10.0455C55.41 10.1101 55.545 10.1586 55.71 10.207C55.74 10.514 55.875 10.7885 56.085 10.9985L57 12L57.915 11.0147C58.125 10.7885 58.245 10.514 58.275 10.2232C58.425 10.1747 58.575 10.1263 58.725 10.0617C59.835 9.56094 60.735 8.60793 61.185 7.41263C61.245 7.2511 61.305 7.08957 61.335 6.92805C61.62 6.89574 61.875 6.75037 62.07 6.54038L63 5.53891L62.085 4.5536ZM59.07 1.72687C59.82 2.1953 60.405 2.90602 60.75 3.74596C60.81 3.89134 60.855 4.03671 60.9 4.18209C60.765 4.21439 60.615 4.26285 60.495 4.35977C60.45 4.21439 60.405 4.06902 60.345 3.92364C60.045 3.21292 59.55 2.59912 58.905 2.17915C58.965 2.01762 59.025 1.87225 59.07 1.72687ZM58.215 3.01909L58.515 2.69604C58.56 2.64758 58.605 2.59912 58.635 2.55066C59.235 2.93833 59.7 3.51982 59.97 4.19824C60.03 4.35977 60.09 4.52129 60.12 4.68282L59.985 4.82819L59.625 5.21586L57.9 3.3583L58.215 3.01909ZM53.25 3.72981C53.595 2.88987 54.18 2.1953 54.93 1.72687C54.975 1.87225 55.035 2.01762 55.095 2.163C54.45 2.58297 53.955 3.19677 53.655 3.90749C53.595 4.05286 53.535 4.19824 53.505 4.34361C53.385 4.26285 53.25 4.19824 53.1 4.16593C53.145 4.02056 53.19 3.87518 53.25 3.72981ZM52.545 6.41116C52.425 6.3627 52.32 6.29809 52.23 6.18502L51.615 5.52276L52.23 4.8605C52.32 4.76358 52.44 4.68282 52.545 4.63436C52.515 4.82819 52.485 5.03818 52.485 5.23201C52.485 5.32893 52.485 5.40969 52.485 5.50661C52.485 5.60352 52.485 5.70044 52.5 5.7812L52.545 5.82966C52.59 5.87812 52.65 5.91043 52.71 5.94273C52.755 5.95888 52.8 5.97504 52.86 5.97504C52.89 5.97504 52.92 5.97504 52.935 5.97504H52.95C52.935 5.82966 52.935 5.66814 52.935 5.52276C52.935 5.37739 52.935 5.21586 52.95 5.07048C52.965 4.90896 52.98 4.76358 53.01 4.61821C53.16 4.65051 53.295 4.71512 53.415 4.82819C53.43 4.84435 53.445 4.8605 53.46 4.87665L53.76 5.19971L53.79 5.1674L54.06 4.87665L53.865 4.66667C53.91 4.50514 53.955 4.32746 54.015 4.18209C54.285 3.50367 54.735 2.92217 55.35 2.53451C55.395 2.58297 55.44 2.63142 55.47 2.67988L55.77 3.00294L56.07 3.32599L54.045 5.53891L53.775 5.82966L53.445 6.18502C53.43 6.20117 53.415 6.21733 53.4 6.23348C53.28 6.34655 53.145 6.41116 52.995 6.44347C52.845 6.47577 52.68 6.47577 52.545 6.41116ZM55.74 9.73862C55.605 9.69016 55.47 9.62555 55.335 9.57709C54.42 9.14097 53.67 8.33333 53.265 7.34802C53.205 7.20264 53.16 7.05727 53.115 6.91189C53.25 6.87959 53.385 6.81498 53.52 6.73421C53.565 6.87959 53.61 7.02496 53.67 7.17034C54.045 8.04258 54.69 8.73715 55.5 9.14097C55.635 9.20558 55.77 9.27019 55.905 9.3025C55.815 9.43172 55.77 9.57709 55.74 9.73862ZM57.81 10.3363C57.765 10.4655 57.705 10.5786 57.6 10.6916L56.985 11.3539L56.37 10.6916C56.28 10.5947 56.205 10.4655 56.16 10.3363C56.34 10.3686 56.535 10.4009 56.715 10.4009C56.805 10.4009 56.88 10.417 56.97 10.417V9.94861C56.835 9.94861 56.685 9.9486 56.55 9.93245C56.4 9.9163 56.265 9.90015 56.13 9.86784C56.16 9.70632 56.22 9.56094 56.325 9.43172C56.34 9.41557 56.355 9.39941 56.37 9.38326L56.67 9.06021L56.37 8.73715L56.175 8.94714C56.025 8.89868 55.86 8.85022 55.725 8.78561C54.945 8.43025 54.33 7.76799 54 6.92805C53.94 6.76652 53.88 6.60499 53.85 6.44347L53.985 6.29809L54.345 5.91043L57 8.721L57.27 9.01175L57.6 9.36711C57.615 9.38326 57.63 9.39941 57.645 9.41557C57.75 9.54479 57.81 9.69016 57.84 9.85169C57.87 10.0132 57.87 10.1909 57.81 10.3363ZM60.735 7.33186C60.33 8.31718 59.58 9.12482 58.665 9.56094C58.53 9.62555 58.395 9.67401 58.26 9.72247C58.23 9.57709 58.185 9.43172 58.095 9.28634C58.23 9.23789 58.365 9.18943 58.5 9.12482C59.31 8.721 59.955 8.02643 60.33 7.15418C60.39 7.00881 60.45 6.86344 60.48 6.71806C60.6 6.79883 60.735 6.86344 60.885 6.89574C60.855 7.05727 60.795 7.20264 60.735 7.33186ZM61.785 6.20117C61.695 6.29809 61.575 6.37885 61.455 6.42731C61.485 6.23348 61.515 6.03965 61.515 5.82966C61.515 5.73275 61.53 5.65198 61.53 5.55507C61.53 5.45815 61.53 5.37739 61.53 5.28047L61.485 5.23201C61.44 5.18355 61.38 5.15125 61.32 5.11894C61.275 5.10279 61.23 5.08664 61.17 5.08664C61.14 5.08664 61.11 5.08664 61.095 5.08664H61.08C61.095 5.23201 61.095 5.39354 61.095 5.53891C61.095 5.68429 61.095 5.84582 61.08 5.99119C61.065 6.15272 61.05 6.29809 61.02 6.44347C60.87 6.41116 60.735 6.34655 60.615 6.23348C60.6 6.21733 60.585 6.20117 60.57 6.18502L60.27 5.86197L60.24 5.89427L59.97 6.18502L60.15 6.39501C60.105 6.55653 60.06 6.73421 60 6.87959C59.67 7.71953 59.055 8.38179 58.275 8.73715C58.125 8.80176 57.975 8.86637 57.825 8.89868L57.69 8.7533L57.03 8.04258L56.415 7.38032L54.66 5.53891L56.385 3.68135L56.535 3.84288L56.985 4.32746L57.135 4.48899L58.095 5.52276L57.285 6.39501L57.585 6.71806L58.71 5.50661L57.285 3.9721L57.585 3.64905L59.34 5.53891L57.615 7.39648L57.42 7.18649L56.85 6.57269L56.835 6.55653L55.875 5.52276L56.685 4.65051L56.385 4.32746L55.26 5.53891L57.6 8.05874L59.955 5.53891L60.57 4.87665C60.585 4.8605 60.6 4.84435 60.615 4.82819C60.735 4.71512 60.87 4.65051 61.02 4.61821C61.17 4.5859 61.32 4.60206 61.47 4.65051C61.59 4.69897 61.695 4.76358 61.785 4.87665L62.4 5.53891L61.785 6.20117Z" fill="#E8D7AC"/>
</svg>
