<svg width="41" height="29" viewBox="0 0 41 29" fill="none" xmlns="http://www.w3.org/2000/svg">
<path d="M2.96973 4.6001H38.9697C40.0697 4.6001 40.9697 3.7001 40.9697 2.6001C40.9697 1.5001 40.0697 0.600098 38.9697 0.600098H2.96973C1.86973 0.600098 0.969727 1.5001 0.969727 2.6001C0.969727 3.7001 1.86973 4.6001 2.96973 4.6001Z" fill="#FFFAF5"/>
<path d="M38.9697 12.6001H2.96973C1.86973 12.6001 0.969727 13.5001 0.969727 14.6001C0.969727 15.7001 1.86973 16.6001 2.96973 16.6001H38.9697C40.0697 16.6001 40.9697 15.7001 40.9697 14.6001C40.9697 13.5001 40.0697 12.6001 38.9697 12.6001Z" fill="#FFFAF5"/>
<path d="M38.9697 24.6001H2.96973C1.86973 24.6001 0.969727 25.5001 0.969727 26.6001C0.969727 27.7001 1.86973 28.6001 2.96973 28.6001H38.9697C40.0697 28.6001 40.9697 27.7001 40.9697 26.6001C40.9697 25.5001 40.0697 24.6001 38.9697 24.6001Z" fill="#FFFAF5"/>
</svg>
