<svg width="24" height="24" viewBox="0 0 24 24" fill="none" xmlns="http://www.w3.org/2000/svg">
<path d="M12.3907 0.189933C14.739 0.619776 16.7075 1.72937 18.3063 3.48873C19.8352 5.18811 20.7244 7.18738 20.9443 9.46655C21.1941 12.0456 20.5646 14.4147 19.0757 16.554C19.0257 16.6239 18.9758 16.6939 18.9159 16.7839C18.9858 16.8538 19.0457 16.9238 19.1057 16.9838C20.5746 18.4533 22.0435 19.9227 23.5124 21.3922C24.1419 22.032 24.1619 22.9516 23.5723 23.5514C22.9827 24.1512 22.0335 24.1512 21.404 23.5414C20.085 22.2519 18.7759 20.9524 17.4669 19.6628C17.2271 19.4229 17.0072 19.173 16.8274 18.9731C16.0679 19.3829 15.4085 19.8228 14.6791 20.1127C10.9519 21.6421 7.41449 21.2522 4.16692 18.8631C1.86864 17.1737 0.549573 14.8346 0.109903 12.0156C0.0699329 11.7357 0.03997 11.4458 0 11.1559C0 10.7161 0 10.2762 0 9.8464C0.0599551 9.42656 0.0999788 9.01671 0.179919 8.59686C0.839425 5.27807 2.66802 2.80898 5.63579 1.19957C6.89485 0.509818 8.26377 0.13995 9.70269 0.0399863C9.76264 0.0399863 9.82265 0.00999635 9.88261 0C10.2923 0 10.692 0 11.1017 0C11.5413 0.0699745 11.9711 0.119959 12.3907 0.189933ZM10.5121 18.0034C14.639 18.0034 18.0065 14.6347 17.9965 10.4962C17.9865 6.35768 14.629 2.99891 10.4921 3.0089C6.35524 3.0089 3.00776 6.37768 3.00776 10.5162C3.01775 14.6547 6.37524 18.0034 10.5121 18.0034Z" fill="#9E99A1"/>
</svg>
