<svg width="22" height="14" viewBox="0 0 22 14" fill="none" xmlns="http://www.w3.org/2000/svg">
<path d="M21.7586 6.45536C21.1784 5.77574 20.6081 5.08613 19.9779 4.45648C18.4673 2.92733 16.7667 1.65802 14.7759 0.808497C13.3853 0.218827 11.9348 -0.0809831 10.4242 0.0189609C8.77353 0.128899 7.25283 0.678572 5.83227 1.49811C3.67141 2.74741 1.87069 4.40652 0.320073 6.34543C0.190022 6.50535 0.110044 6.69521 0 6.87511C0 6.96506 0 7.04502 0 7.13497C0.0700278 7.2649 0.120009 7.41483 0.210044 7.52477C1.99075 9.77351 4.08155 11.6824 6.68258 12.9517C7.92308 13.5614 9.23365 13.9311 10.6142 13.9911C12.635 14.0811 14.4657 13.4814 16.1964 12.492C18.3872 11.2327 20.208 9.53361 21.7686 7.55472C22.0688 7.16494 22.0888 6.84514 21.7586 6.45536ZM18.5773 8.88399C17.5069 9.91341 16.3265 10.8129 14.9959 11.4925C13.6254 12.1921 12.1948 12.6319 10.6242 12.5519C9.60381 12.5019 8.63338 12.2321 7.70301 11.8324C5.84227 11.0228 4.28169 9.79346 2.87113 8.36426C2.44096 7.9345 2.0408 7.47478 1.61062 7.00504C2.0608 6.52531 2.47101 6.04561 2.91119 5.60586C4.11167 4.38654 5.43212 3.32713 6.96272 2.53757C8.33327 1.82797 9.76382 1.3982 11.3244 1.46816C12.3448 1.51813 13.3153 1.77796 14.2456 2.18773C16.1164 2.99728 17.677 4.22663 19.0975 5.66582C19.5177 6.09558 19.9179 6.54532 20.3681 7.02505C19.7578 7.66469 19.1876 8.29432 18.5773 8.88399Z" fill="#C4C8CC"/>
<path d="M11.0044 2.66752C8.60346 2.65752 6.6427 4.6064 6.6427 7.00505C6.6427 9.39372 8.57342 11.3427 10.9744 11.3527C13.3753 11.3627 15.3361 9.41372 15.3361 7.01506C15.3461 4.6164 13.4054 2.67751 11.0044 2.66752ZM11.0044 9.90346C9.41379 9.91345 8.08322 8.59415 8.09323 6.99505C8.10323 5.39595 9.40377 4.10672 10.9944 4.10672C12.595 4.10672 13.8856 5.40594 13.8956 6.99505C13.8956 8.59415 12.6051 9.89346 11.0044 9.90346Z" fill="#C4C8CC"/>
</svg>
