<svg width="24" height="24" viewBox="0 0 24 24" fill="none" xmlns="http://www.w3.org/2000/svg">
<path d="M17.4375 21.7C17.2375 21.7 17.1375 21.6 16.9375 21.5L11.8375 17.6L6.7375 21.5C6.4375 21.7 6.1375 21.7 5.8375 21.5C5.5375 21.3 5.4375 20.9 5.5375 20.6L7.4375 14.3L2.3375 10.4C2.0375 10.2 1.9375 9.8 2.0375 9.5C2.1375 9.2 2.4375 8.89999 2.7375 8.89999H9.0375L10.9375 2.60001C11.0375 2.30001 11.3375 2 11.6375 2C11.9375 2 12.2375 2.20001 12.3375 2.60001L14.2375 8.89999H20.5375C20.8375 8.89999 21.1375 9.1 21.2375 9.5C21.3375 9.8 21.2375 10.2 20.9375 10.4L15.8375 14.3L17.7375 20.6C17.8375 20.9 17.7375 21.3 17.4375 21.5C17.7375 21.7 17.6375 21.7 17.4375 21.7ZM11.8375 15.9C12.0375 15.9 12.1375 16 12.3375 16.1L15.9375 18.9L14.5375 14.4C14.4375 14.1 14.5375 13.7 14.8375 13.5L18.4375 10.7H13.9375C13.6375 10.7 13.3375 10.5 13.2375 10.1L11.8375 5.60001L10.4375 10.1C10.3375 10.4 10.0375 10.7 9.7375 10.7H5.2375L8.8375 13.5C9.1375 13.7 9.2375 14.1 9.1375 14.4L7.7375 18.9L11.3375 16.1C11.5375 15.9 11.7375 15.9 11.8375 15.9Z" fill="#363138"/>
</svg>
