<svg width="24" height="24" viewBox="0 0 24 24" fill="none" xmlns="http://www.w3.org/2000/svg">
<path d="M12 21C11.9 21 11.7 21 11.6 20.9C11.6 20.9 11.5 20.9 11.5 20.8L11.2 20.6C10.6 20.1 9.2 19.1 8.2 18.3C4.6 15.3 2.7 13.1 2.3 11.5C2.1 11 2 10.3 2 9.60001C2 7.80001 2.6 6.10002 3.7 4.80002C4.7 3.70002 6.1 3.10001 7.5 3.10001C9.1 3.10001 10.6 3.8 11.6 5C12.6 3.7 14.1 3 15.7 3H15.8C18.8 3 21.4 5.80002 21.4 9.30002C21.4 10 21.3 10.6 21.1 11.3C20.8 12.9 18.9 15.2 15.4 18.2C14.1 19.4 13 20.3 12.1 20.8C12.3 20.9 12.1 21 12 21ZM7.7 4.80002C6.7 4.80002 5.7 5.2 5 6C4.2 6.9 3.7 8.2 3.7 9.5C3.7 10 3.8 10.5 3.9 10.9C4.1 11.7 4.9 13.3 9.2 16.8C10 17.5 11.3 18.4 12 18.9C12.7 18.4 13.6 17.6 14.6 16.7C18.7 13.1 19.6 11.4 19.7 10.7C19.8 10.2 19.9 9.70001 19.9 9.20001C19.9 6.70001 18.1 4.60001 15.9 4.60001H15.8C14.4 4.60001 13.1 5.40002 12.4 6.80002C12.3 7.10002 12 7.20001 11.7 7.20001C11.4 7.20001 11.1 7.00002 11 6.80002C10.4 5.60002 9.1 4.80002 7.7 4.80002Z" fill="#363138"/>
</svg>
