<svg width="38" height="38" viewBox="0 0 38 38" fill="none" xmlns="http://www.w3.org/2000/svg">
<path d="M18.9999 38C8.59036 38 0 29.5106 0 19C0 8.48936 8.48929 0 18.9999 0C29.4095 0 38 8.48936 38 19C38 29.5106 29.5106 38 18.9999 38ZM18.9999 2.2234C9.70206 2.2234 2.12232 9.80319 2.12232 19.1011C2.12232 28.3989 9.70206 35.9787 18.9999 35.9787C28.2978 35.9787 35.8777 28.3989 35.8777 19.1011C35.8777 9.80319 28.2978 2.2234 18.9999 2.2234Z" fill="#363138"/>
<path fill-rule="evenodd" clip-rule="evenodd" d="M24.9373 15.1C24.9373 11.7 22.2373 9 18.8373 9C15.4373 9 12.7373 11.7 12.7373 15.1C12.7373 17 13.5373 18.6 14.8373 19.7C12.1373 21.1 10.2373 24 10.2373 27.3C10.2373 28 10.7373 28.5 11.4373 28.5C12.1373 28.5 12.6373 28 12.6373 27.3C12.6373 23.9 15.3373 21.2 18.7373 21.2C22.1373 21.2 24.8373 23.9 24.8373 27.3C24.8373 28 25.3373 28.5 26.0373 28.5C26.7373 28.5 27.2373 28 27.2373 27.3C27.2373 24 25.3373 21.2 22.6373 19.7C24.1373 18.6 24.9373 17 24.9373 15.1ZM18.8373 18.8C16.8373 18.8 15.1373 17.2 15.1373 15.1C15.1373 13.1 16.7373 11.4 18.8373 11.4C20.8373 11.4 22.5373 13 22.5373 15.1C22.5373 17.1 20.8373 18.8 18.8373 18.8Z" fill="#363138"/>
</svg>
