<svg width="24" height="24" viewBox="0 0 24 24" fill="none" xmlns="http://www.w3.org/2000/svg">
<path d="M19.5 5H4C2.9 5 2 5.9 2 7V9.40002V9.5V9.59998V17.1C2 18.2 2.9 19.1 4 19.1H19.5C20.6 19.1 21.5 18.2 21.5 17.1V7C21.5 5.9 20.6 5 19.5 5ZM4 6.70001H19.5C19.7 6.70001 19.8 6.8 19.8 7V8.70001H3.7V7C3.7 6.9 3.8 6.70001 4 6.70001ZM19.5 17.5H4C3.8 17.5 3.7 17.4 3.7 17.2V10.5H19.8V17.2C19.8 17.3 19.7 17.5 19.5 17.5Z" fill="#363138"/>
<path d="M7.3999 13H5.3999V14.7H7.3999V13Z" fill="#363138"/>
</svg>
